SeanSans-NarrowRegular.ufo
<glyph name="exclam" format="1">
  <advance width="248"/>
  <unicode hex="0021"/>
  <outline>
    <contour>
      <point x="160" y="229" type="line"/>
      <point x="167" y="722" type="line"/>
      <point x="81" y="722" type="line"/>
      <point x="88" y="229" type="line"/>
    </contour>
    <contour>
      <point x="168" y="33" type="curve"/>
      <point x="168" y="60"/>
      <point x="149" y="74"/>
      <point x="124" y="74" type="curve"/>
      <point x="97" y="74"/>
      <point x="81" y="59"/>
      <point x="81" y="33" type="curve"/>
      <point x="164" y="33"/>
      <point x="84" y="33"/>
      <point x="168" y="33" type="curve"/>
      <point x="168" y="6"/>
      <point x="150" y="-7"/>
      <point x="123" y="-7" type="curve"/>
      <point x="97" y="-7"/>
      <point x="81" y="7"/>
      <point x="81" y="33" type="curve"/>
      <point x="164" y="33"/>
      <point x="84" y="33"/>
    </contour>
  </outline>
</glyph>
<glyph name="quotedbl" format="1">
  <advance width="380"/>
  <unicode hex="0022"/>
  <outline>
    <contour>
      <point x="137" y="616" type="line"/>
      <point x="143" y="819" type="line"/>
      <point x="61" y="819" type="line"/>
      <point x="67" y="616" type="line"/>
    </contour>
    <contour>
      <point x="313" y="616" type="line"/>
      <point x="319" y="819" type="line"/>
      <point x="237" y="819" type="line"/>
      <point x="243" y="616" type="line"/>
    </contour>
  </outline>
</glyph>
<glyph name="numbersign" format="1">
  <advance width="615"/>
  <unicode hex="0023"/>
  <outline>
    <contour>
      <point x="40" y="234" type="curve"/>
      <point x="495" y="234" type="curve"/>
      <point x="513" y="294" type="curve"/>
      <point x="58" y="294" type="curve"/>
    </contour>
    <contour>
      <point x="102" y="465" type="curve"/>
      <point x="558" y="465" type="curve"/>
      <point x="575" y="525" type="curve"/>
      <point x="118" y="525" type="curve"/>
    </contour>
    <contour>
      <point x="373" y="39" type="curve"/>
      <point x="564" y="722" type="curve"/>
      <point x="488" y="722" type="curve"/>
      <point x="296" y="39" type="curve"/>
    </contour>
    <contour>
      <point x="136" y="46" type="curve"/>
      <point x="324" y="722" type="curve"/>
      <point x="248" y="722" type="curve"/>
      <point x="63" y="46" type="curve"/>
    </contour>
  </outline>
</glyph>
<glyph name="dollar" format="1">
  <advance width="508"/>
  <unicode hex="0024"/>
  <outline>
    <contour>
      <point x="274" y="-42" type="curve"/>
      <point x="274" y="-10"/>
      <point x="274" y="43"/>
      <point x="274" y="75" type="curve"/>
      <point x="198" y="75"/>
      <point x="274" y="75"/>
      <point x="198" y="75" type="curve"/>
      <point x="198" y="43"/>
      <point x="198" y="-10"/>
      <point x="198" y="-42" type="curve"/>
      <point x="274" y="-42"/>
      <point x="198" y="-42"/>
    </contour>
    <contour>
      <point x="284" y="654" type="curve"/>
      <point x="284" y="686"/>
      <point x="284" y="741"/>
      <point x="284" y="773" type="curve"/>
      <point x="208" y="773"/>
      <point x="284" y="773"/>
      <point x="208" y="773" type="curve"/>
      <point x="208" y="741"/>
      <point x="208" y="686"/>
      <point x="208" y="654" type="curve"/>
      <point x="284" y="654"/>
      <point x="208" y="654"/>
    </contour>
    <contour>
      <point x="48" y="96" type="curve"/>
      <point x="99" y="69"/>
      <point x="160" y="45"/>
      <point x="232" y="45" type="curve"/>
      <point x="362" y="45"/>
      <point x="463" y="101"/>
      <point x="463" y="208" type="curve"/>
      <point x="463" y="306"/>
      <point x="372" y="354"/>
      <point x="271" y="401" type="curve"/>
      <point x="195" y="437"/>
      <point x="133" y="465"/>
      <point x="133" y="533" type="curve"/>
      <point x="133" y="591"/>
      <point x="181" y="626"/>
      <point x="249" y="626" type="curve"/>
      <point x="308" y="626"/>
      <point x="348" y="610"/>
      <point x="399" y="582" type="curve"/>
      <point x="435" y="633"/>
      <point x="399" y="582"/>
      <point x="435" y="633" type="curve"/>
      <point x="375" y="667"/>
      <point x="324" y="685"/>
      <point x="253" y="685" type="curve"/>
      <point x="138" y="685"/>
      <point x="57" y="630"/>
      <point x="57" y="533" type="curve"/>
      <point x="57" y="438"/>
      <point x="129" y="392"/>
      <point x="226" y="347" type="curve"/>
      <point x="307" y="311"/>
      <point x="387" y="279"/>
      <point x="387" y="205" type="curve"/>
      <point x="387" y="139"/>
      <point x="322" y="105"/>
      <point x="239" y="105" type="curve"/>
      <point x="180" y="105"/>
      <point x="131" y="128"/>
      <point x="87" y="149" type="curve"/>
      <point x="48" y="96"/>
      <point x="87" y="149"/>
    </contour>
  </outline>
</glyph>
<glyph name="percent" format="1">
  <advance width="967"/>
  <unicode hex="0025"/>
  <outline>
    <contour>
      <point x="339" y="-68" type="line"/>
      <point x="716" y="736" type="line"/>
      <point x="643" y="736" type="line"/>
      <point x="267" y="-68" type="line"/>
    </contour>
    <contour>
      <point x="103" y="528" type="curve"/>
      <point x="103" y="616"/>
      <point x="130" y="684"/>
      <point x="210" y="684" type="curve"/>
      <point x="291" y="685"/>
      <point x="318" y="617"/>
      <point x="318" y="528" type="curve"/>
      <point x="318" y="439"/>
      <point x="294" y="369"/>
      <point x="214" y="369" type="curve"/>
      <point x="131" y="369"/>
      <point x="103" y="437"/>
      <point x="103" y="528" type="curve"/>
      <point x="77" y="528"/>
      <point x="61" y="528"/>
      <point x="35" y="528" type="curve"/>
      <point x="35" y="402"/>
      <point x="92" y="313"/>
      <point x="211" y="313" type="curve"/>
      <point x="331" y="313"/>
      <point x="388" y="403"/>
      <point x="388" y="530" type="curve"/>
      <point x="388" y="654"/>
      <point x="331" y="741"/>
      <point x="213" y="740" type="curve"/>
      <point x="94" y="740"/>
      <point x="35" y="653"/>
      <point x="35" y="528" type="curve"/>
      <point x="61" y="528"/>
      <point x="77" y="528"/>
    </contour>
    <contour>
      <point x="647" y="142" type="curve"/>
      <point x="647" y="231"/>
      <point x="674" y="298"/>
      <point x="754" y="298" type="curve"/>
      <point x="835" y="299"/>
      <point x="862" y="231"/>
      <point x="862" y="142" type="curve"/>
      <point x="862" y="53"/>
      <point x="838" y="-17"/>
      <point x="758" y="-17" type="curve"/>
      <point x="675" y="-17"/>
      <point x="647" y="52"/>
      <point x="647" y="142" type="curve"/>
      <point x="621" y="142"/>
      <point x="605" y="142"/>
      <point x="580" y="142" type="curve"/>
      <point x="580" y="16"/>
      <point x="636" y="-73"/>
      <point x="755" y="-73" type="curve"/>
      <point x="875" y="-73"/>
      <point x="932" y="17"/>
      <point x="932" y="145" type="curve"/>
      <point x="932" y="269"/>
      <point x="875" y="355"/>
      <point x="757" y="355" type="curve"/>
      <point x="638" y="355"/>
      <point x="580" y="267"/>
      <point x="580" y="142" type="curve"/>
      <point x="605" y="142"/>
      <point x="621" y="142"/>
    </contour>
  </outline>
</glyph>
<glyph name="quotesingle" format="1">
  <advance width="204"/>
  <unicode hex="0027"/>
  <outline>
    <contour>
      <point x="137" y="616" type="line"/>
      <point x="143" y="819" type="line"/>
      <point x="61" y="819" type="line"/>
      <point x="67" y="616" type="line"/>
    </contour>
  </outline>
</glyph>
<glyph name="parenleft" format="1">
  <advance width="327"/>
  <unicode hex="0028"/>
  <outline>
    <contour>
      <point x="324" y="-223" type="curve"/>
      <point x="177" y="-54"/>
      <point x="124" y="102"/>
      <point x="124" y="326" type="curve"/>
      <point x="124" y="551"/>
      <point x="178" y="706"/>
      <point x="323" y="877" type="curve"/>
      <point x="277" y="915"/>
      <point x="323" y="877"/>
      <point x="277" y="915" type="curve"/>
      <point x="118" y="734"/>
      <point x="49" y="570"/>
      <point x="49" y="326" type="curve"/>
      <point x="49" y="82"/>
      <point x="119" y="-82"/>
      <point x="278" y="-264" type="curve"/>
      <point x="324" y="-223"/>
      <point x="278" y="-264"/>
    </contour>
  </outline>
</glyph>
<glyph name="parenright" format="1">
  <advance width="337"/>
  <unicode hex="0029"/>
  <outline>
    <contour>
      <point x="47" y="-279" type="curve"/>
      <point x="208" y="-89"/>
      <point x="288" y="76"/>
      <point x="288" y="328" type="curve"/>
      <point x="288" y="574"/>
      <point x="215" y="736"/>
      <point x="50" y="916" type="curve"/>
      <point x="4" y="875"/>
      <point x="50" y="916"/>
      <point x="4" y="875" type="curve"/>
      <point x="154" y="706"/>
      <point x="212" y="551"/>
      <point x="212" y="325" type="curve"/>
      <point x="212" y="94"/>
      <point x="145" y="-61"/>
      <point x="0" y="-240" type="curve"/>
      <point x="47" y="-279"/>
      <point x="0" y="-240"/>
    </contour>
  </outline>
</glyph>
<glyph name="asterisk" format="1">
  <advance width="613"/>
  <unicode hex="002A"/>
  <outline>
    <contour>
      <point x="331" y="586" type="line"/>
      <point x="336" y="789" type="line"/>
      <point x="274" y="789" type="line"/>
      <point x="279" y="586" type="line"/>
    </contour>
    <contour>
      <point x="357" y="531" type="line"/>
      <point x="551" y="592" type="line"/>
      <point x="530" y="651" type="line"/>
      <point x="340" y="581" type="line"/>
    </contour>
    <contour>
      <point x="314" y="489" type="line"/>
      <point x="434" y="326" type="line"/>
      <point x="482" y="365" type="line"/>
      <point x="354" y="522" type="line"/>
    </contour>
    <contour>
      <point x="260" y="521" type="line"/>
      <point x="132" y="363" type="line"/>
      <point x="181" y="325" type="line"/>
      <point x="302" y="488" type="line"/>
    </contour>
    <contour>
      <point x="272" y="578" type="line"/>
      <point x="82" y="649" type="line"/>
      <point x="61" y="590" type="line"/>
      <point x="254" y="528" type="line"/>
    </contour>
  </outline>
</glyph>
<glyph name="plus" format="1">
  <advance width="612"/>
  <unicode hex="002B"/>
  <outline>
    <contour>
      <point x="41" y="279" type="curve"/>
      <point x="571" y="279" type="line"/>
      <point x="571" y="344"/>
      <point x="571" y="279"/>
      <point x="571" y="344" type="curve"/>
      <point x="41" y="344" type="line"/>
      <point x="41" y="279"/>
      <point x="41" y="344"/>
    </contour>
    <contour>
      <point x="342" y="30" type="curve"/>
      <point x="342" y="585" type="line"/>
      <point x="266" y="585"/>
      <point x="346" y="585"/>
      <point x="270" y="585" type="curve"/>
      <point x="270" y="30" type="line"/>
      <point x="346" y="30"/>
      <point x="266" y="30"/>
    </contour>
  </outline>
</glyph>
<glyph name="comma" format="1">
  <advance width="168"/>
  <unicode hex="002C"/>
  <outline>
    <contour>
      <point x="24" y="-113" type="line"/>
      <point x="82" y="-98"/>
      <point x="124" y="-52"/>
      <point x="124" y="22" type="curve"/>
      <point x="124" y="70"/>
      <point x="107" y="102"/>
      <point x="74" y="102" type="curve"/>
      <point x="47" y="102"/>
      <point x="30" y="88"/>
      <point x="30" y="61" type="curve"/>
      <point x="30" y="37"/>
      <point x="43" y="22"/>
      <point x="68" y="19" type="curve"/>
      <point x="68" y="-8"/>
      <point x="59" y="-50"/>
      <point x="14" y="-69" type="curve"/>
    </contour>
  </outline>
</glyph>
<glyph name="hyphen" format="1">
  <advance width="403"/>
  <unicode hex="002D"/>
  <outline>
    <contour>
      <point x="73" y="244" type="curve"/>
      <point x="159" y="244"/>
      <point x="245" y="244"/>
      <point x="330" y="244" type="curve"/>
      <point x="330" y="310"/>
      <point x="330" y="244"/>
      <point x="330" y="310" type="curve"/>
      <point x="245" y="310"/>
      <point x="159" y="310"/>
      <point x="73" y="310" type="curve"/>
      <point x="73" y="244"/>
      <point x="73" y="310"/>
    </contour>
  </outline>
</glyph>
<glyph name="period" format="1">
  <advance width="211"/>
  <unicode hex="002E"/>
  <outline>
    <contour>
      <point x="149" y="33" type="curve"/>
      <point x="149" y="60"/>
      <point x="131" y="74"/>
      <point x="105" y="74" type="curve"/>
      <point x="79" y="74"/>
      <point x="62" y="59"/>
      <point x="62" y="33" type="curve"/>
      <point x="146" y="33"/>
      <point x="66" y="33"/>
      <point x="149" y="33" type="curve"/>
      <point x="149" y="6"/>
      <point x="131" y="-7"/>
      <point x="105" y="-7" type="curve"/>
      <point x="78" y="-7"/>
      <point x="62" y="7"/>
      <point x="62" y="33" type="curve"/>
      <point x="146" y="33"/>
      <point x="66" y="33"/>
    </contour>
  </outline>
</glyph>
<glyph name="slash" format="1">
  <advance width="502"/>
  <unicode hex="002F"/>
  <outline>
    <contour>
      <point x="101" y="-44" type="curve"/>
      <point x="226" y="243"/>
      <point x="352" y="530"/>
      <point x="477" y="817" type="curve"/>
      <point x="401" y="817"/>
      <point x="477" y="817"/>
      <point x="401" y="817" type="curve"/>
      <point x="276" y="530"/>
      <point x="151" y="243"/>
      <point x="25" y="-44" type="curve"/>
      <point x="101" y="-44"/>
      <point x="25" y="-44"/>
    </contour>
  </outline>
</glyph>
<glyph name="zero" format="1">
  <advance width="653"/>
  <unicode hex="0030"/>
  <outline>
    <contour>
      <point x="136" y="360" type="curve"/>
      <point x="136" y="532"/>
      <point x="180" y="664"/>
      <point x="325" y="664" type="curve"/>
      <point x="472" y="664"/>
      <point x="518" y="534"/>
      <point x="518" y="363" type="curve"/>
      <point x="518" y="191"/>
      <point x="473" y="58"/>
      <point x="331" y="58" type="curve"/>
      <point x="186" y="58"/>
      <point x="136" y="188"/>
      <point x="136" y="360" type="curve"/>
      <point x="61" y="360"/>
      <point x="135" y="360"/>
      <point x="60" y="360" type="curve"/>
      <point x="60" y="148"/>
      <point x="136" y="-5"/>
      <point x="328" y="-5" type="curve"/>
      <point x="520" y="-5"/>
      <point x="594" y="149"/>
      <point x="594" y="363" type="curve"/>
      <point x="594" y="574"/>
      <point x="521" y="727"/>
      <point x="332" y="727" type="curve"/>
      <point x="138" y="727"/>
      <point x="60" y="574"/>
      <point x="60" y="360" type="curve"/>
      <point x="135" y="360"/>
      <point x="61" y="360"/>
    </contour>
  </outline>
</glyph>
<glyph name="one" format="1">
  <advance width="352"/>
  <unicode hex="0031"/>
  <outline>
    <contour>
      <point x="62" y="510" type="curve"/>
      <point x="253" y="684"/>
      <point x="62" y="510"/>
      <point x="253" y="684" type="curve"/>
      <point x="195" y="722"/>
      <point x="253" y="684"/>
      <point x="195" y="722" type="curve"/>
      <point x="18" y="560"/>
      <point x="195" y="722"/>
      <point x="18" y="560" type="curve"/>
      <point x="62" y="510"/>
      <point x="18" y="560"/>
    </contour>
    <contour>
      <point x="270" y="0" type="curve"/>
      <point x="270" y="241"/>
      <point x="270" y="481"/>
      <point x="270" y="722" type="curve"/>
      <point x="195" y="722"/>
      <point x="270" y="722"/>
      <point x="195" y="722" type="curve"/>
      <point x="195" y="481"/>
      <point x="195" y="241"/>
      <point x="195" y="0" type="curve"/>
      <point x="270" y="0"/>
      <point x="195" y="0"/>
    </contour>
  </outline>
</glyph>
<glyph name="two" format="1">
  <advance width="517"/>
  <unicode hex="0032"/>
  <outline>
    <contour>
      <point x="41" y="0" type="curve"/>
      <point x="204" y="0"/>
      <point x="338" y="0"/>
      <point x="467" y="0" type="curve"/>
      <point x="467" y="60"/>
      <point x="467" y="0"/>
      <point x="467" y="60" type="curve"/>
      <point x="326" y="60"/>
      <point x="182" y="60"/>
      <point x="42" y="60" type="curve"/>
      <point x="41" y="0"/>
      <point x="42" y="60"/>
    </contour>
    <contour>
      <point x="105" y="542" type="curve"/>
      <point x="145" y="612"/>
      <point x="180" y="664"/>
      <point x="255" y="664" type="curve"/>
      <point x="338" y="664"/>
      <point x="378" y="607"/>
      <point x="378" y="516" type="curve"/>
      <point x="378" y="404"/>
      <point x="305" y="320"/>
      <point x="239" y="257" type="curve"/>
      <point x="173" y="191"/>
      <point x="108" y="126"/>
      <point x="42" y="60" type="curve"/>
      <point x="48" y="0"/>
      <point x="42" y="60"/>
      <point x="48" y="0" type="curve"/>
      <point x="148" y="67"/>
      <point x="218" y="141"/>
      <point x="287" y="212" type="curve"/>
      <point x="370" y="288"/>
      <point x="450" y="382"/>
      <point x="450" y="519" type="curve"/>
      <point x="450" y="649"/>
      <point x="384" y="727"/>
      <point x="259" y="727" type="curve"/>
      <point x="157" y="727"/>
      <point x="93" y="666"/>
      <point x="51" y="575" type="curve"/>
      <point x="105" y="542"/>
      <point x="51" y="575"/>
    </contour>
  </outline>
</glyph>
<glyph name="three" format="1">
  <advance width="503"/>
  <unicode hex="0033"/>
  <outline>
    <contour>
      <point x="47" y="57" type="curve"/>
      <point x="100" y="19"/>
      <point x="149" y="-5"/>
      <point x="219" y="-5" type="curve"/>
      <point x="359" y="-5"/>
      <point x="446" y="63"/>
      <point x="446" y="203" type="curve"/>
      <point x="446" y="333"/>
      <point x="321" y="399"/>
      <point x="144" y="399" type="curve"/>
      <point x="144" y="353"/>
      <point x="144" y="394"/>
      <point x="144" y="348" type="curve"/>
      <point x="269" y="348"/>
      <point x="372" y="298"/>
      <point x="372" y="200" type="curve"/>
      <point x="372" y="104"/>
      <point x="306" y="58"/>
      <point x="222" y="58" type="curve"/>
      <point x="171" y="58"/>
      <point x="133" y="75"/>
      <point x="86" y="104" type="curve"/>
      <point x="47" y="57"/>
      <point x="86" y="104"/>
    </contour>
    <contour>
      <point x="97" y="599" type="curve"/>
      <point x="121" y="629"/>
      <point x="164" y="664"/>
      <point x="217" y="664" type="curve"/>
      <point x="297" y="664"/>
      <point x="343" y="621"/>
      <point x="343" y="540" type="curve"/>
      <point x="343" y="454"/>
      <point x="255" y="409"/>
      <point x="144" y="409" type="curve"/>
      <point x="144" y="363"/>
      <point x="144" y="403"/>
      <point x="144" y="358" type="curve"/>
      <point x="299" y="358"/>
      <point x="416" y="419"/>
      <point x="416" y="543" type="curve"/>
      <point x="416" y="662"/>
      <point x="342" y="727"/>
      <point x="223" y="727" type="curve"/>
      <point x="147" y="727"/>
      <point x="83" y="684"/>
      <point x="50" y="638" type="curve"/>
      <point x="97" y="599"/>
      <point x="50" y="638"/>
    </contour>
  </outline>
</glyph>
<glyph name="four" format="1">
  <advance width="547"/>
  <unicode hex="0034"/>
  <outline>
    <contour>
      <point x="55" y="262" type="line"/>
      <point x="362" y="702" type="line"/>
      <point x="299" y="711" type="line"/>
      <point x="20" y="313" type="line"/>
    </contour>
    <contour>
      <point x="510" y="313" type="line"/>
      <point x="20" y="313" type="line"/>
      <point x="20" y="248" type="line"/>
      <point x="510" y="248" type="line"/>
    </contour>
    <contour>
      <point x="375" y="0" type="line"/>
      <point x="375" y="711" type="line"/>
      <point x="300" y="711" type="line"/>
      <point x="300" y="0" type="line"/>
    </contour>
  </outline>
</glyph>
<glyph name="five" format="1">
  <advance width="493"/>
  <unicode hex="0035"/>
  <outline>
    <contour>
      <point x="82" y="722" type="curve"/>
      <point x="82" y="622"/>
      <point x="82" y="514"/>
      <point x="82" y="392" type="curve"/>
      <point x="155" y="370"/>
      <point x="82" y="392"/>
      <point x="154" y="370" type="curve"/>
      <point x="154" y="466"/>
      <point x="154" y="567"/>
      <point x="154" y="662" type="curve"/>
      <point x="82" y="722"/>
      <point x="154" y="662"/>
    </contour>
    <contour>
      <point x="154" y="370" type="curve"/>
      <point x="171" y="382"/>
      <point x="206" y="394"/>
      <point x="235" y="394" type="curve"/>
      <point x="325" y="394"/>
      <point x="367" y="325"/>
      <point x="367" y="231" type="curve"/>
      <point x="367" y="134"/>
      <point x="313" y="58"/>
      <point x="221" y="58" type="curve"/>
      <point x="170" y="58"/>
      <point x="133" y="71"/>
      <point x="86" y="97" type="curve"/>
      <point x="49" y="44"/>
      <point x="86" y="97"/>
      <point x="49" y="44" type="curve"/>
      <point x="100" y="13"/>
      <point x="157" y="-5"/>
      <point x="223" y="-5" type="curve"/>
      <point x="355" y="-5"/>
      <point x="442" y="93"/>
      <point x="442" y="232" type="curve"/>
      <point x="442" y="363"/>
      <point x="370" y="458"/>
      <point x="243" y="458" type="curve"/>
      <point x="192" y="458"/>
      <point x="135" y="440"/>
      <point x="93" y="394" type="curve"/>
      <point x="156" y="373"/>
      <point x="92" y="391"/>
    </contour>
    <contour>
      <point x="417" y="722" type="curve"/>
      <point x="305" y="722"/>
      <point x="191" y="722"/>
      <point x="82" y="722" type="curve"/>
      <point x="154" y="662"/>
      <point x="82" y="722"/>
      <point x="154" y="662" type="curve"/>
      <point x="239" y="662"/>
      <point x="329" y="662"/>
      <point x="417" y="662" type="curve"/>
      <point x="417" y="722"/>
      <point x="417" y="662"/>
    </contour>
  </outline>
</glyph>
<glyph name="seven" format="1">
  <advance width="487"/>
  <unicode hex="0037"/>
  <outline>
    <contour>
      <point x="39" y="662" type="curve"/>
      <point x="472" y="662" type="curve"/>
      <point x="472" y="722" type="curve"/>
      <point x="39" y="722" type="curve"/>
    </contour>
    <contour>
      <point x="424" y="722" type="curve"/>
      <point x="58" y="0" type="curve"/>
      <point x="142" y="0" type="curve"/>
      <point x="472" y="662" type="curve"/>
    </contour>
  </outline>
</glyph>
<glyph name="eight" format="1">
  <advance width="536"/>
  <unicode hex="0038"/>
  <outline>
    <contour>
      <point x="77" y="552" type="curve"/>
      <point x="77" y="445"/>
      <point x="150" y="407"/>
      <point x="246" y="356" type="curve"/>
      <point x="333" y="308"/>
      <point x="400" y="272"/>
      <point x="400" y="180" type="curve"/>
      <point x="400" y="100"/>
      <point x="351" y="57"/>
      <point x="267" y="57" type="curve"/>
      <point x="183" y="57"/>
      <point x="135" y="100"/>
      <point x="135" y="180" type="curve"/>
      <point x="135" y="274"/>
      <point x="204" y="307"/>
      <point x="292" y="356" type="curve"/>
      <point x="385" y="408"/>
      <point x="458" y="445"/>
      <point x="458" y="550" type="curve"/>
      <point x="458" y="667"/>
      <point x="388" y="727"/>
      <point x="267" y="727" type="curve"/>
      <point x="149" y="727"/>
      <point x="77" y="666"/>
      <point x="77" y="552" type="curve"/>
      <point x="152" y="552"/>
      <point x="77" y="552"/>
      <point x="152" y="552" type="curve"/>
      <point x="152" y="622"/>
      <point x="192" y="665"/>
      <point x="265" y="665" type="curve"/>
      <point x="342" y="665"/>
      <point x="383" y="625"/>
      <point x="383" y="550" type="curve"/>
      <point x="383" y="470"/>
      <point x="322" y="440"/>
      <point x="245" y="399" type="curve"/>
      <point x="139" y="341"/>
      <point x="60" y="298"/>
      <point x="60" y="180" type="curve"/>
      <point x="60" y="58"/>
      <point x="137" y="-5"/>
      <point x="264" y="-5" type="curve"/>
      <point x="393" y="-5"/>
      <point x="475" y="55"/>
      <point x="475" y="180" type="curve"/>
      <point x="475" y="297"/>
      <point x="396" y="342"/>
      <point x="293" y="400" type="curve"/>
      <point x="215" y="443"/>
      <point x="152" y="470"/>
      <point x="152" y="552" type="curve"/>
      <point x="77" y="552"/>
      <point x="152" y="552"/>
    </contour>
  </outline>
</glyph>
<glyph name="nine" format="1">
  <advance width="545"/>
  <unicode hex="0039"/>
  <outline>
    <contour>
      <point x="430" y="486" type="curve"/>
      <point x="398" y="410"/>
      <point x="351" y="358"/>
      <point x="264" y="358" type="curve"/>
      <point x="173" y="358"/>
      <point x="126" y="418"/>
      <point x="126" y="512" type="curve"/>
      <point x="126" y="601"/>
      <point x="172" y="660"/>
      <point x="256" y="660" type="curve"/>
      <point x="363" y="660"/>
      <point x="415" y="584"/>
      <point x="415" y="472" type="curve"/>
      <point x="415" y="248"/>
      <point x="286" y="118"/>
      <point x="66" y="47" type="curve"/>
      <point x="92" y="-14"/>
      <point x="66" y="47"/>
      <point x="92" y="-14" type="curve"/>
      <point x="334" y="60"/>
      <point x="488" y="213"/>
      <point x="488" y="475" type="curve"/>
      <point x="488" y="629"/>
      <point x="409" y="730"/>
      <point x="259" y="730" type="curve"/>
      <point x="126" y="730"/>
      <point x="52" y="644"/>
      <point x="52" y="509" type="curve"/>
      <point x="52" y="377"/>
      <point x="126" y="295"/>
      <point x="257" y="295" type="curve"/>
      <point x="371" y="295"/>
      <point x="432" y="372"/>
      <point x="468" y="469" type="curve"/>
      <point x="430" y="486"/>
      <point x="468" y="469"/>
    </contour>
  </outline>
</glyph>
<glyph name="colon" format="1">
  <advance width="229"/>
  <unicode hex="003A"/>
  <outline>
    <contour>
      <point x="155" y="400" type="curve"/>
      <point x="155" y="427"/>
      <point x="137" y="440"/>
      <point x="111" y="440" type="curve"/>
      <point x="85" y="440"/>
      <point x="68" y="425"/>
      <point x="68" y="400" type="curve"/>
      <point x="152" y="400"/>
      <point x="72" y="400"/>
      <point x="155" y="400" type="curve"/>
      <point x="155" y="372"/>
      <point x="137" y="359"/>
      <point x="111" y="359" type="curve"/>
      <point x="84" y="359"/>
      <point x="68" y="373"/>
      <point x="68" y="400" type="curve"/>
      <point x="152" y="400"/>
      <point x="72" y="400"/>
    </contour>
    <contour>
      <point x="155" y="35" type="curve"/>
      <point x="155" y="62"/>
      <point x="137" y="76"/>
      <point x="111" y="76" type="curve"/>
      <point x="85" y="76"/>
      <point x="68" y="61"/>
      <point x="68" y="35" type="curve"/>
      <point x="152" y="35"/>
      <point x="72" y="35"/>
      <point x="155" y="35" type="curve"/>
      <point x="155" y="8"/>
      <point x="137" y="-5"/>
      <point x="111" y="-5" type="curve"/>
      <point x="84" y="-5"/>
      <point x="68" y="9"/>
      <point x="68" y="35" type="curve"/>
      <point x="152" y="35"/>
      <point x="72" y="35"/>
    </contour>
  </outline>
</glyph>
<glyph name="semicolon" format="1">
  <advance width="196"/>
  <unicode hex="003B"/>
  <outline>
    <contour>
      <point x="36" y="-140" type="line"/>
      <point x="98" y="-126"/>
      <point x="141" y="-79"/>
      <point x="141" y="-5" type="curve"/>
      <point x="141" y="43"/>
      <point x="123" y="74"/>
      <point x="89" y="74" type="curve"/>
      <point x="61" y="74"/>
      <point x="43" y="60"/>
      <point x="43" y="33" type="curve"/>
      <point x="43" y="10"/>
      <point x="57" y="-6"/>
      <point x="83" y="-9" type="curve"/>
      <point x="83" y="-35"/>
      <point x="73" y="-78"/>
      <point x="27" y="-97" type="curve"/>
    </contour>
    <contour>
      <point x="133" y="406" type="curve"/>
      <point x="133" y="433"/>
      <point x="115" y="447"/>
      <point x="89" y="447" type="curve"/>
      <point x="62" y="447"/>
      <point x="46" y="432"/>
      <point x="46" y="406" type="curve"/>
      <point x="129" y="406"/>
      <point x="49" y="406"/>
      <point x="133" y="406" type="curve"/>
      <point x="133" y="379"/>
      <point x="115" y="366"/>
      <point x="88" y="366" type="curve"/>
      <point x="62" y="366"/>
      <point x="46" y="380"/>
      <point x="46" y="406" type="curve"/>
      <point x="129" y="406"/>
      <point x="49" y="406"/>
    </contour>
  </outline>
</glyph>
<glyph name="less" format="1">
  <advance width="632"/>
  <unicode hex="003C"/>
  <outline>
    <contour>
      <point x="571" y="603" type="curve"/>
      <point x="392" y="513"/>
      <point x="213" y="423"/>
      <point x="34" y="333" type="curve"/>
      <point x="34" y="267"/>
      <point x="34" y="333"/>
      <point x="34" y="267" type="curve"/>
      <point x="213" y="357"/>
      <point x="392" y="447"/>
      <point x="571" y="537" type="curve"/>
      <point x="571" y="603"/>
      <point x="571" y="537"/>
    </contour>
    <contour>
      <point x="580" y="69" type="curve"/>
      <point x="398" y="157"/>
      <point x="216" y="245"/>
      <point x="34" y="333" type="curve"/>
      <point x="34" y="267"/>
      <point x="34" y="333"/>
      <point x="34" y="267" type="curve"/>
      <point x="216" y="179"/>
      <point x="398" y="91"/>
      <point x="580" y="3" type="curve"/>
      <point x="580" y="69"/>
      <point x="580" y="3"/>
    </contour>
  </outline>
</glyph>
<glyph name="equal" format="1">
  <advance width="661"/>
  <unicode hex="003D"/>
  <outline>
    <contour>
      <point x="61" y="186" type="curve"/>
      <point x="245" y="186"/>
      <point x="430" y="186"/>
      <point x="615" y="186" type="curve"/>
      <point x="615" y="249"/>
      <point x="615" y="186"/>
      <point x="615" y="249" type="curve"/>
      <point x="430" y="249"/>
      <point x="245" y="249"/>
      <point x="61" y="249" type="curve"/>
      <point x="61" y="186"/>
      <point x="61" y="249"/>
    </contour>
    <contour>
      <point x="61" y="408" type="curve"/>
      <point x="245" y="408"/>
      <point x="430" y="408"/>
      <point x="615" y="408" type="curve"/>
      <point x="615" y="471"/>
      <point x="615" y="408"/>
      <point x="615" y="471" type="curve"/>
      <point x="430" y="471"/>
      <point x="245" y="471"/>
      <point x="61" y="471" type="curve"/>
      <point x="61" y="408"/>
      <point x="61" y="471"/>
    </contour>
  </outline>
</glyph>
<glyph name="greater" format="1">
  <advance width="632"/>
  <unicode hex="003E"/>
  <outline>
    <contour>
      <point x="60" y="3" type="curve"/>
      <point x="239" y="93"/>
      <point x="418" y="183"/>
      <point x="597" y="273" type="curve"/>
      <point x="597" y="339"/>
      <point x="597" y="273"/>
      <point x="597" y="339" type="curve"/>
      <point x="418" y="249"/>
      <point x="239" y="159"/>
      <point x="60" y="69" type="curve"/>
      <point x="60" y="3"/>
      <point x="60" y="69"/>
    </contour>
    <contour>
      <point x="51" y="537" type="curve"/>
      <point x="233" y="449"/>
      <point x="415" y="361"/>
      <point x="597" y="273" type="curve"/>
      <point x="597" y="339"/>
      <point x="597" y="273"/>
      <point x="597" y="339" type="curve"/>
      <point x="415" y="427"/>
      <point x="233" y="515"/>
      <point x="51" y="603" type="curve"/>
      <point x="51" y="537"/>
      <point x="51" y="603"/>
    </contour>
  </outline>
</glyph>
<glyph name="question" format="1">
  <advance width="473"/>
  <unicode hex="003F"/>
  <outline>
    <contour>
      <point x="182" y="354" type="curve"/>
      <point x="182" y="317"/>
      <point x="182" y="258"/>
      <point x="182" y="221" type="curve"/>
      <point x="254" y="221"/>
      <point x="182" y="221"/>
      <point x="254" y="221" type="curve"/>
      <point x="254" y="258"/>
      <point x="254" y="317"/>
      <point x="254" y="354" type="curve"/>
      <point x="182" y="354"/>
      <point x="254" y="354"/>
    </contour>
    <contour>
      <point x="91" y="603" type="line"/>
      <point x="121" y="638"/>
      <point x="161" y="665"/>
      <point x="215" y="665" type="curve"/>
      <point x="302" y="665"/>
      <point x="352" y="607"/>
      <point x="352" y="519" type="curve"/>
      <point x="352" y="420"/>
      <point x="291" y="354"/>
      <point x="190" y="354" type="curve"/>
      <point x="190" y="326"/>
      <point x="190" y="323"/>
      <point x="190" y="295" type="curve"/>
      <point x="333" y="295"/>
      <point x="425" y="382"/>
      <point x="425" y="519" type="curve"/>
      <point x="425" y="647"/>
      <point x="344" y="728"/>
      <point x="219" y="728" type="curve"/>
      <point x="143" y="728"/>
      <point x="90" y="698"/>
      <point x="49" y="649" type="curve"/>
    </contour>
    <contour>
      <point x="261" y="28" type="curve"/>
      <point x="261" y="55"/>
      <point x="243" y="68"/>
      <point x="217" y="68" type="curve"/>
      <point x="192" y="68"/>
      <point x="175" y="53"/>
      <point x="175" y="28" type="curve"/>
      <point x="261" y="28"/>
      <point x="175" y="28"/>
      <point x="261" y="28" type="curve"/>
      <point x="261" y="1"/>
      <point x="243" y="-12"/>
      <point x="217" y="-12" type="curve"/>
      <point x="191" y="-12"/>
      <point x="175" y="2"/>
      <point x="175" y="28" type="curve"/>
      <point x="261" y="28"/>
      <point x="175" y="28"/>
    </contour>
  </outline>
</glyph>
<glyph name="at" format="1">
  <advance width="767"/>
  <unicode hex="0040"/>
  <outline>
    <contour>
      <point x="524" y="-56" type="curve"/>
      <point x="480" y="-81"/>
      <point x="447" y="-89"/>
      <point x="396" y="-89" type="curve"/>
      <point x="220" y="-89"/>
      <point x="124" y="23"/>
      <point x="124" y="204" type="curve"/>
      <point x="124" y="380"/>
      <point x="219" y="490"/>
      <point x="390" y="490" type="curve"/>
      <point x="552" y="490"/>
      <point x="640" y="380"/>
      <point x="640" y="213" type="curve"/>
      <point x="640" y="143"/>
      <point x="634" y="84"/>
      <point x="590" y="84" type="curve"/>
      <point x="543" y="84"/>
      <point x="536" y="140"/>
      <point x="536" y="209" type="curve"/>
      <point x="536" y="317"/>
      <point x="485" y="391"/>
      <point x="382" y="391" type="curve"/>
      <point x="271" y="391"/>
      <point x="218" y="320"/>
      <point x="218" y="208" type="curve"/>
      <point x="218" y="92"/>
      <point x="265" y="15"/>
      <point x="374" y="15" type="curve"/>
      <point x="472" y="15"/>
      <point x="510" y="90"/>
      <point x="525" y="194" type="curve"/>
      <point x="477" y="206"/>
      <point x="525" y="194"/>
      <point x="477" y="206" type="curve"/>
      <point x="461" y="136"/>
      <point x="447" y="75"/>
      <point x="383" y="75" type="curve"/>
      <point x="313" y="75"/>
      <point x="287" y="132"/>
      <point x="287" y="211" type="curve"/>
      <point x="287" y="282"/>
      <point x="312" y="331"/>
      <point x="376" y="331" type="curve"/>
      <point x="445" y="331"/>
      <point x="467" y="279"/>
      <point x="467" y="206" type="curve"/>
      <point x="467" y="105"/>
      <point x="492" y="27"/>
      <point x="584" y="27" type="curve"/>
      <point x="681" y="27"/>
      <point x="708" y="108"/>
      <point x="708" y="216" type="curve"/>
      <point x="708" y="423"/>
      <point x="597" y="553"/>
      <point x="393" y="553" type="curve"/>
      <point x="175" y="553"/>
      <point x="54" y="421"/>
      <point x="54" y="201" type="curve"/>
      <point x="54" y="-17"/>
      <point x="176" y="-149"/>
      <point x="392" y="-149" type="curve"/>
      <point x="457" y="-149"/>
      <point x="500" y="-139"/>
      <point x="553" y="-108" type="curve"/>
      <point x="524" y="-56"/>
      <point x="553" y="-108"/>
    </contour>
  </outline>
</glyph>
<glyph name="B" format="1">
  <advance width="583"/>
  <unicode hex="0042"/>
  <outline>
    <contour>
      <point x="132" y="662" type="curve"/>
      <point x="191" y="662"/>
      <point x="239" y="662"/>
      <point x="299" y="662" type="curve"/>
      <point x="372" y="662"/>
      <point x="414" y="619"/>
      <point x="414" y="546" type="curve"/>
      <point x="414" y="475"/>
      <point x="364" y="437"/>
      <point x="292" y="437" type="curve"/>
      <point x="234" y="437"/>
      <point x="189" y="437"/>
      <point x="132" y="437" type="curve"/>
      <point x="132" y="405"/>
      <point x="132" y="410"/>
      <point x="132" y="377" type="curve"/>
      <point x="178" y="377"/>
      <point x="216" y="377"/>
      <point x="262" y="377" type="curve"/>
      <point x="377" y="377"/>
      <point x="489" y="425"/>
      <point x="489" y="544" type="curve"/>
      <point x="489" y="658"/>
      <point x="417" y="722"/>
      <point x="302" y="722" type="curve"/>
      <point x="241" y="722"/>
      <point x="192" y="722"/>
      <point x="132" y="722" type="curve"/>
      <point x="132" y="689"/>
      <point x="132" y="695"/>
    </contour>
    <contour>
      <point x="181" y="0" type="curve"/>
      <point x="181" y="241"/>
      <point x="181" y="481"/>
      <point x="181" y="722" type="curve"/>
      <point x="101" y="722"/>
      <point x="181" y="722"/>
      <point x="101" y="722" type="curve"/>
      <point x="101" y="481"/>
      <point x="102" y="241"/>
      <point x="101" y="0" type="curve"/>
      <point x="181" y="0"/>
      <point x="101" y="0"/>
    </contour>
    <contour>
      <point x="132" y="377" type="curve"/>
      <point x="189" y="377"/>
      <point x="234" y="377"/>
      <point x="292" y="377" type="curve"/>
      <point x="395" y="377"/>
      <point x="455" y="317"/>
      <point x="455" y="214" type="curve"/>
      <point x="455" y="116"/>
      <point x="399" y="60"/>
      <point x="300" y="60" type="curve"/>
      <point x="240" y="60"/>
      <point x="192" y="60"/>
      <point x="132" y="60" type="curve"/>
      <point x="132" y="27"/>
      <point x="132" y="33"/>
      <point x="132" y="0" type="curve"/>
      <point x="193" y="0"/>
      <point x="241" y="0"/>
      <point x="303" y="0" type="curve"/>
      <point x="444" y="0"/>
      <point x="531" y="75"/>
      <point x="531" y="213" type="curve"/>
      <point x="531" y="366"/>
      <point x="411" y="437"/>
      <point x="263" y="437" type="curve"/>
      <point x="216" y="437"/>
      <point x="178" y="437"/>
      <point x="132" y="437" type="curve"/>
      <point x="132" y="405"/>
      <point x="132" y="410"/>
    </contour>
  </outline>
</glyph>
<glyph name="C" format="1">
  <advance width="619"/>
  <unicode hex="0043"/>
  <outline>
    <contour>
      <point x="582" y="655" type="curve"/>
      <point x="520" y="696"/>
      <point x="449" y="727"/>
      <point x="367" y="727" type="curve"/>
      <point x="155" y="727"/>
      <point x="57" y="573"/>
      <point x="57" y="344" type="curve"/>
      <point x="57" y="135"/>
      <point x="150" y="-5"/>
      <point x="348" y="-5" type="curve"/>
      <point x="456" y="-5"/>
      <point x="523" y="30"/>
      <point x="596" y="96" type="curve"/>
      <point x="554" y="143"/>
      <point x="595" y="96"/>
      <point x="554" y="143" type="curve"/>
      <point x="491" y="89"/>
      <point x="437" y="59"/>
      <point x="352" y="59" type="curve"/>
      <point x="196" y="59"/>
      <point x="133" y="178"/>
      <point x="133" y="347" type="curve"/>
      <point x="133" y="531"/>
      <point x="198" y="664"/>
      <point x="364" y="664" type="curve"/>
      <point x="431" y="664"/>
      <point x="490" y="641"/>
      <point x="544" y="606" type="curve"/>
      <point x="582" y="655"/>
      <point x="544" y="606"/>
    </contour>
    <contour>
      <point x="361" y="806" type="move" name="top"/>
    </contour>
    <contour>
      <point x="365" y="2" type="move" name="bottom"/>
    </contour>
  </outline>
</glyph>
<glyph name="D" format="1">
  <advance width="680"/>
  <unicode hex="0044"/>
  <outline>
    <contour>
      <point x="101" y="722" type="curve"/>
      <point x="101" y="481"/>
      <point x="101" y="241"/>
      <point x="101" y="0" type="curve"/>
      <point x="177" y="0"/>
      <point x="101" y="0"/>
      <point x="177" y="0" type="curve"/>
      <point x="177" y="241"/>
      <point x="177" y="481"/>
      <point x="177" y="722" type="curve"/>
      <point x="101" y="722"/>
      <point x="177" y="722"/>
    </contour>
    <contour>
      <point x="141" y="0" type="curve"/>
      <point x="198" y="0"/>
      <point x="248" y="0"/>
      <point x="306" y="0" type="curve"/>
      <point x="520" y="0"/>
      <point x="622" y="133"/>
      <point x="622" y="354" type="curve"/>
      <point x="622" y="583"/>
      <point x="518" y="722"/>
      <point x="298" y="722" type="curve"/>
      <point x="243" y="722"/>
      <point x="195" y="722"/>
      <point x="141" y="722" type="curve"/>
      <point x="141" y="668"/>
      <point x="141" y="716"/>
      <point x="141" y="662" type="curve"/>
      <point x="194" y="662"/>
      <point x="241" y="662"/>
      <point x="294" y="662" type="curve"/>
      <point x="473" y="662"/>
      <point x="547" y="541"/>
      <point x="547" y="353" type="curve"/>
      <point x="547" y="175"/>
      <point x="479" y="60"/>
      <point x="312" y="60" type="curve"/>
      <point x="253" y="60"/>
      <point x="200" y="60"/>
      <point x="141" y="60" type="curve"/>
      <point x="141" y="6"/>
      <point x="141" y="54"/>
    </contour>
    <contour>
      <point x="279" y="806" type="move" name="top"/>
    </contour>
  </outline>
</glyph>
<glyph name="F" format="1">
  <advance width="513"/>
  <unicode hex="0046"/>
  <outline>
    <contour>
      <point x="143" y="343" type="curve"/>
      <point x="238" y="343"/>
      <point x="332" y="343"/>
      <point x="427" y="343" type="curve"/>
      <point x="427" y="403"/>
      <point x="427" y="343"/>
      <point x="427" y="403" type="curve"/>
      <point x="332" y="403"/>
      <point x="238" y="403"/>
      <point x="143" y="403" type="curve"/>
      <point x="143" y="343"/>
      <point x="143" y="403"/>
    </contour>
    <contour>
      <point x="178" y="0" type="curve"/>
      <point x="178" y="722" type="line"/>
      <point x="102" y="722"/>
      <point x="178" y="722"/>
      <point x="102" y="722" type="curve"/>
      <point x="102" y="481"/>
      <point x="102" y="241"/>
      <point x="102" y="0" type="curve"/>
      <point x="178" y="0"/>
      <point x="102" y="0"/>
    </contour>
    <contour>
      <point x="130" y="662" type="curve"/>
      <point x="250" y="662"/>
      <point x="371" y="662"/>
      <point x="492" y="662" type="curve"/>
      <point x="492" y="722"/>
      <point x="492" y="662"/>
      <point x="492" y="722" type="curve"/>
      <point x="371" y="722"/>
      <point x="250" y="722"/>
      <point x="130" y="722" type="curve"/>
      <point x="130" y="662"/>
      <point x="130" y="722"/>
    </contour>
  </outline>
</glyph>
<glyph name="G" format="1">
  <advance width="708"/>
  <unicode hex="0047"/>
  <outline>
    <contour>
      <point x="626" y="341" type="curve"/>
      <point x="561" y="341"/>
      <point x="496" y="341"/>
      <point x="432" y="341" type="curve"/>
      <point x="432" y="281"/>
      <point x="432" y="341"/>
      <point x="432" y="281" type="curve"/>
      <point x="496" y="281"/>
      <point x="561" y="281"/>
      <point x="626" y="281" type="curve"/>
      <point x="626" y="341"/>
      <point x="626" y="281"/>
    </contour>
    <contour>
      <point x="647" y="78" type="curve"/>
      <point x="647" y="166"/>
      <point x="647" y="253"/>
      <point x="647" y="341" type="curve"/>
      <point x="578" y="341"/>
      <point x="647" y="341"/>
      <point x="578" y="341" type="curve"/>
      <point x="578" y="253"/>
      <point x="578" y="166"/>
      <point x="578" y="78" type="curve"/>
      <point x="647" y="78"/>
      <point x="578" y="78"/>
    </contour>
    <contour>
      <point x="632" y="643" type="curve"/>
      <point x="550" y="700"/>
      <point x="474" y="727"/>
      <point x="374" y="727" type="curve"/>
      <point x="162" y="727"/>
      <point x="56" y="585"/>
      <point x="56" y="363" type="curve"/>
      <point x="56" y="136"/>
      <point x="168" y="-5"/>
      <point x="384" y="-5" type="curve"/>
      <point x="490" y="-5"/>
      <point x="557" y="23"/>
      <point x="647" y="78" type="curve"/>
      <point x="608" y="124"/>
      <point x="647" y="78"/>
      <point x="608" y="124" type="curve"/>
      <point x="539" y="81"/>
      <point x="473" y="58"/>
      <point x="384" y="58" type="curve"/>
      <point x="209" y="58"/>
      <point x="133" y="182"/>
      <point x="133" y="369" type="curve"/>
      <point x="133" y="545"/>
      <point x="208" y="664"/>
      <point x="374" y="664" type="curve"/>
      <point x="459" y="664"/>
      <point x="524" y="640"/>
      <point x="596" y="592" type="curve"/>
      <point x="632" y="643"/>
      <point x="596" y="592"/>
    </contour>
    <contour>
      <point x="372" y="806" type="move" name="top"/>
    </contour>
    <contour>
      <point x="403" y="-32" type="move" name="bottom"/>
    </contour>
  </outline>
</glyph>
<glyph name="H" format="1">
  <advance width="720"/>
  <unicode hex="0048"/>
  <outline>
    <contour>
      <point x="177" y="0" type="curve"/>
      <point x="177" y="722" type="line"/>
      <point x="101" y="722"/>
      <point x="177" y="722"/>
      <point x="101" y="722" type="curve"/>
      <point x="101" y="481"/>
      <point x="101" y="241"/>
      <point x="101" y="0" type="curve"/>
      <point x="177" y="0"/>
      <point x="101" y="0"/>
    </contour>
    <contour>
      <point x="580" y="393" type="curve"/>
      <point x="432" y="393"/>
      <point x="286" y="393"/>
      <point x="139" y="393" type="curve"/>
      <point x="139" y="333"/>
      <point x="139" y="393"/>
      <point x="139" y="333" type="curve"/>
      <point x="286" y="333"/>
      <point x="432" y="333"/>
      <point x="580" y="333" type="curve"/>
      <point x="580" y="393"/>
      <point x="580" y="333"/>
    </contour>
    <contour>
      <point x="619" y="1" type="curve"/>
      <point x="619" y="227"/>
      <point x="619" y="495"/>
      <point x="619" y="721" type="curve"/>
      <point x="543" y="721"/>
      <point x="619" y="721"/>
      <point x="543" y="721" type="curve"/>
      <point x="543" y="1" type="line"/>
      <point x="619" y="1"/>
      <point x="543" y="1"/>
    </contour>
  </outline>
</glyph>
<glyph name="I" format="1">
  <advance width="278"/>
  <unicode hex="0049"/>
  <outline>
    <contour>
      <point x="177" y="0" type="curve"/>
      <point x="177" y="241"/>
      <point x="177" y="481"/>
      <point x="177" y="722" type="curve"/>
      <point x="101" y="722"/>
      <point x="177" y="722"/>
      <point x="101" y="722" type="curve"/>
      <point x="101" y="481"/>
      <point x="101" y="241"/>
      <point x="101" y="0" type="curve"/>
      <point x="177" y="0"/>
      <point x="101" y="0"/>
    </contour>
    <contour>
      <point x="140" y="806" type="move" name="top"/>
    </contour>
    <contour>
      <point x="174" y="2" type="move" name="bottom"/>
    </contour>
  </outline>
</glyph>
<glyph name="J" format="1">
  <advance width="410"/>
  <unicode hex="004A"/>
  <outline>
    <contour>
      <point x="8" y="42" type="curve"/>
      <point x="38" y="19"/>
      <point x="77" y="-4"/>
      <point x="128" y="-4" type="curve"/>
      <point x="259" y="-4"/>
      <point x="316" y="81"/>
      <point x="316" y="228" type="curve"/>
      <point x="316" y="402"/>
      <point x="316" y="548"/>
      <point x="316" y="722" type="curve"/>
      <point x="246" y="722"/>
      <point x="310" y="722"/>
      <point x="240" y="722" type="curve"/>
      <point x="240" y="548"/>
      <point x="240" y="402"/>
      <point x="240" y="228" type="curve"/>
      <point x="240" y="130"/>
      <point x="216" y="57"/>
      <point x="128" y="57" type="curve"/>
      <point x="92" y="57"/>
      <point x="70" y="72"/>
      <point x="44" y="89" type="curve"/>
      <point x="12" y="46"/>
      <point x="40" y="84"/>
    </contour>
  </outline>
</glyph>
<glyph name="K" format="1">
  <advance width="572"/>
  <unicode hex="004B"/>
  <outline>
    <contour>
      <point x="451" y="722" type="curve"/>
      <point x="158" y="380" type="line"/>
      <point x="248" y="380"/>
      <point x="160" y="380"/>
      <point x="250" y="380" type="curve"/>
      <point x="545" y="722" type="line"/>
      <point x="466" y="722"/>
      <point x="530" y="722"/>
    </contour>
    <contour>
      <point x="177" y="0" type="curve"/>
      <point x="177" y="722" type="line"/>
      <point x="101" y="722"/>
      <point x="177" y="722"/>
      <point x="101" y="722" type="curve"/>
      <point x="101" y="481"/>
      <point x="101" y="241"/>
      <point x="101" y="0" type="curve"/>
      <point x="177" y="0"/>
      <point x="101" y="0"/>
    </contour>
    <contour>
      <point x="566" y="0" type="curve"/>
      <point x="250" y="380" type="line"/>
      <point x="160" y="380"/>
      <point x="248" y="380"/>
      <point x="158" y="380" type="curve"/>
      <point x="471" y="0" type="line"/>
      <point x="555" y="0"/>
      <point x="482" y="0"/>
    </contour>
    <contour>
      <point x="343" y="-33" type="move" name="bottom"/>
    </contour>
  </outline>
</glyph>
<glyph name="L" format="1">
  <advance width="521"/>
  <unicode hex="004C"/>
  <outline>
    <contour>
      <point x="177" y="0" type="curve"/>
      <point x="177" y="241"/>
      <point x="177" y="481"/>
      <point x="177" y="722" type="curve"/>
      <point x="101" y="722"/>
      <point x="177" y="722"/>
      <point x="101" y="722" type="curve"/>
      <point x="101" y="481"/>
      <point x="101" y="241"/>
      <point x="101" y="0" type="curve"/>
      <point x="177" y="0"/>
      <point x="101" y="0"/>
    </contour>
    <contour>
      <point x="138" y="0" type="curve"/>
      <point x="262" y="0"/>
      <point x="386" y="0"/>
      <point x="511" y="0" type="curve"/>
      <point x="511" y="60"/>
      <point x="511" y="0"/>
      <point x="511" y="60" type="curve"/>
      <point x="386" y="60"/>
      <point x="262" y="60"/>
      <point x="138" y="60" type="curve"/>
      <point x="138" y="0"/>
      <point x="138" y="60"/>
    </contour>
    <contour>
      <point x="140" y="806" type="move" name="top"/>
    </contour>
    <contour>
      <point x="295" y="-31" type="move" name="bottom"/>
    </contour>
  </outline>
</glyph>
<glyph name="M" format="1">
  <advance width="824"/>
  <unicode hex="004D"/>
  <outline>
    <contour>
      <point x="755" y="0" type="curve"/>
      <point x="736" y="241"/>
      <point x="716" y="481"/>
      <point x="698" y="722" type="curve"/>
      <point x="628" y="722"/>
      <point x="698" y="722"/>
      <point x="628" y="722" type="curve"/>
      <point x="646" y="481"/>
      <point x="661" y="241"/>
      <point x="679" y="0" type="curve"/>
      <point x="755" y="0"/>
      <point x="679" y="0"/>
    </contour>
    <contour>
      <point x="141" y="0" type="curve"/>
      <point x="158" y="241"/>
      <point x="174" y="481"/>
      <point x="191" y="722" type="curve"/>
      <point x="123" y="722"/>
      <point x="191" y="722"/>
      <point x="123" y="722" type="curve"/>
      <point x="106" y="481"/>
      <point x="89" y="241"/>
      <point x="71" y="0" type="curve"/>
      <point x="141" y="0"/>
      <point x="71" y="0"/>
    </contour>
    <contour>
      <point x="442" y="0" type="curve"/>
      <point x="359" y="241"/>
      <point x="276" y="481"/>
      <point x="193" y="722" type="curve"/>
      <point x="125" y="722"/>
      <point x="193" y="722"/>
      <point x="125" y="722" type="curve"/>
      <point x="208" y="481"/>
      <point x="290" y="241"/>
      <point x="372" y="0" type="curve"/>
      <point x="441" y="0"/>
      <point x="373" y="0"/>
    </contour>
    <contour>
      <point x="450" y="0" type="curve"/>
      <point x="531" y="241"/>
      <point x="611" y="481"/>
      <point x="692" y="722" type="curve"/>
      <point x="625" y="722"/>
      <point x="692" y="722"/>
      <point x="624" y="722" type="curve"/>
      <point x="542" y="481"/>
      <point x="461" y="241"/>
      <point x="379" y="0" type="curve"/>
      <point x="449" y="0"/>
      <point x="380" y="0"/>
    </contour>
  </outline>
</glyph>
<glyph name="N" format="1">
  <advance width="758"/>
  <unicode hex="004E"/>
  <outline>
    <contour>
      <point x="657" y="0" type="curve"/>
      <point x="499" y="241"/>
      <point x="343" y="481"/>
      <point x="186" y="722" type="curve"/>
      <point x="101" y="722"/>
      <point x="186" y="722"/>
      <point x="101" y="722" type="curve"/>
      <point x="258" y="481"/>
      <point x="415" y="241"/>
      <point x="572" y="0" type="curve"/>
      <point x="657" y="0"/>
      <point x="572" y="0"/>
    </contour>
    <contour>
      <point x="581" y="722" type="curve"/>
      <point x="581" y="481"/>
      <point x="581" y="241"/>
      <point x="581" y="0" type="curve"/>
      <point x="657" y="0"/>
      <point x="581" y="0"/>
      <point x="657" y="0" type="curve"/>
      <point x="657" y="241"/>
      <point x="657" y="481"/>
      <point x="657" y="722" type="curve"/>
      <point x="581" y="722"/>
      <point x="657" y="722"/>
    </contour>
    <contour>
      <point x="178" y="0" type="curve"/>
      <point x="178" y="241"/>
      <point x="178" y="481"/>
      <point x="178" y="722" type="curve"/>
      <point x="102" y="722"/>
      <point x="178" y="722"/>
      <point x="102" y="722" type="curve"/>
      <point x="102" y="481"/>
      <point x="102" y="241"/>
      <point x="102" y="0" type="curve"/>
      <point x="178" y="0"/>
      <point x="102" y="0"/>
    </contour>
    <contour>
      <point x="382" y="806" type="move" name="top"/>
    </contour>
    <contour>
      <point x="401" y="-33" type="move" name="bottom"/>
    </contour>
  </outline>
</glyph>
<glyph name="P" format="1">
  <advance width="541"/>
  <unicode hex="0050"/>
  <outline>
    <contour>
      <point x="129" y="313" type="curve"/>
      <point x="178" y="286"/>
      <point x="230" y="267"/>
      <point x="288" y="267" type="curve"/>
      <point x="418" y="269"/>
      <point x="497" y="349"/>
      <point x="497" y="487" type="curve"/>
      <point x="497" y="630"/>
      <point x="404" y="722"/>
      <point x="259" y="722" type="curve"/>
      <point x="220" y="722"/>
      <point x="182" y="722"/>
      <point x="143" y="722" type="curve"/>
      <point x="143" y="662"/>
      <point x="143" y="722"/>
      <point x="143" y="662" type="curve"/>
      <point x="178" y="662"/>
      <point x="214" y="662"/>
      <point x="249" y="662" type="curve"/>
      <point x="356" y="662"/>
      <point x="421" y="594"/>
      <point x="421" y="488" type="curve"/>
      <point x="421" y="391"/>
      <point x="371" y="326"/>
      <point x="281" y="326" type="curve"/>
      <point x="231" y="326"/>
      <point x="197" y="340"/>
      <point x="154" y="364" type="curve"/>
      <point x="130" y="314"/>
      <point x="154" y="364"/>
    </contour>
    <contour>
      <point x="177" y="0" type="curve"/>
      <point x="177" y="241"/>
      <point x="177" y="481"/>
      <point x="177" y="722" type="curve"/>
      <point x="101" y="722"/>
      <point x="177" y="722"/>
      <point x="101" y="722" type="curve"/>
      <point x="101" y="481"/>
      <point x="101" y="241"/>
      <point x="101" y="0" type="curve"/>
      <point x="177" y="0"/>
      <point x="101" y="0"/>
    </contour>
  </outline>
</glyph>
<glyph name="Q" format="1">
  <advance width="756"/>
  <unicode hex="0051"/>
  <outline>
    <contour>
      <point x="325" y="14" type="curve"/>
      <point x="415" y="-157"/>
      <point x="523" y="-228"/>
      <point x="706" y="-228" type="curve"/>
      <point x="706" y="-165"/>
      <point x="706" y="-228"/>
      <point x="706" y="-165" type="curve"/>
      <point x="554" y="-165"/>
      <point x="467" y="-101"/>
      <point x="390" y="44" type="curve"/>
      <point x="325" y="14"/>
      <point x="390" y="44"/>
    </contour>
    <contour>
      <point x="133" y="360" type="curve"/>
      <point x="133" y="530"/>
      <point x="193" y="662"/>
      <point x="348" y="662" type="curve"/>
      <point x="504" y="662"/>
      <point x="566" y="532"/>
      <point x="566" y="362" type="curve"/>
      <point x="566" y="191"/>
      <point x="509" y="58"/>
      <point x="353" y="58" type="curve"/>
      <point x="195" y="58"/>
      <point x="133" y="189"/>
      <point x="133" y="360" type="curve"/>
      <point x="57" y="360"/>
      <point x="133" y="360"/>
      <point x="57" y="360" type="curve"/>
      <point x="57" y="149"/>
      <point x="152" y="-5"/>
      <point x="349" y="-5" type="curve"/>
      <point x="549" y="-5"/>
      <point x="642" y="152"/>
      <point x="642" y="365" type="curve"/>
      <point x="642" y="575"/>
      <point x="550" y="729"/>
      <point x="353" y="729" type="curve"/>
      <point x="153" y="729"/>
      <point x="57" y="573"/>
      <point x="57" y="360" type="curve"/>
      <point x="133" y="360"/>
      <point x="57" y="360"/>
    </contour>
  </outline>
</glyph>
<glyph name="R" format="1">
  <advance width="583"/>
  <unicode hex="0052"/>
  <outline>
    <contour>
      <point x="278" y="354" type="curve"/>
      <point x="335" y="254"/>
      <point x="438" y="100"/>
      <point x="496" y="0" type="curve"/>
      <point x="576" y="0"/>
      <point x="500" y="0"/>
      <point x="581" y="0" type="curve"/>
      <point x="525" y="99"/>
      <point x="419" y="255"/>
      <point x="363" y="354" type="curve"/>
      <point x="278" y="354"/>
      <point x="362" y="354"/>
    </contour>
    <contour>
      <point x="177" y="0" type="curve"/>
      <point x="177" y="241"/>
      <point x="177" y="481"/>
      <point x="177" y="722" type="curve"/>
      <point x="101" y="722"/>
      <point x="177" y="722"/>
      <point x="101" y="722" type="curve"/>
      <point x="101" y="481"/>
      <point x="101" y="241"/>
      <point x="101" y="0" type="curve"/>
      <point x="177" y="0"/>
      <point x="101" y="0"/>
    </contour>
    <contour>
      <point x="141" y="322" type="curve"/>
      <point x="192" y="322"/>
      <point x="243" y="322"/>
      <point x="294" y="322" type="curve"/>
      <point x="429" y="322"/>
      <point x="512" y="393"/>
      <point x="512" y="529" type="curve"/>
      <point x="512" y="657"/>
      <point x="430" y="722"/>
      <point x="299" y="722" type="curve"/>
      <point x="245" y="722"/>
      <point x="195" y="722"/>
      <point x="141" y="722" type="curve"/>
      <point x="141" y="662"/>
      <point x="141" y="722"/>
      <point x="141" y="662" type="curve"/>
      <point x="191" y="662"/>
      <point x="236" y="662"/>
      <point x="285" y="662" type="curve"/>
      <point x="379" y="662"/>
      <point x="436" y="615"/>
      <point x="436" y="523" type="curve"/>
      <point x="436" y="433"/>
      <point x="386" y="382"/>
      <point x="296" y="382" type="curve"/>
      <point x="245" y="382"/>
      <point x="193" y="382"/>
      <point x="141" y="382" type="curve"/>
      <point x="141" y="322"/>
      <point x="141" y="382"/>
    </contour>
    <contour>
      <point x="260" y="806" type="move" name="top"/>
    </contour>
    <contour>
      <point x="348" y="-34" type="move" name="bottom"/>
    </contour>
  </outline>
</glyph>
<glyph name="T" format="1">
  <advance width="569"/>
  <unicode hex="0054"/>
  <outline>
    <contour>
      <point x="322" y="0" type="curve"/>
      <point x="322" y="237"/>
      <point x="322" y="473"/>
      <point x="322" y="710" type="curve"/>
      <point x="246" y="710"/>
      <point x="322" y="710"/>
      <point x="246" y="710" type="curve"/>
      <point x="246" y="473"/>
      <point x="246" y="237"/>
      <point x="246" y="0" type="curve"/>
      <point x="322" y="0"/>
      <point x="246" y="0"/>
    </contour>
    <contour>
      <point x="11" y="658" type="curve"/>
      <point x="193" y="658"/>
      <point x="376" y="658"/>
      <point x="558" y="658" type="curve"/>
      <point x="558" y="724"/>
      <point x="558" y="656"/>
      <point x="558" y="722" type="curve"/>
      <point x="376" y="722"/>
      <point x="193" y="722"/>
      <point x="11" y="722" type="curve"/>
      <point x="11" y="656"/>
      <point x="11" y="724"/>
    </contour>
    <contour>
      <point x="283" y="806" type="move" name="top"/>
    </contour>
    <contour>
      <point x="310" y="-33" type="move" name="bottom"/>
    </contour>
  </outline>
</glyph>
<glyph name="V" format="1">
  <advance width="600"/>
  <unicode hex="0056"/>
  <outline>
    <contour>
      <point x="510" y="722" type="curve"/>
      <point x="429" y="481"/>
      <point x="349" y="241"/>
      <point x="269" y="0" type="curve"/>
      <point x="348" y="0"/>
      <point x="264" y="0"/>
      <point x="343" y="0" type="curve"/>
      <point x="425" y="241"/>
      <point x="506" y="481"/>
      <point x="588" y="722" type="curve"/>
      <point x="510" y="722"/>
      <point x="588" y="722"/>
    </contour>
    <contour>
      <point x="10" y="722" type="curve"/>
      <point x="93" y="481"/>
      <point x="176" y="241"/>
      <point x="259" y="0" type="curve"/>
      <point x="338" y="0"/>
      <point x="255" y="0"/>
      <point x="334" y="0" type="curve"/>
      <point x="253" y="241"/>
      <point x="171" y="481"/>
      <point x="90" y="722" type="curve"/>
      <point x="10" y="722"/>
      <point x="90" y="722"/>
    </contour>
  </outline>
</glyph>
<glyph name="W" format="1">
  <advance width="794"/>
  <unicode hex="0057"/>
  <outline>
    <contour>
      <point x="258" y="0" type="curve"/>
      <point x="317" y="241"/>
      <point x="375" y="481"/>
      <point x="434" y="722" type="curve"/>
      <point x="366" y="722"/>
      <point x="435" y="722"/>
      <point x="367" y="722" type="curve"/>
      <point x="311" y="481"/>
      <point x="255" y="242"/>
      <point x="198" y="0" type="curve"/>
      <point x="261" y="0"/>
      <point x="195" y="0"/>
    </contour>
    <contour>
      <point x="374" y="722" type="curve"/>
      <point x="428" y="481"/>
      <point x="479" y="241"/>
      <point x="533" y="0" type="curve"/>
      <point x="597" y="0"/>
      <point x="528" y="0"/>
      <point x="592" y="0" type="curve"/>
      <point x="542" y="242"/>
      <point x="492" y="481"/>
      <point x="441" y="722" type="curve"/>
      <point x="373" y="722"/>
      <point x="443" y="722"/>
    </contour>
    <contour>
      <point x="28" y="722" type="curve"/>
      <point x="82" y="481"/>
      <point x="136" y="241"/>
      <point x="189" y="0" type="curve"/>
      <point x="253" y="0"/>
      <point x="189" y="0"/>
      <point x="253" y="0" type="curve"/>
      <point x="201" y="241"/>
      <point x="150" y="481"/>
      <point x="99" y="722" type="curve"/>
      <point x="28" y="722"/>
      <point x="99" y="722"/>
    </contour>
    <contour>
      <point x="700" y="722" type="curve"/>
      <point x="646" y="481"/>
      <point x="592" y="241"/>
      <point x="539" y="0" type="curve"/>
      <point x="603" y="0"/>
      <point x="538" y="0"/>
      <point x="602" y="0" type="curve"/>
      <point x="658" y="241"/>
      <point x="714" y="481"/>
      <point x="770" y="722" type="curve"/>
      <point x="700" y="722"/>
      <point x="770" y="722"/>
    </contour>
  </outline>
</glyph>
<glyph name="X" format="1">
  <advance width="554"/>
  <unicode hex="0058"/>
  <outline>
    <contour>
      <point x="447" y="722" type="curve"/>
      <point x="302" y="483"/>
      <point x="151" y="239"/>
      <point x="5" y="0" type="curve"/>
      <point x="84" y="0"/>
      <point x="11" y="0"/>
      <point x="90" y="0" type="curve"/>
      <point x="234" y="239"/>
      <point x="383" y="483"/>
      <point x="528" y="722" type="curve"/>
      <point x="452" y="722"/>
      <point x="522" y="722"/>
    </contour>
    <contour>
      <point x="31" y="722" type="curve"/>
      <point x="174" y="483"/>
      <point x="321" y="239"/>
      <point x="465" y="0" type="curve"/>
      <point x="543" y="0"/>
      <point x="468" y="0"/>
      <point x="547" y="0" type="curve"/>
      <point x="403" y="240"/>
      <point x="255" y="482"/>
      <point x="111" y="722" type="curve"/>
      <point x="36" y="722"/>
      <point x="106" y="722"/>
    </contour>
  </outline>
</glyph>
<glyph name="Y" format="1">
  <advance width="533"/>
  <unicode hex="0059"/>
  <outline>
    <contour>
      <point x="18" y="722" type="curve"/>
      <point x="86" y="596"/>
      <point x="159" y="465"/>
      <point x="226" y="337" type="curve"/>
      <point x="304" y="337"/>
      <point x="220" y="338"/>
      <point x="298" y="338" type="curve"/>
      <point x="232" y="467"/>
      <point x="166" y="593"/>
      <point x="99" y="722" type="curve"/>
      <point x="24" y="722"/>
      <point x="94" y="722"/>
    </contour>
    <contour>
      <point x="446" y="722" type="curve"/>
      <point x="375" y="593"/>
      <point x="306" y="467"/>
      <point x="233" y="338" type="curve"/>
      <point x="311" y="338"/>
      <point x="230" y="337"/>
      <point x="308" y="337" type="curve"/>
      <point x="379" y="464"/>
      <point x="454" y="595"/>
      <point x="525" y="722" type="curve"/>
      <point x="450" y="722"/>
      <point x="521" y="722"/>
    </contour>
    <contour>
      <point x="308" y="0" type="curve"/>
      <point x="308" y="115"/>
      <point x="308" y="228"/>
      <point x="308" y="343" type="curve"/>
      <point x="226" y="343"/>
      <point x="308" y="343"/>
      <point x="226" y="343" type="curve"/>
      <point x="226" y="228"/>
      <point x="226" y="115"/>
      <point x="226" y="0" type="curve"/>
      <point x="308" y="0"/>
      <point x="226" y="0"/>
    </contour>
    <contour>
      <point x="270" y="806" type="move" name="top"/>
    </contour>
  </outline>
</glyph>
<glyph name="bracketleft" format="1">
  <advance width="278"/>
  <unicode hex="005B"/>
  <outline>
    <contour>
      <point x="246" y="770" type="curve"/>
      <point x="201" y="770"/>
      <point x="156" y="770"/>
      <point x="111" y="770" type="curve"/>
      <point x="103" y="770"/>
      <point x="87" y="770"/>
      <point x="79" y="770" type="curve"/>
      <point x="79" y="762"/>
      <point x="79" y="751"/>
      <point x="79" y="743" type="curve"/>
      <point x="79" y="464"/>
      <point x="79" y="185"/>
      <point x="79" y="-94" type="curve"/>
      <point x="79" y="-102"/>
      <point x="79" y="-109"/>
      <point x="79" y="-119" type="curve"/>
      <point x="86" y="-119"/>
      <point x="102" y="-119"/>
      <point x="110" y="-119" type="curve"/>
      <point x="155" y="-119"/>
      <point x="200" y="-119"/>
      <point x="246" y="-119" type="curve"/>
      <point x="246" y="-53"/>
      <point x="246" y="-119"/>
      <point x="246" y="-53" type="curve"/>
      <point x="200" y="-53"/>
      <point x="155" y="-53"/>
      <point x="110" y="-53" type="curve"/>
      <point x="155" y="-53"/>
      <point x="110" y="-53"/>
      <point x="155" y="-53" type="curve"/>
      <point x="155" y="-94"/>
      <point x="155" y="-53"/>
      <point x="155" y="-94" type="curve"/>
      <point x="155" y="185"/>
      <point x="155" y="464"/>
      <point x="155" y="743" type="curve"/>
      <point x="155" y="705"/>
      <point x="155" y="743"/>
      <point x="155" y="705" type="curve"/>
      <point x="111" y="705"/>
      <point x="155" y="705"/>
      <point x="111" y="705" type="curve"/>
      <point x="156" y="705"/>
      <point x="201" y="705"/>
      <point x="246" y="705" type="curve"/>
      <point x="246" y="770"/>
      <point x="246" y="705"/>
    </contour>
  </outline>
</glyph>
<glyph name="backslash" format="1">
  <advance width="479"/>
  <unicode hex="005C"/>
  <outline>
    <contour>
      <point x="452" y="-68" type="curve"/>
      <point x="337" y="236"/>
      <point x="222" y="540"/>
      <point x="107" y="844" type="curve"/>
      <point x="27" y="844"/>
      <point x="107" y="844"/>
      <point x="27" y="844" type="curve"/>
      <point x="143" y="540"/>
      <point x="258" y="236"/>
      <point x="373" y="-68" type="curve"/>
      <point x="452" y="-68"/>
      <point x="373" y="-68"/>
    </contour>
  </outline>
</glyph>
<glyph name="bracketright" format="1">
  <advance width="278"/>
  <unicode hex="005D"/>
  <outline>
    <contour>
      <point x="33" y="705" type="curve"/>
      <point x="78" y="705"/>
      <point x="123" y="705"/>
      <point x="168" y="705" type="curve"/>
      <point x="160" y="711"/>
      <point x="150" y="714"/>
      <point x="143" y="721" type="curve"/>
      <point x="136" y="728"/>
      <point x="130" y="736"/>
      <point x="124" y="743" type="curve"/>
      <point x="124" y="464"/>
      <point x="123" y="185"/>
      <point x="124" y="-94" type="curve"/>
      <point x="131" y="-86"/>
      <point x="138" y="-79"/>
      <point x="145" y="-71" type="curve"/>
      <point x="152" y="-64"/>
      <point x="162" y="-61"/>
      <point x="169" y="-53" type="curve"/>
      <point x="123" y="-53"/>
      <point x="78" y="-53"/>
      <point x="33" y="-53" type="curve"/>
      <point x="32" y="-119"/>
      <point x="33" y="-53"/>
      <point x="32" y="-119" type="curve"/>
      <point x="78" y="-119"/>
      <point x="123" y="-119"/>
      <point x="169" y="-119" type="curve"/>
      <point x="200" y="-119"/>
      <point x="169" y="-119"/>
      <point x="200" y="-119" type="curve"/>
      <point x="200" y="-94"/>
      <point x="200" y="-119"/>
      <point x="200" y="-94" type="curve"/>
      <point x="200" y="185"/>
      <point x="200" y="464"/>
      <point x="200" y="743" type="curve"/>
      <point x="200" y="770"/>
      <point x="200" y="743"/>
      <point x="200" y="770" type="curve"/>
      <point x="168" y="770"/>
      <point x="200" y="770"/>
      <point x="168" y="770" type="curve"/>
      <point x="123" y="770"/>
      <point x="78" y="770"/>
      <point x="33" y="770" type="curve"/>
      <point x="33" y="705"/>
      <point x="33" y="770"/>
    </contour>
  </outline>
</glyph>
<glyph name="asciicircum" format="1">
  <advance width="481"/>
  <unicode hex="005E"/>
  <outline>
    <contour>
      <point x="124" y="460" type="curve"/>
      <point x="175" y="569"/>
      <point x="226" y="677"/>
      <point x="277" y="786" type="curve"/>
      <point x="202" y="786"/>
      <point x="277" y="786"/>
      <point x="201" y="786" type="curve"/>
      <point x="150" y="677"/>
      <point x="99" y="569"/>
      <point x="48" y="460" type="curve"/>
      <point x="123" y="460"/>
      <point x="48" y="460"/>
    </contour>
    <contour>
      <point x="433" y="460" type="curve"/>
      <point x="382" y="566"/>
      <point x="328" y="680"/>
      <point x="278" y="786" type="curve"/>
      <point x="202" y="786"/>
      <point x="277" y="786"/>
      <point x="202" y="786" type="curve"/>
      <point x="252" y="680"/>
      <point x="306" y="566"/>
      <point x="357" y="460" type="curve"/>
      <point x="433" y="460"/>
      <point x="357" y="460"/>
    </contour>
  </outline>
</glyph>
<glyph name="b" format="1">
  <advance width="584"/>
  <unicode hex="0062"/>
  <outline>
    <contour>
      <point x="143" y="377" type="curve"/>
      <point x="172" y="422"/>
      <point x="230" y="476"/>
      <point x="307" y="476" type="curve"/>
      <point x="412" y="476"/>
      <point x="456" y="382"/>
      <point x="456" y="265" type="curve"/>
      <point x="457" y="152"/>
      <point x="408" y="56"/>
      <point x="308" y="57" type="curve"/>
      <point x="240" y="57"/>
      <point x="188" y="94"/>
      <point x="148" y="149" type="curve"/>
      <point x="112" y="124"/>
      <point x="143" y="143"/>
      <point x="107" y="117" type="curve"/>
      <point x="159" y="45"/>
      <point x="221" y="-5"/>
      <point x="316" y="-5" type="curve"/>
      <point x="459" y="-5"/>
      <point x="532" y="110"/>
      <point x="532" y="267" type="curve"/>
      <point x="532" y="422"/>
      <point x="460" y="538"/>
      <point x="317" y="538" type="curve"/>
      <point x="218" y="538"/>
      <point x="149" y="476"/>
      <point x="109" y="414" type="curve"/>
      <point x="138" y="386"/>
      <point x="114" y="405"/>
    </contour>
    <contour>
      <point x="161" y="0" type="curve"/>
      <point x="161" y="272"/>
      <point x="161" y="528"/>
      <point x="161" y="800" type="curve"/>
      <point x="96" y="800"/>
      <point x="150" y="800"/>
      <point x="85" y="800" type="curve"/>
      <point x="85" y="528"/>
      <point x="85" y="272"/>
      <point x="85" y="0" type="curve"/>
      <point x="150" y="0"/>
      <point x="96" y="0"/>
    </contour>
  </outline>
</glyph>
<glyph name="c" format="1">
  <advance width="487"/>
  <unicode hex="0063"/>
  <outline>
    <contour>
      <point x="446" y="471" type="curve"/>
      <point x="403" y="508"/>
      <point x="347" y="538"/>
      <point x="287" y="538" type="curve"/>
      <point x="129" y="538"/>
      <point x="52" y="435"/>
      <point x="52" y="267" type="curve"/>
      <point x="52" y="99"/>
      <point x="126" y="-5"/>
      <point x="284" y="-5" type="curve"/>
      <point x="352" y="-5"/>
      <point x="415" y="28"/>
      <point x="455" y="87" type="curve"/>
      <point x="406" y="126"/>
      <point x="455" y="87"/>
      <point x="406" y="126" type="curve"/>
      <point x="377" y="90"/>
      <point x="336" y="57"/>
      <point x="288" y="57" type="curve"/>
      <point x="174" y="57"/>
      <point x="128" y="141"/>
      <point x="128" y="267" type="curve"/>
      <point x="128" y="392"/>
      <point x="174" y="476"/>
      <point x="285" y="476" type="curve"/>
      <point x="328" y="476"/>
      <point x="369" y="456"/>
      <point x="404" y="429" type="curve"/>
      <point x="446" y="471"/>
      <point x="404" y="429"/>
    </contour>
    <contour>
      <point x="279" y="645" type="move" name="top"/>
    </contour>
    <contour>
      <point x="296" y="1" type="move" name="bottom"/>
    </contour>
  </outline>
</glyph>
<glyph name="d" format="1">
  <advance width="587"/>
  <unicode hex="0064"/>
  <outline>
    <contour>
      <point x="470" y="439" type="curve"/>
      <point x="426" y="500"/>
      <point x="358" y="536"/>
      <point x="277" y="536" type="curve"/>
      <point x="128" y="536"/>
      <point x="52" y="421"/>
      <point x="52" y="263" type="curve"/>
      <point x="52" y="108"/>
      <point x="131" y="-3"/>
      <point x="278" y="-3" type="curve"/>
      <point x="368" y="-3"/>
      <point x="429" y="45"/>
      <point x="471" y="126" type="curve"/>
      <point x="439" y="165"/>
      <point x="469" y="126"/>
      <point x="437" y="165" type="curve"/>
      <point x="402" y="99"/>
      <point x="356" y="56"/>
      <point x="288" y="56" type="curve"/>
      <point x="180" y="56"/>
      <point x="128" y="147"/>
      <point x="128" y="266" type="curve"/>
      <point x="128" y="386"/>
      <point x="182" y="477"/>
      <point x="290" y="477" type="curve"/>
      <point x="351" y="477"/>
      <point x="406" y="444"/>
      <point x="439" y="395" type="curve"/>
      <point x="471" y="437"/>
      <point x="438" y="396"/>
    </contour>
    <contour>
      <point x="501" y="0" type="curve"/>
      <point x="501" y="267"/>
      <point x="501" y="533"/>
      <point x="501" y="800" type="curve"/>
      <point x="422" y="800"/>
      <point x="501" y="800"/>
      <point x="422" y="800" type="curve"/>
      <point x="422" y="533"/>
      <point x="422" y="267"/>
      <point x="422" y="0" type="curve"/>
      <point x="501" y="0"/>
      <point x="422" y="0"/>
    </contour>
  </outline>
</glyph>
<glyph name="e" format="1">
  <advance width="517"/>
  <unicode hex="0065"/>
  <outline>
    <contour>
      <point x="91" y="253" type="curve"/>
      <point x="206" y="253"/>
      <point x="322" y="253"/>
      <point x="437" y="253" type="curve"/>
      <point x="465" y="253"/>
      <point x="437" y="253"/>
      <point x="465" y="253" type="curve"/>
      <point x="465" y="273"/>
      <point x="465" y="253"/>
      <point x="465" y="273" type="curve"/>
      <point x="465" y="281"/>
      <point x="465" y="289"/>
      <point x="465" y="296" type="curve"/>
      <point x="465" y="444"/>
      <point x="402" y="538"/>
      <point x="266" y="538" type="curve"/>
      <point x="119" y="538"/>
      <point x="52" y="437"/>
      <point x="52" y="280" type="curve"/>
      <point x="52" y="107"/>
      <point x="125" y="-5"/>
      <point x="284" y="-5" type="curve"/>
      <point x="356" y="-5"/>
      <point x="402" y="22"/>
      <point x="454" y="73" type="curve"/>
      <point x="409" y="117"/>
      <point x="454" y="73"/>
      <point x="409" y="117" type="curve"/>
      <point x="372" y="79"/>
      <point x="335" y="57"/>
      <point x="284" y="57" type="curve"/>
      <point x="168" y="57"/>
      <point x="127" y="149"/>
      <point x="127" y="280" type="curve"/>
      <point x="127" y="394"/>
      <point x="160" y="477"/>
      <point x="262" y="477" type="curve"/>
      <point x="356" y="477"/>
      <point x="393" y="407"/>
      <point x="393" y="304" type="curve"/>
      <point x="393" y="294"/>
      <point x="393" y="285"/>
      <point x="393" y="275" type="curve"/>
      <point x="400" y="282"/>
      <point x="407" y="288"/>
      <point x="414" y="295" type="curve"/>
      <point x="421" y="301"/>
      <point x="430" y="303"/>
      <point x="437" y="310" type="curve"/>
      <point x="322" y="310"/>
      <point x="206" y="310"/>
      <point x="91" y="310" type="curve"/>
      <point x="91" y="250"/>
      <point x="91" y="313"/>
    </contour>
    <contour>
      <point x="266" y="645" type="move" name="top"/>
    </contour>
    <contour>
      <point x="317" y="4" type="move" name="bottom"/>
    </contour>
  </outline>
</glyph>
<glyph name="f" format="1">
  <advance width="402"/>
  <unicode hex="0066"/>
  <outline>
    <contour>
      <point x="22" y="473" type="curve"/>
      <point x="376" y="473" type="line"/>
      <point x="376" y="533"/>
      <point x="376" y="473"/>
      <point x="376" y="533" type="curve"/>
      <point x="22" y="533" type="line"/>
      <point x="22" y="473"/>
      <point x="22" y="533"/>
    </contour>
    <contour>
      <point x="221" y="0" type="curve"/>
      <point x="221" y="625" type="line"/>
      <point x="221" y="694"/>
      <point x="244" y="747"/>
      <point x="307" y="747" type="curve"/>
      <point x="334" y="747"/>
      <point x="359" y="737"/>
      <point x="382" y="725" type="curve"/>
      <point x="413" y="772"/>
      <point x="382" y="725"/>
      <point x="413" y="772" type="curve"/>
      <point x="381" y="790"/>
      <point x="344" y="804"/>
      <point x="307" y="804" type="curve"/>
      <point x="204" y="804"/>
      <point x="145" y="731"/>
      <point x="145" y="625" type="curve"/>
      <point x="145" y="0" type="line"/>
      <point x="221" y="0"/>
      <point x="145" y="0"/>
    </contour>
  </outline>
</glyph>
<glyph name="h" format="1">
  <advance width="569"/>
  <unicode hex="0068"/>
  <outline>
    <contour>
      <point x="144" y="327" type="curve"/>
      <point x="168" y="405"/>
      <point x="227" y="477"/>
      <point x="304" y="477" type="curve"/>
      <point x="387" y="477"/>
      <point x="414" y="413"/>
      <point x="414" y="325" type="curve"/>
      <point x="414" y="217"/>
      <point x="414" y="109"/>
      <point x="414" y="0" type="curve"/>
      <point x="490" y="0"/>
      <point x="414" y="0"/>
      <point x="490" y="0" type="curve"/>
      <point x="490" y="111"/>
      <point x="490" y="222"/>
      <point x="490" y="333" type="curve"/>
      <point x="490" y="457"/>
      <point x="442" y="536"/>
      <point x="322" y="536" type="curve"/>
      <point x="223" y="536"/>
      <point x="143" y="458"/>
      <point x="117" y="359" type="curve"/>
      <point x="146" y="328"/>
      <point x="116" y="359"/>
    </contour>
    <contour>
      <point x="161" y="0" type="curve"/>
      <point x="161" y="267"/>
      <point x="161" y="533"/>
      <point x="161" y="800" type="curve"/>
      <point x="85" y="800"/>
      <point x="161" y="800"/>
      <point x="85" y="800" type="curve"/>
      <point x="85" y="533"/>
      <point x="85" y="267"/>
      <point x="85" y="0" type="curve"/>
      <point x="161" y="0"/>
      <point x="85" y="0"/>
    </contour>
  </outline>
</glyph>
<glyph name="i" format="1">
  <advance width="252"/>
  <unicode hex="0069"/>
  <outline>
    <contour>
      <point x="166" y="0" type="curve"/>
      <point x="166" y="178"/>
      <point x="166" y="355"/>
      <point x="166" y="533" type="curve"/>
      <point x="86" y="533"/>
      <point x="166" y="533"/>
      <point x="86" y="533" type="curve"/>
      <point x="86" y="355"/>
      <point x="86" y="178"/>
      <point x="86" y="0" type="curve"/>
      <point x="166" y="0"/>
      <point x="86" y="0"/>
    </contour>
    <contour>
      <point x="169" y="684" type="curve"/>
      <point x="169" y="712"/>
      <point x="150" y="726"/>
      <point x="123" y="726" type="curve"/>
      <point x="97" y="726"/>
      <point x="80" y="710"/>
      <point x="80" y="684" type="curve"/>
      <point x="165" y="684"/>
      <point x="84" y="684"/>
      <point x="169" y="684" type="curve"/>
      <point x="169" y="656"/>
      <point x="150" y="643"/>
      <point x="123" y="643" type="curve"/>
      <point x="96" y="643"/>
      <point x="80" y="657"/>
      <point x="80" y="684" type="curve"/>
      <point x="165" y="684"/>
      <point x="84" y="684"/>
    </contour>
    <contour>
      <point x="123" y="645" type="move" name="top"/>
    </contour>
    <contour>
      <point x="161" y="3" type="move" name="bottom"/>
    </contour>
  </outline>
</glyph>
<glyph name="j" format="1">
  <advance width="241"/>
  <unicode hex="006A"/>
  <outline>
    <contour>
      <point x="-31" y="-302" type="curve"/>
      <point x="-23" y="-303"/>
      <point x="-13" y="-304"/>
      <point x="-2" y="-304" type="curve"/>
      <point x="99" y="-304"/>
      <point x="167" y="-235"/>
      <point x="167" y="-133" type="curve"/>
      <point x="167" y="89"/>
      <point x="167" y="311"/>
      <point x="167" y="533" type="curve"/>
      <point x="91" y="533"/>
      <point x="167" y="533"/>
      <point x="91" y="533" type="curve"/>
      <point x="91" y="311"/>
      <point x="91" y="89"/>
      <point x="91" y="-133" type="curve"/>
      <point x="91" y="-193"/>
      <point x="60" y="-245"/>
      <point x="1" y="-245" type="curve"/>
      <point x="-6" y="-245"/>
      <point x="-14" y="-244"/>
      <point x="-20" y="-243" type="curve"/>
      <point x="-31" y="-300"/>
      <point x="-20" y="-245"/>
    </contour>
    <contour>
      <point x="174" y="682" type="curve"/>
      <point x="174" y="709"/>
      <point x="155" y="724"/>
      <point x="129" y="724" type="curve"/>
      <point x="102" y="724"/>
      <point x="85" y="708"/>
      <point x="85" y="682" type="curve"/>
      <point x="170" y="682"/>
      <point x="89" y="682"/>
      <point x="174" y="682" type="curve"/>
      <point x="174" y="654"/>
      <point x="156" y="641"/>
      <point x="129" y="641" type="curve"/>
      <point x="102" y="641"/>
      <point x="85" y="655"/>
      <point x="85" y="682" type="curve"/>
      <point x="170" y="682"/>
      <point x="89" y="682"/>
    </contour>
  </outline>
</glyph>
<glyph name="k" format="1">
  <advance width="506"/>
  <unicode hex="006B"/>
  <outline>
    <contour>
      <point x="161" y="0" type="curve"/>
      <point x="161" y="800" type="line"/>
      <point x="85" y="800"/>
      <point x="161" y="800"/>
      <point x="85" y="800" type="curve"/>
      <point x="85" y="533"/>
      <point x="85" y="267"/>
      <point x="85" y="0" type="curve"/>
      <point x="161" y="0"/>
      <point x="85" y="0"/>
    </contour>
    <contour>
      <point x="371" y="533" type="curve"/>
      <point x="142" y="275" type="line"/>
      <point x="228" y="275"/>
      <point x="146" y="275"/>
      <point x="232" y="275" type="curve"/>
      <point x="465" y="533" type="line"/>
      <point x="382" y="533"/>
      <point x="454" y="533"/>
    </contour>
    <contour>
      <point x="487" y="0" type="curve"/>
      <point x="232" y="275" type="line"/>
      <point x="146" y="275"/>
      <point x="227" y="275"/>
      <point x="142" y="275" type="curve"/>
      <point x="393" y="0" type="line"/>
      <point x="474" y="0"/>
      <point x="407" y="0"/>
    </contour>
    <contour>
      <point x="323" y="-34" type="move" name="bottom"/>
    </contour>
  </outline>
</glyph>
<glyph name="m" format="1">
  <advance width="828"/>
  <unicode hex="006D"/>
  <outline>
    <contour>
      <point x="437" y="317" type="curve"/>
      <point x="465" y="400"/>
      <point x="504" y="477"/>
      <point x="578" y="477" type="curve"/>
      <point x="660" y="477"/>
      <point x="671" y="418"/>
      <point x="671" y="327" type="curve"/>
      <point x="671" y="218"/>
      <point x="671" y="109"/>
      <point x="671" y="0" type="curve"/>
      <point x="747" y="0"/>
      <point x="671" y="0"/>
      <point x="747" y="0" type="curve"/>
      <point x="747" y="111"/>
      <point x="747" y="222"/>
      <point x="747" y="333" type="curve"/>
      <point x="747" y="461"/>
      <point x="721" y="538"/>
      <point x="600" y="538" type="curve"/>
      <point x="500" y="538"/>
      <point x="442" y="458"/>
      <point x="410" y="350" type="curve"/>
      <point x="439" y="318"/>
      <point x="408" y="350"/>
    </contour>
    <contour>
      <point x="145" y="318" type="curve"/>
      <point x="171" y="400"/>
      <point x="209" y="477"/>
      <point x="285" y="477" type="curve"/>
      <point x="367" y="477"/>
      <point x="379" y="418"/>
      <point x="379" y="327" type="curve"/>
      <point x="379" y="218"/>
      <point x="379" y="109"/>
      <point x="379" y="0" type="curve"/>
      <point x="455" y="0"/>
      <point x="379" y="0"/>
      <point x="455" y="0" type="curve"/>
      <point x="455" y="111"/>
      <point x="455" y="222"/>
      <point x="455" y="333" type="curve"/>
      <point x="455" y="461"/>
      <point x="428" y="538"/>
      <point x="308" y="538" type="curve"/>
      <point x="206" y="538"/>
      <point x="151" y="460"/>
      <point x="117" y="351" type="curve"/>
      <point x="146" y="319"/>
      <point x="116" y="350"/>
    </contour>
    <contour>
      <point x="161" y="0" type="curve"/>
      <point x="161" y="178"/>
      <point x="161" y="355"/>
      <point x="161" y="533" type="curve"/>
      <point x="85" y="533"/>
      <point x="161" y="533"/>
      <point x="85" y="533" type="curve"/>
      <point x="85" y="355"/>
      <point x="85" y="178"/>
      <point x="85" y="0" type="curve"/>
      <point x="161" y="0"/>
      <point x="85" y="0"/>
    </contour>
  </outline>
</glyph>
<glyph name="n" format="1">
  <advance width="569"/>
  <unicode hex="006E"/>
  <outline>
    <contour>
      <point x="145" y="308" type="curve"/>
      <point x="165" y="401"/>
      <point x="225" y="476"/>
      <point x="302" y="476" type="curve"/>
      <point x="383" y="476"/>
      <point x="413" y="415"/>
      <point x="413" y="327" type="curve"/>
      <point x="413" y="217"/>
      <point x="413" y="110"/>
      <point x="413" y="0" type="curve"/>
      <point x="478" y="0"/>
      <point x="425" y="0"/>
      <point x="489" y="0" type="curve"/>
      <point x="489" y="112"/>
      <point x="489" y="221"/>
      <point x="489" y="333" type="curve"/>
      <point x="489" y="456"/>
      <point x="443" y="538"/>
      <point x="325" y="538" type="curve"/>
      <point x="222" y="538"/>
      <point x="141" y="463"/>
      <point x="117" y="342" type="curve"/>
      <point x="140" y="313"/>
      <point x="122" y="337"/>
    </contour>
    <contour>
      <point x="161" y="0" type="curve"/>
      <point x="161" y="178"/>
      <point x="161" y="355"/>
      <point x="161" y="533" type="curve"/>
      <point x="85" y="533"/>
      <point x="161" y="533"/>
      <point x="85" y="533" type="curve"/>
      <point x="85" y="355"/>
      <point x="85" y="178"/>
      <point x="85" y="0" type="curve"/>
      <point x="161" y="0"/>
      <point x="85" y="0"/>
    </contour>
    <contour>
      <point x="295" y="645" type="move" name="top"/>
    </contour>
    <contour>
      <point x="318" y="-28" type="move" name="bottom"/>
    </contour>
  </outline>
</glyph>
<glyph name="p" format="1">
  <advance width="587"/>
  <unicode hex="0070"/>
  <outline>
    <contour>
      <point x="142" y="360" type="curve"/>
      <point x="171" y="419"/>
      <point x="233" y="478"/>
      <point x="308" y="478" type="curve"/>
      <point x="418" y="478"/>
      <point x="459" y="385"/>
      <point x="459" y="270" type="curve"/>
      <point x="461" y="150"/>
      <point x="418" y="54"/>
      <point x="308" y="55" type="curve"/>
      <point x="238" y="55"/>
      <point x="189" y="90"/>
      <point x="145" y="143" type="curve"/>
      <point x="117" y="115"/>
      <point x="140" y="136"/>
      <point x="112" y="108" type="curve"/>
      <point x="166" y="38"/>
      <point x="229" y="-5"/>
      <point x="320" y="-5" type="curve"/>
      <point x="472" y="-5"/>
      <point x="535" y="117"/>
      <point x="535" y="273" type="curve"/>
      <point x="535" y="422"/>
      <point x="470" y="539"/>
      <point x="323" y="539" type="curve"/>
      <point x="227" y="539"/>
      <point x="156" y="477"/>
      <point x="117" y="409" type="curve"/>
      <point x="139" y="367"/>
      <point x="119" y="402"/>
    </contour>
    <contour>
      <point x="161" y="-300" type="curve"/>
      <point x="161" y="-22"/>
      <point x="161" y="255"/>
      <point x="161" y="533" type="curve"/>
      <point x="85" y="533"/>
      <point x="161" y="533"/>
      <point x="85" y="533" type="curve"/>
      <point x="85" y="255"/>
      <point x="85" y="-22"/>
      <point x="85" y="-300" type="curve"/>
      <point x="161" y="-300"/>
      <point x="85" y="-300"/>
    </contour>
  </outline>
</glyph>
<glyph name="q" format="1">
  <advance width="590"/>
  <unicode hex="0071"/>
  <outline>
    <contour>
      <point x="474" y="417" type="curve"/>
      <point x="426" y="493"/>
      <point x="351" y="538"/>
      <point x="267" y="538" type="curve"/>
      <point x="116" y="538"/>
      <point x="52" y="418"/>
      <point x="52" y="264" type="curve"/>
      <point x="52" y="110"/>
      <point x="122" y="-5"/>
      <point x="271" y="-5" type="curve"/>
      <point x="359" y="-5"/>
      <point x="430" y="53"/>
      <point x="476" y="126" type="curve"/>
      <point x="451" y="156"/>
      <point x="470" y="134"/>
      <point x="445" y="163" type="curve"/>
      <point x="409" y="101"/>
      <point x="351" y="54"/>
      <point x="281" y="54" type="curve"/>
      <point x="173" y="54"/>
      <point x="128" y="149"/>
      <point x="128" y="267" type="curve"/>
      <point x="128" y="383"/>
      <point x="172" y="477"/>
      <point x="279" y="477" type="curve"/>
      <point x="345" y="477"/>
      <point x="404" y="443"/>
      <point x="448" y="378" type="curve"/>
      <point x="468" y="409"/>
      <point x="454" y="385"/>
    </contour>
    <contour>
      <point x="504" y="-300" type="curve"/>
      <point x="504" y="-19"/>
      <point x="504" y="252"/>
      <point x="504" y="533" type="curve"/>
      <point x="437" y="533"/>
      <point x="493" y="533"/>
      <point x="425" y="533" type="curve"/>
      <point x="425" y="252"/>
      <point x="425" y="-19"/>
      <point x="425" y="-300" type="curve"/>
      <point x="493" y="-300"/>
      <point x="437" y="-300"/>
    </contour>
  </outline>
</glyph>
<glyph name="r" format="1">
  <advance width="360"/>
  <unicode hex="0072"/>
  <outline>
    <contour>
      <point x="161" y="0" type="curve"/>
      <point x="161" y="181"/>
      <point x="161" y="352"/>
      <point x="161" y="533" type="curve"/>
      <point x="96" y="533"/>
      <point x="150" y="533"/>
      <point x="85" y="533" type="curve"/>
      <point x="85" y="352"/>
      <point x="85" y="181"/>
      <point x="85" y="0" type="curve"/>
      <point x="150" y="0"/>
      <point x="96" y="0"/>
    </contour>
    <contour>
      <point x="144" y="327" type="curve"/>
      <point x="179" y="432"/>
      <point x="257" y="474"/>
      <point x="348" y="474" type="curve"/>
      <point x="348" y="530"/>
      <point x="348" y="482"/>
      <point x="348" y="538" type="curve"/>
      <point x="241" y="538"/>
      <point x="155" y="472"/>
      <point x="116" y="366" type="curve"/>
      <point x="141" y="337"/>
      <point x="121" y="355"/>
    </contour>
    <contour>
      <point x="138" y="645" type="move" name="top"/>
    </contour>
    <contour>
      <point x="150" y="-29" type="move" name="bottom"/>
    </contour>
  </outline>
</glyph>
<glyph name="t" format="1">
  <advance width="372"/>
  <unicode hex="0074"/>
  <outline>
    <contour>
      <point x="20" y="473" type="curve"/>
      <point x="359" y="473" type="line"/>
      <point x="359" y="533"/>
      <point x="359" y="473"/>
      <point x="359" y="533" type="curve"/>
      <point x="20" y="533" type="line"/>
      <point x="20" y="473"/>
      <point x="20" y="533"/>
    </contour>
    <contour>
      <point x="332" y="80" type="curve"/>
      <point x="308" y="66"/>
      <point x="290" y="58"/>
      <point x="262" y="58" type="curve"/>
      <point x="209" y="58"/>
      <point x="194" y="97"/>
      <point x="194" y="158" type="curve"/>
      <point x="194" y="681" type="line"/>
      <point x="146" y="651"/>
      <point x="165" y="661"/>
      <point x="118" y="631" type="curve"/>
      <point x="118" y="155" type="line"/>
      <point x="118" y="54"/>
      <point x="160" y="-5"/>
      <point x="253" y="-5" type="curve"/>
      <point x="296" y="-5"/>
      <point x="325" y="7"/>
      <point x="361" y="27" type="curve"/>
      <point x="332" y="80"/>
      <point x="361" y="27"/>
    </contour>
    <contour>
      <point x="272" y="-31" type="move" name="bottom"/>
    </contour>
  </outline>
</glyph>
<glyph name="u" format="1">
  <advance width="563"/>
  <unicode hex="0075"/>
  <outline>
    <contour>
      <point x="477" y="0" type="curve"/>
      <point x="477" y="180"/>
      <point x="477" y="353"/>
      <point x="477" y="533" type="curve"/>
      <point x="412" y="533"/>
      <point x="466" y="533"/>
      <point x="401" y="533" type="curve"/>
      <point x="401" y="353"/>
      <point x="401" y="180"/>
      <point x="401" y="0" type="curve"/>
      <point x="466" y="0"/>
      <point x="412" y="0"/>
    </contour>
    <contour>
      <point x="417" y="199" type="curve"/>
      <point x="390" y="128"/>
      <point x="339" y="57"/>
      <point x="270" y="57" type="curve"/>
      <point x="188" y="57"/>
      <point x="155" y="114"/>
      <point x="155" y="201" type="curve"/>
      <point x="155" y="312"/>
      <point x="155" y="421"/>
      <point x="155" y="533" type="curve"/>
      <point x="90" y="533"/>
      <point x="143" y="533"/>
      <point x="79" y="533" type="curve"/>
      <point x="79" y="420"/>
      <point x="79" y="310"/>
      <point x="79" y="197" type="curve"/>
      <point x="79" y="73"/>
      <point x="135" y="-5"/>
      <point x="260" y="-5" type="curve"/>
      <point x="353" y="-5"/>
      <point x="415" y="75"/>
      <point x="450" y="171" type="curve"/>
      <point x="422" y="194"/>
      <point x="446" y="177"/>
    </contour>
    <contour>
      <point x="260" y="645" type="move" name="top"/>
    </contour>
    <contour>
      <point x="473" y="3" type="move" name="bottom"/>
    </contour>
  </outline>
</glyph>
<glyph name="v" format="1">
  <advance width="506"/>
  <unicode hex="0076"/>
  <outline>
    <contour>
      <point x="24" y="533" type="curve"/>
      <point x="86" y="355"/>
      <point x="147" y="178"/>
      <point x="208" y="0" type="curve"/>
      <point x="281" y="0"/>
      <point x="208" y="0"/>
      <point x="281" y="0" type="curve"/>
      <point x="220" y="178"/>
      <point x="163" y="355"/>
      <point x="103" y="533" type="curve"/>
      <point x="24" y="533"/>
      <point x="103" y="533"/>
    </contour>
    <contour>
      <point x="410" y="533" type="curve"/>
      <point x="221" y="0" type="line"/>
      <point x="295" y="0"/>
      <point x="221" y="0"/>
      <point x="295" y="0" type="curve"/>
      <point x="359" y="178"/>
      <point x="423" y="355"/>
      <point x="487" y="533" type="curve"/>
      <point x="410" y="533"/>
      <point x="487" y="533"/>
    </contour>
  </outline>
</glyph>
<glyph name="w" format="1">
  <advance width="791"/>
  <unicode hex="0077"/>
  <outline>
    <contour>
      <point x="256" y="0" type="curve"/>
      <point x="316" y="178"/>
      <point x="376" y="355"/>
      <point x="436" y="533" type="curve"/>
      <point x="364" y="533"/>
      <point x="436" y="533"/>
      <point x="364" y="533" type="curve"/>
      <point x="305" y="355"/>
      <point x="246" y="178"/>
      <point x="188" y="0" type="curve"/>
      <point x="256" y="0"/>
      <point x="188" y="0"/>
    </contour>
    <contour>
      <point x="696" y="533" type="curve"/>
      <point x="642" y="355"/>
      <point x="586" y="178"/>
      <point x="532" y="0" type="curve"/>
      <point x="600" y="0"/>
      <point x="532" y="0"/>
      <point x="600" y="0" type="curve"/>
      <point x="657" y="178"/>
      <point x="712" y="355"/>
      <point x="768" y="533" type="curve"/>
      <point x="696" y="533"/>
      <point x="768" y="533"/>
    </contour>
    <contour>
      <point x="370" y="533" type="curve"/>
      <point x="423" y="355"/>
      <point x="477" y="178"/>
      <point x="531" y="0" type="curve"/>
      <point x="599" y="0"/>
      <point x="531" y="0"/>
      <point x="599" y="0" type="curve"/>
      <point x="547" y="178"/>
      <point x="493" y="355"/>
      <point x="440" y="533" type="curve"/>
      <point x="370" y="533"/>
      <point x="440" y="533"/>
    </contour>
    <contour>
      <point x="26" y="533" type="curve"/>
      <point x="80" y="355"/>
      <point x="133" y="178"/>
      <point x="187" y="0" type="curve"/>
      <point x="255" y="0"/>
      <point x="187" y="0"/>
      <point x="255" y="0" type="curve"/>
      <point x="202" y="178"/>
      <point x="150" y="355"/>
      <point x="97" y="533" type="curve"/>
      <point x="26" y="533"/>
      <point x="97" y="533"/>
    </contour>
  </outline>
</glyph>
<glyph name="x" format="1">
  <advance width="506"/>
  <unicode hex="0078"/>
  <outline>
    <contour>
      <point x="491" y="0" type="curve"/>
      <point x="420" y="103"/>
      <point x="176" y="430"/>
      <point x="105" y="533" type="curve"/>
      <point x="14" y="533"/>
      <point x="115" y="533"/>
      <point x="24" y="533" type="curve"/>
      <point x="94" y="430"/>
      <point x="336" y="103"/>
      <point x="406" y="0" type="curve"/>
      <point x="491" y="0"/>
      <point x="406" y="0"/>
    </contour>
    <contour>
      <point x="403" y="533" type="curve"/>
      <point x="332" y="430"/>
      <point x="84" y="103"/>
      <point x="13" y="0" type="curve"/>
      <point x="98" y="0"/>
      <point x="13" y="0"/>
      <point x="98" y="0" type="curve"/>
      <point x="169" y="103"/>
      <point x="414" y="430"/>
      <point x="484" y="533" type="curve"/>
      <point x="389" y="533"/>
      <point x="499" y="533"/>
    </contour>
  </outline>
</glyph>
<glyph name="y" format="1">
  <advance width="533"/>
  <unicode hex="0079"/>
  <outline>
    <contour>
      <point x="299" y="-4" type="curve"/>
      <point x="264" y="80"/>
      <point x="133" y="448"/>
      <point x="98" y="533" type="curve"/>
      <point x="19" y="533"/>
      <point x="98" y="533"/>
      <point x="19" y="533" type="curve"/>
      <point x="56" y="449"/>
      <point x="192" y="74"/>
      <point x="229" y="-10" type="curve"/>
      <point x="299" y="-10"/>
      <point x="229" y="-4"/>
    </contour>
    <contour>
      <point x="181" y="-300" type="curve"/>
      <point x="241" y="-171"/>
      <point x="464" y="404"/>
      <point x="523" y="533" type="curve"/>
      <point x="444" y="533"/>
      <point x="523" y="533"/>
      <point x="444" y="533" type="curve"/>
      <point x="385" y="404"/>
      <point x="161" y="-171"/>
      <point x="102" y="-300" type="curve"/>
      <point x="181" y="-300"/>
      <point x="102" y="-300"/>
    </contour>
    <contour>
      <point x="276" y="646" type="move" name="top"/>
    </contour>
  </outline>
</glyph>
<glyph name="braceleft" format="1">
  <advance width="258"/>
  <unicode hex="007B"/>
  <outline>
    <contour>
      <point x="226" y="-57" type="curve"/>
      <point x="173" y="-57"/>
      <point x="158" y="-13"/>
      <point x="158" y="43" type="curve"/>
      <point x="158" y="99"/>
      <point x="158" y="154"/>
      <point x="158" y="210" type="curve"/>
      <point x="158" y="304"/>
      <point x="112" y="371"/>
      <point x="22" y="371" type="curve"/>
      <point x="22" y="308"/>
      <point x="22" y="371"/>
      <point x="22" y="308" type="curve"/>
      <point x="71" y="308"/>
      <point x="89" y="269"/>
      <point x="89" y="216" type="curve"/>
      <point x="89" y="159"/>
      <point x="89" y="102"/>
      <point x="89" y="46" type="curve"/>
      <point x="89" y="-50"/>
      <point x="134" y="-117"/>
      <point x="226" y="-117" type="curve"/>
      <point x="226" y="-57"/>
      <point x="226" y="-117"/>
    </contour>
    <contour>
      <point x="226" y="796" type="curve"/>
      <point x="134" y="796"/>
      <point x="89" y="730"/>
      <point x="89" y="635" type="curve"/>
      <point x="89" y="577"/>
      <point x="89" y="519"/>
      <point x="89" y="461" type="curve"/>
      <point x="89" y="408"/>
      <point x="70" y="371"/>
      <point x="22" y="371" type="curve"/>
      <point x="22" y="308"/>
      <point x="22" y="371"/>
      <point x="22" y="308" type="curve"/>
      <point x="112" y="308"/>
      <point x="158" y="374"/>
      <point x="158" y="470" type="curve"/>
      <point x="158" y="525"/>
      <point x="158" y="579"/>
      <point x="158" y="635" type="curve"/>
      <point x="158" y="692"/>
      <point x="172" y="736"/>
      <point x="226" y="736" type="curve"/>
      <point x="226" y="796"/>
      <point x="226" y="736"/>
    </contour>
  </outline>
</glyph>
<glyph name="braceright" format="1">
  <advance width="259"/>
  <unicode hex="007D"/>
  <outline>
    <contour>
      <point x="32" y="-117" type="curve"/>
      <point x="124" y="-117"/>
      <point x="169" y="-50"/>
      <point x="169" y="46" type="curve"/>
      <point x="169" y="102"/>
      <point x="169" y="159"/>
      <point x="169" y="216" type="curve"/>
      <point x="169" y="269"/>
      <point x="187" y="308"/>
      <point x="236" y="308" type="curve"/>
      <point x="236" y="371"/>
      <point x="236" y="308"/>
      <point x="236" y="371" type="curve"/>
      <point x="146" y="371"/>
      <point x="100" y="304"/>
      <point x="100" y="210" type="curve"/>
      <point x="100" y="154"/>
      <point x="100" y="99"/>
      <point x="100" y="43" type="curve"/>
      <point x="100" y="-13"/>
      <point x="85" y="-58"/>
      <point x="32" y="-58" type="curve"/>
      <point x="32" y="-117"/>
      <point x="32" y="-58"/>
    </contour>
    <contour>
      <point x="32" y="736" type="curve"/>
      <point x="86" y="736"/>
      <point x="100" y="692"/>
      <point x="100" y="635" type="curve"/>
      <point x="100" y="579"/>
      <point x="100" y="525"/>
      <point x="100" y="470" type="curve"/>
      <point x="100" y="374"/>
      <point x="146" y="308"/>
      <point x="236" y="308" type="curve"/>
      <point x="236" y="371"/>
      <point x="236" y="308"/>
      <point x="236" y="371" type="curve"/>
      <point x="187" y="371"/>
      <point x="169" y="408"/>
      <point x="169" y="461" type="curve"/>
      <point x="169" y="519"/>
      <point x="169" y="577"/>
      <point x="169" y="635" type="curve"/>
      <point x="169" y="730"/>
      <point x="124" y="796"/>
      <point x="32" y="796" type="curve"/>
      <point x="32" y="736"/>
      <point x="32" y="796"/>
    </contour>
  </outline>
</glyph>
<glyph name="asciitilde" format="1">
  <advance width="629"/>
  <unicode hex="007E"/>
  <outline>
    <contour>
      <point x="496" y="359" type="curve"/>
      <point x="482" y="316"/>
      <point x="466" y="270"/>
      <point x="422" y="270" type="curve"/>
      <point x="386" y="270"/>
      <point x="364" y="283"/>
      <point x="337" y="307" type="curve"/>
      <point x="298" y="344"/>
      <point x="267" y="365"/>
      <point x="213" y="365" type="curve"/>
      <point x="128" y="365"/>
      <point x="93" y="315"/>
      <point x="72" y="233" type="curve"/>
      <point x="102" y="223"/>
      <point x="101" y="222"/>
      <point x="131" y="212" type="curve"/>
      <point x="144" y="261"/>
      <point x="162" y="303"/>
      <point x="211" y="303" type="curve"/>
      <point x="244" y="303"/>
      <point x="262" y="290"/>
      <point x="287" y="268" type="curve"/>
      <point x="330" y="230"/>
      <point x="362" y="209"/>
      <point x="420" y="208" type="curve"/>
      <point x="502" y="208"/>
      <point x="532" y="262"/>
      <point x="557" y="339" type="curve"/>
      <point x="526" y="349"/>
      <point x="527" y="350"/>
    </contour>
  </outline>
</glyph>
<glyph name="exclamdown" format="1">
  <advance width="247"/>
  <unicode hex="00A1"/>
  <outline>
    <contour>
      <point x="89" y="301" type="line"/>
      <point x="81" y="-192" type="line"/>
      <point x="167" y="-192" type="line"/>
      <point x="161" y="301" type="line"/>
    </contour>
    <contour>
      <point x="81" y="497" type="curve"/>
      <point x="81" y="470"/>
      <point x="99" y="456"/>
      <point x="125" y="456" type="curve"/>
      <point x="151" y="456"/>
      <point x="168" y="471"/>
      <point x="168" y="497" type="curve"/>
      <point x="84" y="497"/>
      <point x="164" y="497"/>
      <point x="81" y="497" type="curve"/>
      <point x="81" y="524"/>
      <point x="99" y="537"/>
      <point x="125" y="537" type="curve"/>
      <point x="152" y="537"/>
      <point x="168" y="523"/>
      <point x="168" y="497" type="curve"/>
      <point x="84" y="497"/>
      <point x="164" y="497"/>
    </contour>
  </outline>
</glyph>
<glyph name="cent" format="1">
  <advance width="582"/>
  <unicode hex="00A2"/>
  <outline>
    <contour>
      <point x="346" y="-53" type="curve"/>
      <point x="346" y="-13"/>
      <point x="346" y="27"/>
      <point x="346" y="67" type="curve"/>
      <point x="269" y="67"/>
      <point x="346" y="67"/>
      <point x="269" y="67" type="curve"/>
      <point x="269" y="27"/>
      <point x="269" y="-13"/>
      <point x="269" y="-53" type="curve"/>
      <point x="346" y="-53"/>
      <point x="269" y="-53"/>
    </contour>
    <contour>
      <point x="288" y="778" type="curve"/>
      <point x="288" y="742"/>
      <point x="288" y="706"/>
      <point x="288" y="670" type="curve"/>
      <point x="364" y="670"/>
      <point x="288" y="670"/>
      <point x="364" y="670" type="curve"/>
      <point x="364" y="706"/>
      <point x="364" y="742"/>
      <point x="364" y="778" type="curve"/>
      <point x="288" y="778"/>
      <point x="364" y="778"/>
    </contour>
    <contour>
      <point x="534" y="608" type="curve"/>
      <point x="469" y="661"/>
      <point x="413" y="682"/>
      <point x="332" y="682" type="curve"/>
      <point x="148" y="682"/>
      <point x="48" y="555"/>
      <point x="48" y="365" type="curve"/>
      <point x="48" y="182"/>
      <point x="130" y="50"/>
      <point x="303" y="50" type="curve"/>
      <point x="398" y="50"/>
      <point x="463" y="80"/>
      <point x="533" y="146" type="curve"/>
      <point x="488" y="192"/>
      <point x="533" y="146"/>
      <point x="488" y="192" type="curve"/>
      <point x="431" y="142"/>
      <point x="384" y="112"/>
      <point x="310" y="112" type="curve"/>
      <point x="179" y="112"/>
      <point x="124" y="222"/>
      <point x="124" y="368" type="curve"/>
      <point x="124" y="515"/>
      <point x="192" y="620"/>
      <point x="325" y="620" type="curve"/>
      <point x="393" y="620"/>
      <point x="439" y="600"/>
      <point x="493" y="559" type="curve"/>
      <point x="534" y="608"/>
      <point x="493" y="559"/>
    </contour>
  </outline>
</glyph>
<glyph name="sterling" format="1">
  <advance width="466"/>
  <unicode hex="00A3"/>
  <outline>
    <contour>
      <point x="399" y="60" type="curve"/>
      <point x="279" y="60"/>
      <point x="159" y="60"/>
      <point x="41" y="60" type="curve"/>
      <point x="41" y="0"/>
      <point x="41" y="60"/>
      <point x="41" y="0" type="curve"/>
      <point x="159" y="0"/>
      <point x="280" y="0"/>
      <point x="399" y="0" type="curve"/>
      <point x="399" y="60"/>
      <point x="399" y="0"/>
    </contour>
    <contour>
      <point x="355" y="406" type="curve"/>
      <point x="260" y="406"/>
      <point x="163" y="406"/>
      <point x="69" y="406" type="curve"/>
      <point x="69" y="346"/>
      <point x="69" y="406"/>
      <point x="69" y="346" type="curve"/>
      <point x="163" y="346"/>
      <point x="260" y="346"/>
      <point x="355" y="346" type="curve"/>
      <point x="355" y="406"/>
      <point x="355" y="346"/>
    </contour>
    <contour>
      <point x="419" y="670" type="curve"/>
      <point x="377" y="707"/>
      <point x="342" y="723"/>
      <point x="289" y="723" type="curve"/>
      <point x="129" y="723"/>
      <point x="96" y="561"/>
      <point x="133" y="370" type="curve"/>
      <point x="163" y="209"/>
      <point x="159" y="60"/>
      <point x="41" y="60" type="curve"/>
      <point x="41" y="0"/>
      <point x="41" y="60"/>
      <point x="41" y="0" type="curve"/>
      <point x="216" y="0"/>
      <point x="241" y="178"/>
      <point x="203" y="382" type="curve"/>
      <point x="176" y="530"/>
      <point x="184" y="665"/>
      <point x="285" y="665" type="curve"/>
      <point x="325" y="665"/>
      <point x="350" y="650"/>
      <point x="380" y="626" type="curve"/>
      <point x="419" y="670"/>
      <point x="380" y="626"/>
    </contour>
  </outline>
</glyph>
<glyph name="currency" format="1">
  <advance width="617"/>
  <unicode hex="00A4"/>
  <outline>
    <contour>
      <point x="215" y="313" type="curve"/>
      <point x="215" y="381"/>
      <point x="243" y="433"/>
      <point x="308" y="433" type="curve"/>
      <point x="374" y="433"/>
      <point x="402" y="383"/>
      <point x="402" y="313" type="curve"/>
      <point x="402" y="243"/>
      <point x="377" y="187"/>
      <point x="312" y="187" type="curve"/>
      <point x="243" y="187"/>
      <point x="215" y="240"/>
      <point x="215" y="313" type="curve"/>
      <point x="139" y="313"/>
      <point x="217" y="313"/>
      <point x="141" y="313" type="curve"/>
      <point x="141" y="201"/>
      <point x="202" y="128"/>
      <point x="311" y="128" type="curve"/>
      <point x="418" y="128"/>
      <point x="476" y="204"/>
      <point x="476" y="315" type="curve"/>
      <point x="476" y="421"/>
      <point x="418" y="493"/>
      <point x="315" y="493" type="curve"/>
      <point x="205" y="493"/>
      <point x="141" y="423"/>
      <point x="141" y="313" type="curve"/>
      <point x="217" y="313"/>
      <point x="139" y="313"/>
    </contour>
    <contour>
      <point x="410" y="382" type="line"/>
      <point x="558" y="521" type="line"/>
      <point x="500" y="579" type="line"/>
      <point x="361" y="432" type="line"/>
    </contour>
    <contour>
      <point x="363" y="195" type="line"/>
      <point x="503" y="48" type="line"/>
      <point x="560" y="105" type="line"/>
      <point x="413" y="244" type="line"/>
    </contour>
    <contour>
      <point x="204" y="245" type="line"/>
      <point x="57" y="106" type="line"/>
      <point x="114" y="48" type="line"/>
      <point x="254" y="195" type="line"/>
    </contour>
    <contour>
      <point x="258" y="432" type="line"/>
      <point x="119" y="580" type="line"/>
      <point x="61" y="522" type="line"/>
      <point x="208" y="383" type="line"/>
    </contour>
  </outline>
</glyph>
<glyph name="yen" format="1">
  <advance width="582"/>
  <unicode hex="00A5"/>
  <outline>
    <contour>
      <point x="490" y="395" type="curve"/>
      <point x="427" y="395"/>
      <point x="365" y="395"/>
      <point x="303" y="395" type="curve"/>
      <point x="303" y="330"/>
      <point x="303" y="395"/>
      <point x="303" y="330" type="curve"/>
      <point x="365" y="330"/>
      <point x="427" y="330"/>
      <point x="490" y="330" type="curve"/>
      <point x="490" y="395"/>
      <point x="490" y="330"/>
    </contour>
    <contour>
      <point x="278" y="395" type="curve"/>
      <point x="217" y="395"/>
      <point x="156" y="395"/>
      <point x="95" y="395" type="curve"/>
      <point x="95" y="330"/>
      <point x="95" y="395"/>
      <point x="95" y="330" type="curve"/>
      <point x="156" y="330"/>
      <point x="217" y="330"/>
      <point x="278" y="330" type="curve"/>
      <point x="278" y="395"/>
      <point x="278" y="330"/>
    </contour>
    <contour>
      <point x="490" y="263" type="curve"/>
      <point x="358" y="263"/>
      <point x="226" y="263"/>
      <point x="95" y="263" type="curve"/>
      <point x="95" y="197"/>
      <point x="95" y="263"/>
      <point x="95" y="197" type="curve"/>
      <point x="226" y="197"/>
      <point x="358" y="197"/>
      <point x="490" y="197" type="curve"/>
      <point x="490" y="263"/>
      <point x="490" y="197"/>
    </contour>
    <contour>
      <point x="40" y="722" type="curve"/>
      <point x="108" y="596"/>
      <point x="180" y="465"/>
      <point x="248" y="337" type="curve"/>
      <point x="326" y="337"/>
      <point x="241" y="338"/>
      <point x="319" y="338" type="curve"/>
      <point x="253" y="467"/>
      <point x="188" y="593"/>
      <point x="121" y="722" type="curve"/>
      <point x="46" y="722"/>
      <point x="115" y="722"/>
    </contour>
    <contour>
      <point x="468" y="722" type="curve"/>
      <point x="396" y="593"/>
      <point x="327" y="467"/>
      <point x="255" y="338" type="curve"/>
      <point x="333" y="338"/>
      <point x="251" y="337"/>
      <point x="329" y="337" type="curve"/>
      <point x="401" y="464"/>
      <point x="475" y="595"/>
      <point x="547" y="722" type="curve"/>
      <point x="472" y="722"/>
      <point x="543" y="722"/>
    </contour>
    <contour>
      <point x="330" y="0" type="curve"/>
      <point x="330" y="115"/>
      <point x="330" y="228"/>
      <point x="330" y="343" type="curve"/>
      <point x="247" y="343"/>
      <point x="330" y="343"/>
      <point x="247" y="343" type="curve"/>
      <point x="247" y="228"/>
      <point x="247" y="115"/>
      <point x="247" y="0" type="curve"/>
      <point x="330" y="0"/>
      <point x="247" y="0"/>
    </contour>
  </outline>
</glyph>
<glyph name="section" format="1">
  <advance width="466"/>
  <unicode hex="00A7"/>
  <outline>
    <contour>
      <point x="376" y="705" type="curve"/>
      <point x="328" y="735"/>
      <point x="291" y="750"/>
      <point x="236" y="750" type="curve"/>
      <point x="142" y="750"/>
      <point x="83" y="700"/>
      <point x="83" y="613" type="curve"/>
      <point x="83" y="534"/>
      <point x="130" y="489"/>
      <point x="205" y="460" type="curve"/>
      <point x="272" y="434"/>
      <point x="341" y="423"/>
      <point x="341" y="360" type="curve"/>
      <point x="341" y="300"/>
      <point x="305" y="264"/>
      <point x="243" y="251" type="curve"/>
      <point x="288" y="203"/>
      <point x="243" y="251"/>
      <point x="288" y="203" type="curve"/>
      <point x="371" y="225"/>
      <point x="417" y="277"/>
      <point x="417" y="361" type="curve"/>
      <point x="416" y="455"/>
      <point x="336" y="484"/>
      <point x="243" y="516" type="curve"/>
      <point x="193" y="535"/>
      <point x="156" y="562"/>
      <point x="156" y="613" type="curve"/>
      <point x="156" y="659"/>
      <point x="184" y="691"/>
      <point x="234" y="691" type="curve"/>
      <point x="278" y="691"/>
      <point x="304" y="678"/>
      <point x="342" y="657" type="curve"/>
      <point x="376" y="705"/>
      <point x="342" y="657"/>
    </contour>
    <contour>
      <point x="177" y="519" type="curve"/>
      <point x="100" y="493"/>
      <point x="52" y="447"/>
      <point x="52" y="367" type="curve"/>
      <point x="52" y="276"/>
      <point x="121" y="240"/>
      <point x="209" y="209" type="curve"/>
      <point x="266" y="187"/>
      <point x="317" y="168"/>
      <point x="317" y="113" type="curve"/>
      <point x="317" y="63"/>
      <point x="286" y="31"/>
      <point x="235" y="31" type="curve"/>
      <point x="185" y="31"/>
      <point x="155" y="48"/>
      <point x="113" y="77" type="curve"/>
      <point x="73" y="33"/>
      <point x="113" y="77"/>
      <point x="73" y="33" type="curve"/>
      <point x="124" y="-9"/>
      <point x="169" y="-28"/>
      <point x="233" y="-28" type="curve"/>
      <point x="327" y="-28"/>
      <point x="392" y="22"/>
      <point x="392" y="114" type="curve"/>
      <point x="390" y="195"/>
      <point x="337" y="238"/>
      <point x="258" y="265" type="curve"/>
      <point x="192" y="290"/>
      <point x="128" y="306"/>
      <point x="128" y="368" type="curve"/>
      <point x="128" y="424"/>
      <point x="160" y="456"/>
      <point x="215" y="475" type="curve"/>
      <point x="177" y="519"/>
      <point x="215" y="475"/>
    </contour>
  </outline>
</glyph>
<glyph name="dieresis" format="1">
  <advance width="400"/>
  <unicode hex="00A8"/>
  <outline>
    <contour>
      <point x="159" y="658" type="curve"/>
      <point x="159" y="685"/>
      <point x="140" y="699"/>
      <point x="114" y="699" type="curve"/>
      <point x="88" y="699"/>
      <point x="71" y="684"/>
      <point x="71" y="658" type="curve"/>
      <point x="155" y="658"/>
      <point x="75" y="658"/>
      <point x="159" y="658" type="curve"/>
      <point x="159" y="631"/>
      <point x="140" y="618"/>
      <point x="114" y="618" type="curve"/>
      <point x="88" y="618"/>
      <point x="71" y="632"/>
      <point x="71" y="658" type="curve"/>
      <point x="155" y="658"/>
      <point x="75" y="658"/>
    </contour>
    <contour>
      <point x="308" y="658" type="curve"/>
      <point x="308" y="685"/>
      <point x="289" y="699"/>
      <point x="263" y="699" type="curve"/>
      <point x="237" y="699"/>
      <point x="221" y="684"/>
      <point x="221" y="658" type="curve"/>
      <point x="304" y="658"/>
      <point x="224" y="658"/>
      <point x="308" y="658" type="curve"/>
      <point x="308" y="631"/>
      <point x="290" y="618"/>
      <point x="263" y="618" type="curve"/>
      <point x="237" y="618"/>
      <point x="221" y="632"/>
      <point x="221" y="658" type="curve"/>
      <point x="304" y="658"/>
      <point x="224" y="658"/>
    </contour>
    <contour>
      <point x="189" y="621" type="move" name="_top"/>
    </contour>
  </outline>
</glyph>
<glyph name="copyright" format="1">
  <advance width="713"/>
  <unicode hex="00A9"/>
  <outline>
    <contour>
      <point x="120" y="321" type="curve"/>
      <point x="120" y="480"/>
      <point x="207" y="595"/>
      <point x="359" y="595" type="curve"/>
      <point x="508" y="595"/>
      <point x="592" y="478"/>
      <point x="592" y="320" type="curve"/>
      <point x="592" y="166"/>
      <point x="511" y="50"/>
      <point x="365" y="50" type="curve"/>
      <point x="214" y="50"/>
      <point x="120" y="163"/>
      <point x="120" y="321" type="curve"/>
      <point x="56" y="321"/>
      <point x="121" y="321"/>
      <point x="57" y="321" type="curve"/>
      <point x="57" y="132"/>
      <point x="176" y="0"/>
      <point x="363" y="0" type="curve"/>
      <point x="544" y="0"/>
      <point x="654" y="135"/>
      <point x="654" y="322" type="curve"/>
      <point x="654" y="510"/>
      <point x="541" y="645"/>
      <point x="359" y="645" type="curve"/>
      <point x="174" y="645"/>
      <point x="57" y="512"/>
      <point x="57" y="321" type="curve"/>
      <point x="121" y="321"/>
      <point x="56" y="321"/>
    </contour>
    <contour>
      <point x="482" y="455" type="curve"/>
      <point x="448" y="489"/>
      <point x="411" y="503"/>
      <point x="365" y="503" type="curve"/>
      <point x="258" y="503"/>
      <point x="201" y="430"/>
      <point x="201" y="321" type="curve"/>
      <point x="201" y="215"/>
      <point x="251" y="143"/>
      <point x="352" y="143" type="curve"/>
      <point x="407" y="143"/>
      <point x="446" y="154"/>
      <point x="487" y="196" type="curve"/>
      <point x="450" y="229"/>
      <point x="487" y="196"/>
      <point x="450" y="229" type="curve"/>
      <point x="420" y="205"/>
      <point x="393" y="193"/>
      <point x="355" y="193" type="curve"/>
      <point x="286" y="193"/>
      <point x="262" y="249"/>
      <point x="262" y="323" type="curve"/>
      <point x="262" y="398"/>
      <point x="291" y="453"/>
      <point x="362" y="453" type="curve"/>
      <point x="391" y="453"/>
      <point x="416" y="446"/>
      <point x="444" y="426" type="curve"/>
      <point x="485" y="456"/>
      <point x="441" y="425"/>
    </contour>
  </outline>
</glyph>
<glyph name="ordfeminine" format="1">
  <advance width="382"/>
  <unicode hex="00AA"/>
  <outline>
    <contour>
      <point x="308" y="427" type="curve"/>
      <point x="308" y="515"/>
      <point x="308" y="586"/>
      <point x="308" y="674" type="curve"/>
      <point x="308" y="741"/>
      <point x="258" y="770"/>
      <point x="188" y="770" type="curve"/>
      <point x="137" y="770"/>
      <point x="100" y="749"/>
      <point x="70" y="720" type="curve"/>
      <point x="88" y="691"/>
      <point x="76" y="713"/>
      <point x="94" y="683" type="curve"/>
      <point x="114" y="704"/>
      <point x="141" y="725"/>
      <point x="181" y="725" type="curve"/>
      <point x="224" y="725"/>
      <point x="253" y="706"/>
      <point x="253" y="665" type="curve"/>
      <point x="253" y="580"/>
      <point x="253" y="511"/>
      <point x="253" y="427" type="curve"/>
      <point x="299" y="427"/>
      <point x="262" y="427"/>
    </contour>
    <contour>
      <point x="279" y="640" type="curve"/>
      <point x="237" y="634"/>
      <point x="209" y="632"/>
      <point x="166" y="626" type="curve"/>
      <point x="100" y="616"/>
      <point x="54" y="588"/>
      <point x="54" y="524" type="curve"/>
      <point x="54" y="460"/>
      <point x="95" y="424"/>
      <point x="161" y="424" type="curve"/>
      <point x="226" y="424"/>
      <point x="257" y="467"/>
      <point x="294" y="517" type="curve"/>
      <point x="272" y="536"/>
      <point x="289" y="521"/>
      <point x="267" y="540" type="curve"/>
      <point x="243" y="500"/>
      <point x="219" y="467"/>
      <point x="173" y="467" type="curve"/>
      <point x="132" y="467"/>
      <point x="108" y="488"/>
      <point x="108" y="526" type="curve"/>
      <point x="108" y="562"/>
      <point x="132" y="582"/>
      <point x="166" y="587" type="curve"/>
      <point x="210" y="593"/>
      <point x="237" y="597"/>
      <point x="281" y="603" type="curve"/>
      <point x="280" y="633"/>
      <point x="281" y="610"/>
    </contour>
  </outline>
</glyph>
<glyph name="guillemotleft" format="1">
  <advance width="524"/>
  <unicode hex="00AB"/>
  <outline>
    <contour>
      <point x="247" y="436" type="curve"/>
      <point x="226" y="422"/>
      <point x="66" y="331"/>
      <point x="44" y="317" type="curve"/>
      <point x="44" y="251"/>
      <point x="44" y="311"/>
      <point x="44" y="245" type="curve"/>
      <point x="66" y="259"/>
      <point x="226" y="353"/>
      <point x="247" y="368" type="curve"/>
      <point x="247" y="433"/>
      <point x="247" y="371"/>
    </contour>
    <contour>
      <point x="248" y="195" type="curve"/>
      <point x="227" y="210"/>
      <point x="66" y="302"/>
      <point x="44" y="317" type="curve"/>
      <point x="44" y="251"/>
      <point x="44" y="311"/>
      <point x="44" y="245" type="curve"/>
      <point x="66" y="230"/>
      <point x="227" y="141"/>
      <point x="248" y="127" type="curve"/>
      <point x="248" y="192"/>
      <point x="248" y="130"/>
    </contour>
    <contour>
      <point x="453" y="436" type="curve"/>
      <point x="431" y="422"/>
      <point x="271" y="331"/>
      <point x="250" y="317" type="curve"/>
      <point x="250" y="251"/>
      <point x="250" y="311"/>
      <point x="250" y="245" type="curve"/>
      <point x="271" y="259"/>
      <point x="431" y="353"/>
      <point x="453" y="368" type="curve"/>
      <point x="453" y="433"/>
      <point x="453" y="371"/>
    </contour>
    <contour>
      <point x="453" y="195" type="curve"/>
      <point x="432" y="210"/>
      <point x="271" y="302"/>
      <point x="250" y="317" type="curve"/>
      <point x="250" y="251"/>
      <point x="250" y="311"/>
      <point x="250" y="245" type="curve"/>
      <point x="271" y="230"/>
      <point x="432" y="141"/>
      <point x="453" y="127" type="curve"/>
      <point x="453" y="192"/>
      <point x="453" y="130"/>
    </contour>
  </outline>
</glyph>
<glyph name="logicalnot" format="1">
  <advance width="627"/>
  <unicode hex="00AC"/>
  <outline>
    <contour>
      <point x="77" y="279" type="curve"/>
      <point x="547" y="279" type="line"/>
      <point x="547" y="344"/>
      <point x="547" y="279"/>
      <point x="547" y="344" type="curve"/>
      <point x="77" y="344" type="line"/>
      <point x="77" y="279"/>
      <point x="77" y="344"/>
    </contour>
    <contour>
      <point x="547" y="147" type="curve"/>
      <point x="547" y="344" type="line"/>
      <point x="471" y="344"/>
      <point x="548" y="344"/>
      <point x="472" y="344" type="curve"/>
      <point x="472" y="147" type="line"/>
      <point x="548" y="147"/>
      <point x="471" y="147"/>
    </contour>
  </outline>
</glyph>
<glyph name="registered" format="1">
  <advance width="719"/>
  <unicode hex="00AE"/>
  <outline>
    <contour>
      <point x="116" y="321" type="curve"/>
      <point x="116" y="485"/>
      <point x="205" y="599"/>
      <point x="363" y="599" type="curve"/>
      <point x="518" y="599"/>
      <point x="604" y="483"/>
      <point x="604" y="319" type="curve"/>
      <point x="604" y="160"/>
      <point x="521" y="45"/>
      <point x="369" y="45" type="curve"/>
      <point x="210" y="45"/>
      <point x="116" y="156"/>
      <point x="116" y="321" type="curve"/>
      <point x="86" y="321"/>
      <point x="89" y="321"/>
      <point x="59" y="321" type="curve"/>
      <point x="59" y="128"/>
      <point x="176" y="-1"/>
      <point x="366" y="-1" type="curve"/>
      <point x="552" y="-1"/>
      <point x="660" y="131"/>
      <point x="660" y="321" type="curve"/>
      <point x="660" y="514"/>
      <point x="549" y="645"/>
      <point x="363" y="645" type="curve"/>
      <point x="173" y="645"/>
      <point x="59" y="515"/>
      <point x="59" y="321" type="curve"/>
      <point x="89" y="321"/>
      <point x="86" y="321"/>
    </contour>
    <contour>
      <point x="347" y="313" type="curve"/>
      <point x="362" y="284"/>
      <point x="417" y="175"/>
      <point x="432" y="146" type="curve"/>
      <point x="465" y="146"/>
      <point x="454" y="145"/>
      <point x="491" y="145" type="curve"/>
      <point x="476" y="175"/>
      <point x="422" y="281"/>
      <point x="407" y="311" type="curve"/>
      <point x="337" y="311"/>
      <point x="418" y="314"/>
    </contour>
    <contour>
      <point x="322" y="146" type="curve"/>
      <point x="322" y="253"/>
      <point x="322" y="391"/>
      <point x="322" y="498" type="curve"/>
      <point x="285" y="498"/>
      <point x="302" y="499"/>
      <point x="262" y="499" type="curve"/>
      <point x="262" y="391"/>
      <point x="262" y="253"/>
      <point x="262" y="146" type="curve"/>
      <point x="303" y="146"/>
      <point x="280" y="146"/>
    </contour>
    <contour>
      <point x="296" y="284" type="curve"/>
      <point x="313" y="284"/>
      <point x="331" y="284"/>
      <point x="348" y="284" type="curve"/>
      <point x="424" y="284"/>
      <point x="474" y="316"/>
      <point x="474" y="392" type="curve"/>
      <point x="474" y="459"/>
      <point x="430" y="499"/>
      <point x="363" y="499" type="curve"/>
      <point x="351" y="499"/>
      <point x="303" y="499"/>
      <point x="291" y="499" type="curve"/>
      <point x="263" y="461"/>
      <point x="326" y="499"/>
      <point x="262" y="448" type="curve"/>
      <point x="292" y="448"/>
      <point x="322" y="448"/>
      <point x="351" y="448" type="curve"/>
      <point x="390" y="448"/>
      <point x="415" y="428"/>
      <point x="415" y="389" type="curve"/>
      <point x="415" y="352"/>
      <point x="393" y="334"/>
      <point x="357" y="334" type="curve"/>
      <point x="337" y="334"/>
      <point x="316" y="334"/>
      <point x="296" y="334" type="curve"/>
      <point x="296" y="284"/>
      <point x="296" y="334"/>
    </contour>
  </outline>
</glyph>
<glyph name="macron" format="1">
  <advance width="307"/>
  <unicode hex="00AF"/>
  <outline>
    <contour>
      <point x="232" y="679" type="curve"/>
      <point x="166" y="679"/>
      <point x="100" y="679"/>
      <point x="34" y="679" type="curve"/>
      <point x="34" y="620"/>
      <point x="34" y="679"/>
      <point x="34" y="620" type="curve"/>
      <point x="100" y="620"/>
      <point x="166" y="620"/>
      <point x="232" y="620" type="curve"/>
      <point x="232" y="679"/>
      <point x="232" y="620"/>
    </contour>
    <contour>
      <point x="135" y="620" type="move" name="_top"/>
    </contour>
  </outline>
</glyph>
<glyph name="degree" format="1">
  <advance width="439"/>
  <unicode hex="00B0"/>
  <outline>
    <contour>
      <point x="383" y="497" type="curve"/>
      <point x="383" y="612"/>
      <point x="329" y="692"/>
      <point x="219" y="692" type="curve"/>
      <point x="110" y="692"/>
      <point x="56" y="612"/>
      <point x="56" y="498" type="curve"/>
      <point x="99" y="498"/>
      <point x="79" y="498"/>
      <point x="121" y="498" type="curve"/>
      <point x="121" y="576"/>
      <point x="145" y="637"/>
      <point x="217" y="637" type="curve"/>
      <point x="290" y="637"/>
      <point x="317" y="576"/>
      <point x="317" y="497" type="curve"/>
      <point x="317" y="415"/>
      <point x="293" y="352"/>
      <point x="220" y="352" type="curve"/>
      <point x="145" y="352"/>
      <point x="121" y="417"/>
      <point x="121" y="498" type="curve"/>
      <point x="79" y="498"/>
      <point x="99" y="498"/>
      <point x="56" y="498" type="curve"/>
      <point x="56" y="380"/>
      <point x="107" y="296"/>
      <point x="219" y="296" type="curve"/>
      <point x="331" y="296"/>
      <point x="383" y="379"/>
    </contour>
  </outline>
</glyph>
<glyph name="twosuperior" format="1">
  <advance width="425"/>
  <unicode hex="00B2"/>
  <outline>
    <contour>
      <point x="54" y="316" type="curve"/>
      <point x="163" y="316"/>
      <point x="269" y="316"/>
      <point x="364" y="316" type="curve"/>
      <point x="364" y="344"/>
      <point x="364" y="340"/>
      <point x="364" y="368" type="curve"/>
      <point x="264" y="368"/>
      <point x="153" y="368"/>
      <point x="54" y="368" type="curve"/>
      <point x="54" y="316"/>
      <point x="54" y="368"/>
    </contour>
    <contour>
      <point x="123" y="622" type="curve"/>
      <point x="143" y="660"/>
      <point x="165" y="687"/>
      <point x="208" y="687" type="curve"/>
      <point x="255" y="687"/>
      <point x="281" y="657"/>
      <point x="281" y="610" type="curve"/>
      <point x="281" y="565"/>
      <point x="254" y="542"/>
      <point x="222" y="510" type="curve"/>
      <point x="166" y="463"/>
      <point x="110" y="416"/>
      <point x="54" y="368" type="curve"/>
      <point x="60" y="316"/>
      <point x="54" y="368"/>
      <point x="61" y="316" type="curve"/>
      <point x="130" y="369"/>
      <point x="203" y="418"/>
      <point x="263" y="469" type="curve"/>
      <point x="309" y="514"/>
      <point x="346" y="548"/>
      <point x="346" y="613" type="curve"/>
      <point x="346" y="693"/>
      <point x="294" y="740"/>
      <point x="213" y="740" type="curve"/>
      <point x="146" y="740"/>
      <point x="101" y="711"/>
      <point x="75" y="645" type="curve"/>
      <point x="123" y="622"/>
      <point x="75" y="645"/>
    </contour>
    <contour>
      <point x="220" y="740" type="move" name="_top"/>
    </contour>
    <contour>
      <point x="203" y="315" type="move" name="_bottom"/>
    </contour>
  </outline>
</glyph>
<glyph name="threesuperior" format="1">
  <advance width="379"/>
  <unicode hex="00B3"/>
  <outline>
    <contour>
      <point x="95" y="648" type="curve"/>
      <point x="116" y="670"/>
      <point x="140" y="686"/>
      <point x="170" y="686" type="curve"/>
      <point x="215" y="686"/>
      <point x="244" y="664"/>
      <point x="244" y="620" type="curve"/>
      <point x="244" y="571"/>
      <point x="190" y="554"/>
      <point x="132" y="550" type="curve"/>
      <point x="132" y="506"/>
      <point x="132" y="550"/>
      <point x="132" y="506" type="curve"/>
      <point x="230" y="508"/>
      <point x="311" y="537"/>
      <point x="311" y="624" type="curve"/>
      <point x="311" y="701"/>
      <point x="256" y="738"/>
      <point x="177" y="738" type="curve"/>
      <point x="129" y="738"/>
      <point x="86" y="716"/>
      <point x="57" y="682" type="curve"/>
      <point x="95" y="648"/>
      <point x="57" y="682"/>
    </contour>
    <contour>
      <point x="54" y="345" type="curve"/>
      <point x="88" y="323"/>
      <point x="122" y="310"/>
      <point x="163" y="310" type="curve"/>
      <point x="258" y="307"/>
      <point x="326" y="345"/>
      <point x="325" y="433" type="curve"/>
      <point x="325" y="524"/>
      <point x="235" y="539"/>
      <point x="132" y="542" type="curve"/>
      <point x="132" y="503"/>
      <point x="132" y="542"/>
      <point x="132" y="503" type="curve"/>
      <point x="201" y="499"/>
      <point x="258" y="483"/>
      <point x="258" y="431" type="curve"/>
      <point x="257" y="383"/>
      <point x="221" y="359"/>
      <point x="169" y="361" type="curve"/>
      <point x="140" y="361"/>
      <point x="113" y="369"/>
      <point x="85" y="385" type="curve"/>
      <point x="54" y="345"/>
      <point x="85" y="385"/>
    </contour>
    <contour>
      <point x="192" y="738" type="move" name="_top"/>
    </contour>
    <contour>
      <point x="181" y="310" type="move" name="_bottom"/>
    </contour>
  </outline>
</glyph>
<glyph name="paragraph" format="1">
  <advance width="694"/>
  <unicode hex="00B6"/>
  <outline>
    <contour>
      <point x="396" y="662" type="curve"/>
      <point x="546" y="662"/>
      <point x="396" y="662"/>
      <point x="546" y="662" type="curve"/>
      <point x="546" y="722"/>
      <point x="546" y="662"/>
      <point x="546" y="722" type="curve"/>
      <point x="496" y="722"/>
      <point x="445" y="722"/>
      <point x="396" y="722" type="curve"/>
      <point x="396" y="662"/>
      <point x="396" y="722"/>
    </contour>
    <contour>
      <point x="382" y="364" type="curve"/>
      <point x="339" y="340"/>
      <point x="305" y="326"/>
      <point x="255" y="326" type="curve"/>
      <point x="165" y="326"/>
      <point x="114" y="390"/>
      <point x="114" y="485" type="curve"/>
      <point x="114" y="593"/>
      <point x="179" y="662"/>
      <point x="286" y="662" type="curve"/>
      <point x="322" y="662"/>
      <point x="357" y="662"/>
      <point x="393" y="662" type="curve"/>
      <point x="393" y="722"/>
      <point x="393" y="662"/>
      <point x="393" y="722" type="curve"/>
      <point x="354" y="722"/>
      <point x="315" y="722"/>
      <point x="276" y="722" type="curve"/>
      <point x="132" y="722"/>
      <point x="38" y="631"/>
      <point x="38" y="488" type="curve"/>
      <point x="38" y="349"/>
      <point x="125" y="269"/>
      <point x="261" y="267" type="curve"/>
      <point x="316" y="267"/>
      <point x="360" y="287"/>
      <point x="406" y="313" type="curve"/>
      <point x="382" y="364"/>
      <point x="406" y="314"/>
    </contour>
    <contour>
      <point x="434" y="0" type="curve"/>
      <point x="434" y="241"/>
      <point x="434" y="481"/>
      <point x="434" y="722" type="curve"/>
      <point x="358" y="722"/>
      <point x="434" y="722"/>
      <point x="358" y="722" type="curve"/>
      <point x="358" y="481"/>
      <point x="358" y="241"/>
      <point x="358" y="0" type="curve"/>
      <point x="434" y="0"/>
      <point x="358" y="0"/>
    </contour>
    <contour>
      <point x="611" y="0" type="curve"/>
      <point x="611" y="241"/>
      <point x="611" y="481"/>
      <point x="611" y="722" type="curve"/>
      <point x="535" y="722"/>
      <point x="611" y="722"/>
      <point x="535" y="722" type="curve"/>
      <point x="535" y="481"/>
      <point x="535" y="241"/>
      <point x="535" y="0" type="curve"/>
      <point x="611" y="0"/>
      <point x="535" y="0"/>
    </contour>
  </outline>
</glyph>
<glyph name="periodcentered" format="1">
  <advance width="217"/>
  <unicode hex="00B7"/>
  <outline>
    <contour>
      <point x="152" y="440" type="curve"/>
      <point x="152" y="467"/>
      <point x="134" y="481"/>
      <point x="108" y="481" type="curve"/>
      <point x="82" y="481"/>
      <point x="65" y="466"/>
      <point x="65" y="440" type="curve"/>
      <point x="149" y="440"/>
      <point x="69" y="440"/>
      <point x="152" y="440" type="curve"/>
      <point x="152" y="413"/>
      <point x="134" y="400"/>
      <point x="108" y="400" type="curve"/>
      <point x="81" y="400"/>
      <point x="65" y="414"/>
      <point x="65" y="440" type="curve"/>
      <point x="149" y="440"/>
      <point x="69" y="440"/>
    </contour>
  </outline>
</glyph>
<glyph name="cedilla" format="1">
  <advance width="299"/>
  <unicode hex="00B8"/>
  <outline>
    <contour>
      <point x="146" y="81" type="curve"/>
      <point x="133" y="57"/>
      <point x="104" y="0"/>
      <point x="92" y="-24" type="curve"/>
      <point x="144" y="-72"/>
      <point x="92" y="-24"/>
      <point x="144" y="-72" type="curve"/>
      <point x="158" y="-45"/>
      <point x="191" y="13"/>
      <point x="204" y="40" type="curve"/>
      <point x="146" y="81"/>
      <point x="204" y="40"/>
    </contour>
    <contour>
      <point x="144" y="-72" type="curve"/>
      <point x="153" y="-65"/>
      <point x="161" y="-62"/>
      <point x="173" y="-62" type="curve"/>
      <point x="194" y="-62"/>
      <point x="204" y="-77"/>
      <point x="204" y="-100" type="curve"/>
      <point x="204" y="-125"/>
      <point x="186" y="-139"/>
      <point x="160" y="-139" type="curve"/>
      <point x="137" y="-139"/>
      <point x="120" y="-134"/>
      <point x="100" y="-122" type="curve"/>
      <point x="73" y="-166"/>
      <point x="100" y="-122"/>
      <point x="73" y="-166" type="curve"/>
      <point x="100" y="-183"/>
      <point x="124" y="-191"/>
      <point x="156" y="-191" type="curve"/>
      <point x="218" y="-191"/>
      <point x="261" y="-159"/>
      <point x="261" y="-99" type="curve"/>
      <point x="261" y="-41"/>
      <point x="226" y="-5"/>
      <point x="170" y="-5" type="curve"/>
      <point x="140" y="-5"/>
      <point x="119" y="-11"/>
      <point x="92" y="-25" type="curve"/>
      <point x="144" y="-72"/>
      <point x="92" y="-25"/>
    </contour>
    <contour>
      <point x="198" y="40" type="move" name="_bottom"/>
    </contour>
  </outline>
</glyph>
<glyph name="onesuperior" format="1">
  <advance width="279"/>
  <unicode hex="00B9"/>
  <outline>
    <contour>
      <point x="59" y="589" type="line"/>
      <point x="199" y="726" type="line"/>
      <point x="133" y="731" type="line"/>
      <point x="22" y="628" type="line"/>
    </contour>
    <contour>
      <point x="200" y="316" type="curve"/>
      <point x="200" y="731" type="line"/>
      <point x="133" y="731" type="line"/>
      <point x="133" y="316" type="line"/>
      <point x="179" y="316"/>
      <point x="155" y="316"/>
    </contour>
    <contour>
      <point x="162" y="729" type="move" name="_top"/>
    </contour>
    <contour>
      <point x="168" y="318" type="move" name="_bottom"/>
    </contour>
  </outline>
</glyph>
<glyph name="ordmasculine" format="1">
  <advance width="390"/>
  <unicode hex="00BA"/>
  <outline>
    <contour>
      <point x="102" y="601" type="curve"/>
      <point x="102" y="672"/>
      <point x="128" y="726"/>
      <point x="195" y="726" type="curve"/>
      <point x="260" y="726"/>
      <point x="287" y="672"/>
      <point x="287" y="600" type="curve"/>
      <point x="287" y="523"/>
      <point x="262" y="466"/>
      <point x="199" y="466" type="curve"/>
      <point x="128" y="466"/>
      <point x="102" y="523"/>
      <point x="102" y="601" type="curve"/>
      <point x="78" y="601"/>
      <point x="73" y="601"/>
      <point x="49" y="601" type="curve"/>
      <point x="49" y="494"/>
      <point x="97" y="422"/>
      <point x="197" y="422" type="curve"/>
      <point x="293" y="422"/>
      <point x="341" y="493"/>
      <point x="341" y="600" type="curve"/>
      <point x="341" y="701"/>
      <point x="294" y="770"/>
      <point x="197" y="770" type="curve"/>
      <point x="97" y="770"/>
      <point x="49" y="701"/>
      <point x="49" y="601" type="curve"/>
      <point x="73" y="601"/>
      <point x="78" y="601"/>
    </contour>
  </outline>
</glyph>
<glyph name="guillemotright" format="1">
  <advance width="533"/>
  <unicode hex="00BB"/>
  <outline>
    <contour>
      <point x="282" y="436" type="curve"/>
      <point x="304" y="422"/>
      <point x="464" y="331"/>
      <point x="486" y="317" type="curve"/>
      <point x="486" y="251"/>
      <point x="486" y="311"/>
      <point x="486" y="245" type="curve"/>
      <point x="464" y="259"/>
      <point x="304" y="353"/>
      <point x="282" y="368" type="curve"/>
      <point x="282" y="433"/>
      <point x="282" y="371"/>
    </contour>
    <contour>
      <point x="282" y="195" type="curve"/>
      <point x="303" y="210"/>
      <point x="464" y="302"/>
      <point x="486" y="317" type="curve"/>
      <point x="486" y="251"/>
      <point x="486" y="311"/>
      <point x="486" y="245" type="curve"/>
      <point x="464" y="230"/>
      <point x="303" y="141"/>
      <point x="282" y="127" type="curve"/>
      <point x="282" y="192"/>
      <point x="282" y="130"/>
    </contour>
    <contour>
      <point x="77" y="436" type="curve"/>
      <point x="99" y="422"/>
      <point x="259" y="331"/>
      <point x="280" y="317" type="curve"/>
      <point x="280" y="251"/>
      <point x="280" y="311"/>
      <point x="280" y="245" type="curve"/>
      <point x="259" y="259"/>
      <point x="99" y="353"/>
      <point x="77" y="368" type="curve"/>
      <point x="77" y="433"/>
      <point x="77" y="371"/>
    </contour>
    <contour>
      <point x="77" y="195" type="curve"/>
      <point x="98" y="210"/>
      <point x="259" y="302"/>
      <point x="280" y="317" type="curve"/>
      <point x="280" y="251"/>
      <point x="280" y="311"/>
      <point x="280" y="245" type="curve"/>
      <point x="259" y="230"/>
      <point x="98" y="141"/>
      <point x="77" y="127" type="curve"/>
      <point x="77" y="192"/>
      <point x="77" y="130"/>
    </contour>
  </outline>
</glyph>
<glyph name="onequarter" format="1">
  <advance width="877"/>
  <unicode hex="00BC"/>
  <outline>
    <contour>
      <point x="286" y="-68" type="line"/>
      <point x="662" y="736" type="line"/>
      <point x="589" y="736" type="line"/>
      <point x="214" y="-68" type="line"/>
    </contour>
    <contour>
      <point x="66" y="596" type="line"/>
      <point x="206" y="733" type="line"/>
      <point x="140" y="738" type="line"/>
      <point x="29" y="635" type="line"/>
    </contour>
    <contour>
      <point x="207" y="323" type="curve"/>
      <point x="207" y="738" type="line"/>
      <point x="140" y="738" type="line"/>
      <point x="140" y="323" type="line"/>
      <point x="186" y="323"/>
      <point x="162" y="323"/>
    </contour>
    <contour>
      <point x="842" y="99" type="line"/>
      <point x="500" y="99" type="line"/>
      <point x="500" y="48" type="line"/>
      <point x="842" y="48" type="line"/>
    </contour>
    <contour>
      <point x="524" y="52" type="line"/>
      <point x="744" y="355" type="line"/>
      <point x="692" y="367" type="line"/>
      <point x="500" y="99" type="line"/>
    </contour>
    <contour>
      <point x="758" y="-68" type="line"/>
      <point x="758" y="367" type="line"/>
      <point x="692" y="367" type="line"/>
      <point x="692" y="-68" type="line"/>
    </contour>
  </outline>
</glyph>
<glyph name="onehalf" format="1">
  <advance width="932"/>
  <unicode hex="00BD"/>
  <outline>
    <contour>
      <point x="304" y="-68" type="line"/>
      <point x="680" y="736" type="line"/>
      <point x="608" y="736" type="line"/>
      <point x="232" y="-68" type="line"/>
    </contour>
    <contour>
      <point x="66" y="596" type="line"/>
      <point x="206" y="733" type="line"/>
      <point x="140" y="738" type="line"/>
      <point x="29" y="635" type="line"/>
    </contour>
    <contour>
      <point x="207" y="323" type="curve"/>
      <point x="207" y="738" type="line"/>
      <point x="140" y="738" type="line"/>
      <point x="140" y="323" type="line"/>
      <point x="186" y="323"/>
      <point x="162" y="323"/>
    </contour>
    <contour>
      <point x="581" y="-68" type="curve"/>
      <point x="690" y="-68"/>
      <point x="797" y="-68"/>
      <point x="891" y="-68" type="curve"/>
      <point x="891" y="-40"/>
      <point x="891" y="-43"/>
      <point x="891" y="-15" type="curve"/>
      <point x="792" y="-15"/>
      <point x="680" y="-15"/>
      <point x="581" y="-15" type="curve"/>
      <point x="581" y="-68"/>
      <point x="581" y="-15"/>
    </contour>
    <contour>
      <point x="651" y="239" type="curve"/>
      <point x="670" y="277"/>
      <point x="693" y="304"/>
      <point x="736" y="304" type="curve"/>
      <point x="783" y="304"/>
      <point x="809" y="273"/>
      <point x="809" y="227" type="curve"/>
      <point x="809" y="182"/>
      <point x="782" y="158"/>
      <point x="750" y="127" type="curve"/>
      <point x="694" y="79"/>
      <point x="637" y="32"/>
      <point x="581" y="-15" type="curve"/>
      <point x="588" y="-67"/>
      <point x="582" y="-15"/>
      <point x="588" y="-67" type="curve"/>
      <point x="658" y="-15"/>
      <point x="730" y="35"/>
      <point x="790" y="85" type="curve"/>
      <point x="837" y="130"/>
      <point x="874" y="164"/>
      <point x="874" y="229" type="curve"/>
      <point x="874" y="309"/>
      <point x="821" y="357"/>
      <point x="740" y="357" type="curve"/>
      <point x="674" y="357"/>
      <point x="629" y="328"/>
      <point x="602" y="262" type="curve"/>
      <point x="651" y="239"/>
      <point x="602" y="262"/>
    </contour>
  </outline>
</glyph>
<glyph name="threequarters" format="1">
  <advance width="902"/>
  <unicode hex="00BE"/>
  <outline>
    <contour>
      <point x="316" y="-68" type="line"/>
      <point x="692" y="736" type="line"/>
      <point x="620" y="736" type="line"/>
      <point x="244" y="-68" type="line"/>
    </contour>
    <contour>
      <point x="85" y="646" type="curve"/>
      <point x="106" y="668"/>
      <point x="130" y="684"/>
      <point x="160" y="684" type="curve"/>
      <point x="205" y="684"/>
      <point x="234" y="662"/>
      <point x="234" y="618" type="curve"/>
      <point x="234" y="568"/>
      <point x="180" y="552"/>
      <point x="122" y="548" type="curve"/>
      <point x="122" y="504"/>
      <point x="122" y="548"/>
      <point x="122" y="504" type="curve"/>
      <point x="220" y="506"/>
      <point x="301" y="535"/>
      <point x="301" y="622" type="curve"/>
      <point x="301" y="699"/>
      <point x="246" y="736"/>
      <point x="167" y="736" type="curve"/>
      <point x="119" y="736"/>
      <point x="76" y="714"/>
      <point x="47" y="680" type="curve"/>
      <point x="85" y="646"/>
      <point x="47" y="680"/>
    </contour>
    <contour>
      <point x="44" y="343" type="curve"/>
      <point x="78" y="320"/>
      <point x="112" y="307"/>
      <point x="152" y="307" type="curve"/>
      <point x="248" y="305"/>
      <point x="316" y="343"/>
      <point x="315" y="431" type="curve"/>
      <point x="315" y="522"/>
      <point x="225" y="537"/>
      <point x="122" y="540" type="curve"/>
      <point x="122" y="501"/>
      <point x="122" y="540"/>
      <point x="122" y="501" type="curve"/>
      <point x="191" y="497"/>
      <point x="248" y="481"/>
      <point x="248" y="429" type="curve"/>
      <point x="247" y="381"/>
      <point x="211" y="357"/>
      <point x="159" y="359" type="curve"/>
      <point x="130" y="359"/>
      <point x="103" y="367"/>
      <point x="75" y="383" type="curve"/>
      <point x="44" y="343"/>
      <point x="75" y="383"/>
    </contour>
    <contour>
      <point x="870" y="99" type="line"/>
      <point x="528" y="99" type="line"/>
      <point x="528" y="48" type="line"/>
      <point x="870" y="48" type="line"/>
    </contour>
    <contour>
      <point x="553" y="52" type="line"/>
      <point x="772" y="355" type="line"/>
      <point x="720" y="367" type="line"/>
      <point x="528" y="99" type="line"/>
    </contour>
    <contour>
      <point x="786" y="-68" type="line"/>
      <point x="786" y="367" type="line"/>
      <point x="720" y="367" type="line"/>
      <point x="720" y="-68" type="line"/>
    </contour>
  </outline>
</glyph>
<glyph name="questiondown" format="1">
  <advance width="472"/>
  <unicode hex="00BF"/>
  <outline>
    <contour>
      <point x="291" y="365" type="curve"/>
      <point x="291" y="402"/>
      <point x="291" y="460"/>
      <point x="291" y="497" type="curve"/>
      <point x="219" y="497"/>
      <point x="291" y="497"/>
      <point x="219" y="497" type="curve"/>
      <point x="219" y="460"/>
      <point x="219" y="402"/>
      <point x="219" y="365" type="curve"/>
      <point x="291" y="365"/>
      <point x="219" y="365"/>
    </contour>
    <contour>
      <point x="382" y="115" type="line"/>
      <point x="352" y="80"/>
      <point x="313" y="53"/>
      <point x="258" y="53" type="curve"/>
      <point x="171" y="53"/>
      <point x="121" y="112"/>
      <point x="121" y="200" type="curve"/>
      <point x="121" y="299"/>
      <point x="182" y="365"/>
      <point x="283" y="365" type="curve"/>
      <point x="283" y="393"/>
      <point x="283" y="396"/>
      <point x="283" y="424" type="curve"/>
      <point x="140" y="424"/>
      <point x="48" y="337"/>
      <point x="48" y="200" type="curve"/>
      <point x="48" y="72"/>
      <point x="129" y="-10"/>
      <point x="254" y="-10" type="curve"/>
      <point x="330" y="-10"/>
      <point x="384" y="21"/>
      <point x="424" y="69" type="curve"/>
    </contour>
    <contour>
      <point x="212" y="690" type="curve"/>
      <point x="212" y="664"/>
      <point x="230" y="650"/>
      <point x="256" y="650" type="curve"/>
      <point x="281" y="650"/>
      <point x="298" y="665"/>
      <point x="298" y="690" type="curve"/>
      <point x="212" y="690"/>
      <point x="298" y="690"/>
      <point x="212" y="690" type="curve"/>
      <point x="212" y="718"/>
      <point x="230" y="730"/>
      <point x="256" y="730" type="curve"/>
      <point x="282" y="730"/>
      <point x="298" y="716"/>
      <point x="298" y="690" type="curve"/>
      <point x="212" y="690"/>
      <point x="298" y="690"/>
    </contour>
  </outline>
</glyph>
<glyph name="Aacute" format="1">
  <advance width="604"/>
  <unicode hex="00C1"/>
  <outline>
    <contour>
      <point x="447" y="287" type="curve"/>
      <point x="351" y="287"/>
      <point x="254" y="287"/>
      <point x="158" y="287" type="curve"/>
      <point x="127" y="224"/>
      <point x="158" y="287"/>
      <point x="127" y="224" type="curve"/>
      <point x="242" y="224"/>
      <point x="356" y="224"/>
      <point x="471" y="224" type="curve"/>
      <point x="447" y="287"/>
      <point x="471" y="224"/>
    </contour>
    <contour>
      <point x="585" y="0" type="curve"/>
      <point x="506" y="241"/>
      <point x="423" y="481"/>
      <point x="343" y="722" type="curve"/>
      <point x="274" y="722"/>
      <point x="343" y="722"/>
      <point x="274" y="722" type="curve"/>
      <point x="352" y="482"/>
      <point x="427" y="240"/>
      <point x="506" y="0" type="curve"/>
      <point x="585" y="0"/>
      <point x="506" y="0"/>
    </contour>
    <contour>
      <point x="84" y="0" type="curve"/>
      <point x="171" y="240"/>
      <point x="254" y="482"/>
      <point x="342" y="722" type="curve"/>
      <point x="272" y="722"/>
      <point x="342" y="722"/>
      <point x="272" y="722" type="curve"/>
      <point x="184" y="481"/>
      <point x="90" y="241"/>
      <point x="1" y="0" type="curve"/>
      <point x="84" y="0"/>
      <point x="1" y="0"/>
    </contour>
    <contour>
      <point x="340" y="806" type="line"/>
      <point x="462" y="972" type="line"/>
      <point x="365" y="972" type="line"/>
      <point x="266" y="806" type="line"/>
    </contour>
  </outline>
</glyph>
<glyph name="Atilde" format="1">
  <advance width="604"/>
  <unicode hex="00C3"/>
  <outline>
    <contour>
      <point x="447" y="287" type="curve"/>
      <point x="351" y="287"/>
      <point x="254" y="287"/>
      <point x="158" y="287" type="curve"/>
      <point x="127" y="224"/>
      <point x="158" y="287"/>
      <point x="127" y="224" type="curve"/>
      <point x="242" y="224"/>
      <point x="356" y="224"/>
      <point x="471" y="224" type="curve"/>
      <point x="447" y="287"/>
      <point x="471" y="224"/>
    </contour>
    <contour>
      <point x="585" y="0" type="curve"/>
      <point x="506" y="241"/>
      <point x="423" y="481"/>
      <point x="343" y="722" type="curve"/>
      <point x="274" y="722"/>
      <point x="343" y="722"/>
      <point x="274" y="722" type="curve"/>
      <point x="352" y="482"/>
      <point x="427" y="240"/>
      <point x="506" y="0" type="curve"/>
      <point x="585" y="0"/>
      <point x="506" y="0"/>
    </contour>
    <contour>
      <point x="84" y="0" type="curve"/>
      <point x="171" y="240"/>
      <point x="254" y="482"/>
      <point x="342" y="722" type="curve"/>
      <point x="272" y="722"/>
      <point x="342" y="722"/>
      <point x="272" y="722" type="curve"/>
      <point x="184" y="481"/>
      <point x="90" y="241"/>
      <point x="1" y="0" type="curve"/>
      <point x="84" y="0"/>
      <point x="1" y="0"/>
    </contour>
    <contour>
      <point x="440" y="957" type="curve"/>
      <point x="427" y="912"/>
      <point x="415" y="877"/>
      <point x="383" y="877" type="curve"/>
      <point x="351" y="877"/>
      <point x="334" y="891"/>
      <point x="313" y="915" type="curve"/>
      <point x="286" y="943"/>
      <point x="266" y="961"/>
      <point x="228" y="961" type="curve"/>
      <point x="161" y="961"/>
      <point x="134" y="903"/>
      <point x="116" y="835" type="curve"/>
      <point x="173" y="807"/>
      <point x="116" y="835"/>
      <point x="173" y="807" type="curve"/>
      <point x="188" y="856"/>
      <point x="202" y="889"/>
      <point x="238" y="889" type="curve"/>
      <point x="267" y="889"/>
      <point x="281" y="873"/>
      <point x="299" y="852" type="curve"/>
      <point x="329" y="821"/>
      <point x="351" y="804"/>
      <point x="393" y="804" type="curve"/>
      <point x="460" y="804"/>
      <point x="481" y="862"/>
      <point x="501" y="931" type="curve"/>
      <point x="440" y="957"/>
      <point x="501" y="930"/>
    </contour>
  </outline>
</glyph>
<glyph name="Adieresis" format="1">
  <advance width="604"/>
  <unicode hex="00C4"/>
  <outline>
    <contour>
      <point x="447" y="287" type="curve"/>
      <point x="351" y="287"/>
      <point x="254" y="287"/>
      <point x="158" y="287" type="curve"/>
      <point x="127" y="224"/>
      <point x="158" y="287"/>
      <point x="127" y="224" type="curve"/>
      <point x="242" y="224"/>
      <point x="356" y="224"/>
      <point x="471" y="224" type="curve"/>
      <point x="447" y="287"/>
      <point x="471" y="224"/>
    </contour>
    <contour>
      <point x="585" y="0" type="curve"/>
      <point x="506" y="241"/>
      <point x="423" y="481"/>
      <point x="343" y="722" type="curve"/>
      <point x="274" y="722"/>
      <point x="343" y="722"/>
      <point x="274" y="722" type="curve"/>
      <point x="352" y="482"/>
      <point x="427" y="240"/>
      <point x="506" y="0" type="curve"/>
      <point x="585" y="0"/>
      <point x="506" y="0"/>
    </contour>
    <contour>
      <point x="84" y="0" type="curve"/>
      <point x="171" y="240"/>
      <point x="254" y="482"/>
      <point x="342" y="722" type="curve"/>
      <point x="272" y="722"/>
      <point x="342" y="722"/>
      <point x="272" y="722" type="curve"/>
      <point x="184" y="481"/>
      <point x="90" y="241"/>
      <point x="1" y="0" type="curve"/>
      <point x="84" y="0"/>
      <point x="1" y="0"/>
    </contour>
    <contour>
      <point x="276" y="843" type="curve"/>
      <point x="276" y="870"/>
      <point x="257" y="884"/>
      <point x="231" y="884" type="curve"/>
      <point x="205" y="884"/>
      <point x="188" y="869"/>
      <point x="188" y="843" type="curve"/>
      <point x="272" y="843"/>
      <point x="192" y="843"/>
      <point x="276" y="843" type="curve"/>
      <point x="276" y="816"/>
      <point x="258" y="803"/>
      <point x="231" y="803" type="curve"/>
      <point x="205" y="803"/>
      <point x="188" y="816"/>
      <point x="188" y="843" type="curve"/>
      <point x="272" y="843"/>
      <point x="192" y="843"/>
    </contour>
    <contour>
      <point x="425" y="843" type="curve"/>
      <point x="425" y="870"/>
      <point x="406" y="884"/>
      <point x="381" y="884" type="curve"/>
      <point x="354" y="884"/>
      <point x="338" y="869"/>
      <point x="338" y="843" type="curve"/>
      <point x="421" y="843"/>
      <point x="341" y="843"/>
      <point x="425" y="843" type="curve"/>
      <point x="425" y="816"/>
      <point x="407" y="803"/>
      <point x="380" y="803" type="curve"/>
      <point x="354" y="803"/>
      <point x="338" y="816"/>
      <point x="338" y="843" type="curve"/>
      <point x="421" y="843"/>
      <point x="341" y="843"/>
    </contour>
  </outline>
</glyph>
<glyph name="Aring" format="1">
  <advance width="604"/>
  <unicode hex="00C5"/>
  <outline>
    <contour>
      <point x="447" y="287" type="curve"/>
      <point x="351" y="287"/>
      <point x="254" y="287"/>
      <point x="158" y="287" type="curve"/>
      <point x="127" y="224"/>
      <point x="158" y="287"/>
      <point x="127" y="224" type="curve"/>
      <point x="242" y="224"/>
      <point x="356" y="224"/>
      <point x="471" y="224" type="curve"/>
      <point x="447" y="287"/>
      <point x="471" y="224"/>
    </contour>
    <contour>
      <point x="585" y="0" type="curve"/>
      <point x="506" y="241"/>
      <point x="423" y="481"/>
      <point x="343" y="722" type="curve"/>
      <point x="274" y="722"/>
      <point x="343" y="722"/>
      <point x="274" y="722" type="curve"/>
      <point x="352" y="482"/>
      <point x="427" y="240"/>
      <point x="506" y="0" type="curve"/>
      <point x="585" y="0"/>
      <point x="506" y="0"/>
    </contour>
    <contour>
      <point x="84" y="0" type="curve"/>
      <point x="171" y="240"/>
      <point x="254" y="482"/>
      <point x="342" y="722" type="curve"/>
      <point x="272" y="722"/>
      <point x="342" y="722"/>
      <point x="272" y="722" type="curve"/>
      <point x="184" y="481"/>
      <point x="90" y="241"/>
      <point x="1" y="0" type="curve"/>
      <point x="84" y="0"/>
      <point x="1" y="0"/>
    </contour>
    <contour>
      <point x="180" y="934" type="curve"/>
      <point x="180" y="855"/>
      <point x="228" y="804"/>
      <point x="306" y="804" type="curve"/>
      <point x="387" y="804"/>
      <point x="435" y="854"/>
      <point x="435" y="934" type="curve"/>
      <point x="435" y="1015"/>
      <point x="386" y="1064"/>
      <point x="304" y="1064" type="curve"/>
      <point x="226" y="1064"/>
      <point x="180" y="1014"/>
      <point x="180" y="934" type="curve"/>
      <point x="247" y="934"/>
      <point x="177" y="934"/>
      <point x="244" y="934" type="curve"/>
      <point x="244" y="978"/>
      <point x="261" y="1010"/>
      <point x="304" y="1010" type="curve"/>
      <point x="349" y="1010"/>
      <point x="369" y="979"/>
      <point x="369" y="934" type="curve"/>
      <point x="369" y="890"/>
      <point x="350" y="859"/>
      <point x="306" y="859" type="curve"/>
      <point x="263" y="859"/>
      <point x="244" y="890"/>
      <point x="244" y="934" type="curve"/>
      <point x="177" y="934"/>
      <point x="247" y="934"/>
    </contour>
  </outline>
</glyph>
<glyph name="AE" format="1">
  <advance width="830"/>
  <unicode hex="00C6"/>
  <outline>
    <contour>
      <point x="401" y="273" type="curve"/>
      <point x="305" y="273"/>
      <point x="261" y="273"/>
      <point x="165" y="273" type="curve"/>
      <point x="133" y="210"/>
      <point x="165" y="273"/>
      <point x="133" y="210" type="curve"/>
      <point x="248" y="210"/>
      <point x="311" y="210"/>
      <point x="426" y="210" type="curve"/>
      <point x="401" y="273"/>
      <point x="426" y="210"/>
    </contour>
    <contour>
      <point x="76" y="0" type="curve"/>
      <point x="458" y="722" type="line"/>
      <point x="389" y="722"/>
      <point x="457" y="722"/>
      <point x="388" y="722" type="curve"/>
      <point x="-7" y="0" type="line"/>
      <point x="76" y="0"/>
      <point x="-7" y="0"/>
    </contour>
    <contour>
      <point x="431" y="343" type="curve"/>
      <point x="527" y="343"/>
      <point x="624" y="343"/>
      <point x="720" y="343" type="curve"/>
      <point x="720" y="403"/>
      <point x="720" y="343"/>
      <point x="720" y="403" type="curve"/>
      <point x="624" y="403"/>
      <point x="527" y="403"/>
      <point x="431" y="403" type="curve"/>
      <point x="431" y="343"/>
      <point x="431" y="403"/>
    </contour>
    <contour>
      <point x="418" y="662" type="curve"/>
      <point x="537" y="662"/>
      <point x="656" y="662"/>
      <point x="776" y="662" type="curve"/>
      <point x="776" y="722"/>
      <point x="776" y="662"/>
      <point x="776" y="722" type="curve"/>
      <point x="656" y="722"/>
      <point x="537" y="722"/>
      <point x="418" y="722" type="curve"/>
      <point x="418" y="662"/>
      <point x="418" y="722"/>
    </contour>
    <contour>
      <point x="464" y="0" type="curve"/>
      <point x="464" y="722" type="line"/>
      <point x="388" y="722"/>
      <point x="464" y="722"/>
      <point x="388" y="722" type="curve"/>
      <point x="388" y="481"/>
      <point x="388" y="241"/>
      <point x="388" y="0" type="curve"/>
      <point x="464" y="0"/>
      <point x="388" y="0"/>
    </contour>
    <contour>
      <point x="418" y="0" type="curve"/>
      <point x="547" y="0"/>
      <point x="676" y="0"/>
      <point x="806" y="0" type="curve"/>
      <point x="806" y="60"/>
      <point x="806" y="0"/>
      <point x="806" y="60" type="curve"/>
      <point x="676" y="60"/>
      <point x="547" y="60"/>
      <point x="418" y="60" type="curve"/>
      <point x="418" y="0"/>
      <point x="418" y="60"/>
    </contour>
  </outline>
</glyph>
<glyph name="Ccedilla" format="1">
  <advance width="619"/>
  <unicode hex="00C7"/>
  <outline>
    <contour>
      <point x="582" y="655" type="curve"/>
      <point x="520" y="696"/>
      <point x="449" y="727"/>
      <point x="367" y="727" type="curve"/>
      <point x="155" y="727"/>
      <point x="57" y="573"/>
      <point x="57" y="344" type="curve"/>
      <point x="57" y="135"/>
      <point x="150" y="-5"/>
      <point x="348" y="-5" type="curve"/>
      <point x="456" y="-5"/>
      <point x="523" y="30"/>
      <point x="596" y="96" type="curve"/>
      <point x="554" y="143"/>
      <point x="595" y="96"/>
      <point x="554" y="143" type="curve"/>
      <point x="491" y="89"/>
      <point x="437" y="59"/>
      <point x="352" y="59" type="curve"/>
      <point x="196" y="59"/>
      <point x="133" y="178"/>
      <point x="133" y="347" type="curve"/>
      <point x="133" y="531"/>
      <point x="198" y="664"/>
      <point x="364" y="664" type="curve"/>
      <point x="431" y="664"/>
      <point x="490" y="641"/>
      <point x="544" y="606" type="curve"/>
      <point x="582" y="655"/>
      <point x="544" y="606"/>
    </contour>
    <contour>
      <point x="314" y="42" type="curve"/>
      <point x="301" y="17"/>
      <point x="272" y="-40"/>
      <point x="259" y="-64" type="curve"/>
      <point x="312" y="-112"/>
      <point x="259" y="-64"/>
      <point x="312" y="-112" type="curve"/>
      <point x="325" y="-85"/>
      <point x="358" y="-27"/>
      <point x="372" y="0" type="curve"/>
      <point x="314" y="42"/>
      <point x="372" y="0"/>
    </contour>
    <contour>
      <point x="312" y="-112" type="curve"/>
      <point x="321" y="-105"/>
      <point x="328" y="-102"/>
      <point x="340" y="-102" type="curve"/>
      <point x="361" y="-102"/>
      <point x="371" y="-117"/>
      <point x="371" y="-140" type="curve"/>
      <point x="371" y="-165"/>
      <point x="354" y="-178"/>
      <point x="327" y="-178" type="curve"/>
      <point x="305" y="-178"/>
      <point x="288" y="-174"/>
      <point x="267" y="-162" type="curve"/>
      <point x="240" y="-206"/>
      <point x="267" y="-162"/>
      <point x="240" y="-206" type="curve"/>
      <point x="267" y="-223"/>
      <point x="291" y="-231"/>
      <point x="324" y="-231" type="curve"/>
      <point x="386" y="-231"/>
      <point x="428" y="-199"/>
      <point x="428" y="-138" type="curve"/>
      <point x="428" y="-81"/>
      <point x="394" y="-45"/>
      <point x="337" y="-45" type="curve"/>
      <point x="308" y="-45"/>
      <point x="286" y="-51"/>
      <point x="260" y="-64" type="curve"/>
      <point x="312" y="-112"/>
      <point x="260" y="-64"/>
    </contour>
  </outline>
</glyph>
<glyph name="Egrave" format="1">
  <advance width="548"/>
  <unicode hex="00C8"/>
  <outline>
    <contour>
      <point x="149" y="343" type="curve"/>
      <point x="245" y="343"/>
      <point x="342" y="343"/>
      <point x="438" y="343" type="curve"/>
      <point x="438" y="403"/>
      <point x="438" y="343"/>
      <point x="438" y="403" type="curve"/>
      <point x="342" y="403"/>
      <point x="245" y="403"/>
      <point x="149" y="403" type="curve"/>
      <point x="149" y="343"/>
      <point x="149" y="403"/>
    </contour>
    <contour>
      <point x="136" y="662" type="curve"/>
      <point x="255" y="662"/>
      <point x="374" y="662"/>
      <point x="494" y="662" type="curve"/>
      <point x="494" y="722"/>
      <point x="494" y="662"/>
      <point x="494" y="722" type="curve"/>
      <point x="374" y="722"/>
      <point x="255" y="722"/>
      <point x="136" y="722" type="curve"/>
      <point x="136" y="662"/>
      <point x="136" y="722"/>
    </contour>
    <contour>
      <point x="182" y="0" type="curve"/>
      <point x="182" y="722" type="line"/>
      <point x="106" y="722"/>
      <point x="182" y="722"/>
      <point x="106" y="722" type="curve"/>
      <point x="106" y="481"/>
      <point x="106" y="241"/>
      <point x="106" y="0" type="curve"/>
      <point x="182" y="0"/>
      <point x="106" y="0"/>
    </contour>
    <contour>
      <point x="136" y="0" type="curve"/>
      <point x="265" y="0"/>
      <point x="394" y="0"/>
      <point x="524" y="0" type="curve"/>
      <point x="524" y="60"/>
      <point x="524" y="0"/>
      <point x="524" y="60" type="curve"/>
      <point x="394" y="60"/>
      <point x="265" y="60"/>
      <point x="136" y="60" type="curve"/>
      <point x="136" y="0"/>
      <point x="136" y="60"/>
    </contour>
    <contour>
      <point x="316" y="806" type="line"/>
      <point x="217" y="972" type="line"/>
      <point x="120" y="972" type="line"/>
      <point x="241" y="806" type="line"/>
    </contour>
  </outline>
</glyph>
<glyph name="Eacute" format="1">
  <advance width="542"/>
  <unicode hex="00C9"/>
  <outline>
    <contour>
      <point x="144" y="343" type="curve"/>
      <point x="240" y="343"/>
      <point x="336" y="343"/>
      <point x="433" y="343" type="curve"/>
      <point x="433" y="403"/>
      <point x="433" y="343"/>
      <point x="433" y="403" type="curve"/>
      <point x="336" y="403"/>
      <point x="240" y="403"/>
      <point x="144" y="403" type="curve"/>
      <point x="144" y="343"/>
      <point x="144" y="403"/>
    </contour>
    <contour>
      <point x="130" y="662" type="curve"/>
      <point x="250" y="662"/>
      <point x="369" y="662"/>
      <point x="489" y="662" type="curve"/>
      <point x="489" y="722"/>
      <point x="489" y="662"/>
      <point x="489" y="722" type="curve"/>
      <point x="369" y="722"/>
      <point x="250" y="722"/>
      <point x="130" y="722" type="curve"/>
      <point x="130" y="662"/>
      <point x="130" y="722"/>
    </contour>
    <contour>
      <point x="177" y="0" type="curve"/>
      <point x="177" y="722" type="line"/>
      <point x="101" y="722"/>
      <point x="177" y="722"/>
      <point x="101" y="722" type="curve"/>
      <point x="101" y="481"/>
      <point x="101" y="241"/>
      <point x="101" y="0" type="curve"/>
      <point x="177" y="0"/>
      <point x="101" y="0"/>
    </contour>
    <contour>
      <point x="130" y="0" type="curve"/>
      <point x="260" y="0"/>
      <point x="389" y="0"/>
      <point x="518" y="0" type="curve"/>
      <point x="518" y="60"/>
      <point x="518" y="0"/>
      <point x="518" y="60" type="curve"/>
      <point x="389" y="60"/>
      <point x="260" y="60"/>
      <point x="130" y="60" type="curve"/>
      <point x="130" y="0"/>
      <point x="130" y="60"/>
    </contour>
    <contour>
      <point x="304" y="806" type="line"/>
      <point x="426" y="972" type="line"/>
      <point x="329" y="972" type="line"/>
      <point x="230" y="806" type="line"/>
    </contour>
  </outline>
</glyph>
<glyph name="Ecircumflex" format="1">
  <advance width="529"/>
  <unicode hex="00CA"/>
  <outline>
    <contour>
      <point x="136" y="343" type="curve"/>
      <point x="233" y="343"/>
      <point x="329" y="343"/>
      <point x="426" y="343" type="curve"/>
      <point x="426" y="403"/>
      <point x="426" y="343"/>
      <point x="426" y="403" type="curve"/>
      <point x="329" y="403"/>
      <point x="233" y="403"/>
      <point x="136" y="403" type="curve"/>
      <point x="136" y="343"/>
      <point x="136" y="403"/>
    </contour>
    <contour>
      <point x="123" y="662" type="curve"/>
      <point x="243" y="662"/>
      <point x="362" y="662"/>
      <point x="481" y="662" type="curve"/>
      <point x="481" y="722"/>
      <point x="481" y="662"/>
      <point x="481" y="722" type="curve"/>
      <point x="362" y="722"/>
      <point x="243" y="722"/>
      <point x="123" y="722" type="curve"/>
      <point x="123" y="662"/>
      <point x="123" y="722"/>
    </contour>
    <contour>
      <point x="170" y="0" type="curve"/>
      <point x="170" y="722" type="line"/>
      <point x="94" y="722"/>
      <point x="170" y="722"/>
      <point x="94" y="722" type="curve"/>
      <point x="94" y="481"/>
      <point x="94" y="241"/>
      <point x="94" y="0" type="curve"/>
      <point x="170" y="0"/>
      <point x="94" y="0"/>
    </contour>
    <contour>
      <point x="123" y="0" type="curve"/>
      <point x="252" y="0"/>
      <point x="381" y="0"/>
      <point x="511" y="0" type="curve"/>
      <point x="511" y="60"/>
      <point x="511" y="0"/>
      <point x="511" y="60" type="curve"/>
      <point x="381" y="60"/>
      <point x="252" y="60"/>
      <point x="123" y="60" type="curve"/>
      <point x="123" y="0"/>
      <point x="123" y="60"/>
    </contour>
    <contour>
      <point x="176" y="806" type="line"/>
      <point x="297" y="972" type="line"/>
      <point x="200" y="972" type="line"/>
      <point x="101" y="806" type="line"/>
    </contour>
    <contour>
      <point x="425" y="806" type="line"/>
      <point x="325" y="972" type="line"/>
      <point x="229" y="972" type="line"/>
      <point x="350" y="806" type="line"/>
    </contour>
  </outline>
</glyph>
<glyph name="Edieresis" format="1">
  <advance width="542"/>
  <unicode hex="00CB"/>
  <outline>
    <contour>
      <point x="143" y="343" type="curve"/>
      <point x="239" y="343"/>
      <point x="335" y="343"/>
      <point x="432" y="343" type="curve"/>
      <point x="432" y="403"/>
      <point x="432" y="343"/>
      <point x="432" y="403" type="curve"/>
      <point x="335" y="403"/>
      <point x="239" y="403"/>
      <point x="143" y="403" type="curve"/>
      <point x="143" y="343"/>
      <point x="143" y="403"/>
    </contour>
    <contour>
      <point x="129" y="662" type="curve"/>
      <point x="249" y="662"/>
      <point x="368" y="662"/>
      <point x="488" y="662" type="curve"/>
      <point x="488" y="722"/>
      <point x="488" y="662"/>
      <point x="488" y="722" type="curve"/>
      <point x="368" y="722"/>
      <point x="249" y="722"/>
      <point x="129" y="722" type="curve"/>
      <point x="129" y="662"/>
      <point x="129" y="722"/>
    </contour>
    <contour>
      <point x="176" y="0" type="curve"/>
      <point x="176" y="722" type="line"/>
      <point x="100" y="722"/>
      <point x="176" y="722"/>
      <point x="100" y="722" type="curve"/>
      <point x="100" y="481"/>
      <point x="100" y="241"/>
      <point x="100" y="0" type="curve"/>
      <point x="176" y="0"/>
      <point x="100" y="0"/>
    </contour>
    <contour>
      <point x="129" y="0" type="curve"/>
      <point x="259" y="0"/>
      <point x="388" y="0"/>
      <point x="517" y="0" type="curve"/>
      <point x="517" y="60"/>
      <point x="517" y="0"/>
      <point x="517" y="60" type="curve"/>
      <point x="388" y="60"/>
      <point x="259" y="60"/>
      <point x="129" y="60" type="curve"/>
      <point x="129" y="0"/>
      <point x="129" y="60"/>
    </contour>
    <contour>
      <point x="239" y="843" type="curve"/>
      <point x="239" y="870"/>
      <point x="220" y="884"/>
      <point x="194" y="884" type="curve"/>
      <point x="168" y="884"/>
      <point x="151" y="869"/>
      <point x="151" y="843" type="curve"/>
      <point x="235" y="843"/>
      <point x="155" y="843"/>
      <point x="239" y="843" type="curve"/>
      <point x="239" y="816"/>
      <point x="220" y="803"/>
      <point x="194" y="803" type="curve"/>
      <point x="168" y="803"/>
      <point x="151" y="816"/>
      <point x="151" y="843" type="curve"/>
      <point x="235" y="843"/>
      <point x="155" y="843"/>
    </contour>
    <contour>
      <point x="388" y="843" type="curve"/>
      <point x="388" y="870"/>
      <point x="369" y="884"/>
      <point x="344" y="884" type="curve"/>
      <point x="317" y="884"/>
      <point x="301" y="869"/>
      <point x="301" y="843" type="curve"/>
      <point x="384" y="843"/>
      <point x="304" y="843"/>
      <point x="388" y="843" type="curve"/>
      <point x="388" y="816"/>
      <point x="370" y="803"/>
      <point x="343" y="803" type="curve"/>
      <point x="317" y="803"/>
      <point x="301" y="816"/>
      <point x="301" y="843" type="curve"/>
      <point x="384" y="843"/>
      <point x="304" y="843"/>
    </contour>
  </outline>
</glyph>
<glyph name="Igrave" format="1">
  <advance width="289"/>
  <unicode hex="00CC"/>
  <outline>
    <contour>
      <point x="186" y="0" type="curve"/>
      <point x="186" y="241"/>
      <point x="186" y="481"/>
      <point x="186" y="722" type="curve"/>
      <point x="110" y="722"/>
      <point x="186" y="722"/>
      <point x="110" y="722" type="curve"/>
      <point x="110" y="481"/>
      <point x="110" y="241"/>
      <point x="110" y="0" type="curve"/>
      <point x="186" y="0"/>
      <point x="110" y="0"/>
    </contour>
    <contour>
      <point x="189" y="806" type="line"/>
      <point x="90" y="972" type="line"/>
      <point x="-7" y="972" type="line"/>
      <point x="114" y="806" type="line"/>
    </contour>
  </outline>
</glyph>
<glyph name="Iacute" format="1">
  <advance width="285"/>
  <unicode hex="00CD"/>
  <outline>
    <contour>
      <point x="178" y="0" type="curve"/>
      <point x="178" y="241"/>
      <point x="178" y="481"/>
      <point x="178" y="722" type="curve"/>
      <point x="102" y="722"/>
      <point x="178" y="722"/>
      <point x="102" y="722" type="curve"/>
      <point x="102" y="481"/>
      <point x="102" y="241"/>
      <point x="102" y="0" type="curve"/>
      <point x="178" y="0"/>
      <point x="102" y="0"/>
    </contour>
    <contour>
      <point x="175" y="806" type="line"/>
      <point x="297" y="972" type="line"/>
      <point x="200" y="972" type="line"/>
      <point x="101" y="806" type="line"/>
    </contour>
  </outline>
</glyph>
<glyph name="Icircumflex" format="1">
  <advance width="295"/>
  <unicode hex="00CE"/>
  <outline>
    <contour>
      <point x="189" y="0" type="curve"/>
      <point x="189" y="241"/>
      <point x="189" y="481"/>
      <point x="189" y="722" type="curve"/>
      <point x="113" y="722"/>
      <point x="189" y="722"/>
      <point x="113" y="722" type="curve"/>
      <point x="113" y="481"/>
      <point x="113" y="241"/>
      <point x="113" y="0" type="curve"/>
      <point x="189" y="0"/>
      <point x="113" y="0"/>
    </contour>
    <contour>
      <point x="65" y="806" type="line"/>
      <point x="186" y="972" type="line"/>
      <point x="90" y="972" type="line"/>
      <point x="-9" y="806" type="line"/>
    </contour>
    <contour>
      <point x="314" y="806" type="line"/>
      <point x="214" y="972" type="line"/>
      <point x="118" y="972" type="line"/>
      <point x="239" y="806" type="line"/>
    </contour>
  </outline>
</glyph>
<glyph name="Idieresis" format="1">
  <advance width="255"/>
  <unicode hex="00CF"/>
  <outline>
    <contour>
      <point x="167" y="0" type="curve"/>
      <point x="167" y="241"/>
      <point x="167" y="481"/>
      <point x="167" y="722" type="curve"/>
      <point x="91" y="722"/>
      <point x="167" y="722"/>
      <point x="91" y="722" type="curve"/>
      <point x="91" y="481"/>
      <point x="91" y="241"/>
      <point x="91" y="0" type="curve"/>
      <point x="167" y="0"/>
      <point x="91" y="0"/>
    </contour>
    <contour>
      <point x="100" y="843" type="curve"/>
      <point x="100" y="870"/>
      <point x="81" y="884"/>
      <point x="55" y="884" type="curve"/>
      <point x="29" y="884"/>
      <point x="12" y="869"/>
      <point x="12" y="843" type="curve"/>
      <point x="96" y="843"/>
      <point x="16" y="843"/>
      <point x="100" y="843" type="curve"/>
      <point x="100" y="816"/>
      <point x="82" y="803"/>
      <point x="55" y="803" type="curve"/>
      <point x="29" y="803"/>
      <point x="12" y="816"/>
      <point x="12" y="843" type="curve"/>
      <point x="96" y="843"/>
      <point x="16" y="843"/>
    </contour>
    <contour>
      <point x="249" y="843" type="curve"/>
      <point x="249" y="870"/>
      <point x="230" y="884"/>
      <point x="205" y="884" type="curve"/>
      <point x="178" y="884"/>
      <point x="162" y="869"/>
      <point x="162" y="843" type="curve"/>
      <point x="245" y="843"/>
      <point x="165" y="843"/>
      <point x="249" y="843" type="curve"/>
      <point x="249" y="816"/>
      <point x="231" y="803"/>
      <point x="204" y="803" type="curve"/>
      <point x="178" y="803"/>
      <point x="162" y="816"/>
      <point x="162" y="843" type="curve"/>
      <point x="245" y="843"/>
      <point x="165" y="843"/>
    </contour>
  </outline>
</glyph>
<glyph name="Eth" format="1">
  <advance width="682"/>
  <unicode hex="00D0"/>
  <outline>
    <contour>
      <point x="103" y="722" type="curve"/>
      <point x="103" y="481"/>
      <point x="103" y="241"/>
      <point x="103" y="0" type="curve"/>
      <point x="179" y="0"/>
      <point x="103" y="0"/>
      <point x="179" y="0" type="curve"/>
      <point x="179" y="241"/>
      <point x="179" y="481"/>
      <point x="179" y="722" type="curve"/>
      <point x="103" y="722"/>
      <point x="179" y="722"/>
    </contour>
    <contour>
      <point x="142" y="0" type="curve"/>
      <point x="200" y="0"/>
      <point x="250" y="0"/>
      <point x="307" y="0" type="curve"/>
      <point x="521" y="0"/>
      <point x="624" y="133"/>
      <point x="624" y="354" type="curve"/>
      <point x="624" y="583"/>
      <point x="520" y="722"/>
      <point x="299" y="722" type="curve"/>
      <point x="245" y="722"/>
      <point x="197" y="722"/>
      <point x="142" y="722" type="curve"/>
      <point x="142" y="668"/>
      <point x="142" y="716"/>
      <point x="142" y="662" type="curve"/>
      <point x="196" y="662"/>
      <point x="243" y="662"/>
      <point x="296" y="662" type="curve"/>
      <point x="474" y="662"/>
      <point x="548" y="541"/>
      <point x="548" y="353" type="curve"/>
      <point x="548" y="175"/>
      <point x="481" y="60"/>
      <point x="314" y="60" type="curve"/>
      <point x="254" y="60"/>
      <point x="202" y="60"/>
      <point x="142" y="60" type="curve"/>
      <point x="142" y="6"/>
      <point x="142" y="54"/>
    </contour>
    <contour>
      <point x="37" y="349" type="curve"/>
      <point x="133" y="349"/>
      <point x="229" y="349"/>
      <point x="324" y="349" type="curve"/>
      <point x="324" y="414"/>
      <point x="324" y="349"/>
      <point x="324" y="414" type="curve"/>
      <point x="229" y="414"/>
      <point x="133" y="414"/>
      <point x="37" y="414" type="curve"/>
      <point x="37" y="349"/>
      <point x="37" y="414"/>
    </contour>
  </outline>
</glyph>
<glyph name="Ntilde" format="1">
  <advance width="758"/>
  <unicode hex="00D1"/>
  <outline>
    <contour>
      <point x="657" y="0" type="curve"/>
      <point x="499" y="241"/>
      <point x="343" y="481"/>
      <point x="186" y="722" type="curve"/>
      <point x="101" y="722"/>
      <point x="186" y="722"/>
      <point x="101" y="722" type="curve"/>
      <point x="258" y="481"/>
      <point x="415" y="241"/>
      <point x="572" y="0" type="curve"/>
      <point x="657" y="0"/>
      <point x="572" y="0"/>
    </contour>
    <contour>
      <point x="581" y="722" type="curve"/>
      <point x="581" y="481"/>
      <point x="581" y="241"/>
      <point x="581" y="0" type="curve"/>
      <point x="657" y="0"/>
      <point x="581" y="0"/>
      <point x="657" y="0" type="curve"/>
      <point x="657" y="241"/>
      <point x="657" y="481"/>
      <point x="657" y="722" type="curve"/>
      <point x="581" y="722"/>
      <point x="657" y="722"/>
    </contour>
    <contour>
      <point x="178" y="0" type="curve"/>
      <point x="178" y="241"/>
      <point x="178" y="481"/>
      <point x="178" y="722" type="curve"/>
      <point x="102" y="722"/>
      <point x="178" y="722"/>
      <point x="102" y="722" type="curve"/>
      <point x="102" y="481"/>
      <point x="102" y="241"/>
      <point x="102" y="0" type="curve"/>
      <point x="178" y="0"/>
      <point x="102" y="0"/>
    </contour>
    <contour>
      <point x="518" y="957" type="curve"/>
      <point x="505" y="912"/>
      <point x="493" y="877"/>
      <point x="461" y="877" type="curve"/>
      <point x="429" y="877"/>
      <point x="412" y="891"/>
      <point x="391" y="915" type="curve"/>
      <point x="364" y="943"/>
      <point x="344" y="961"/>
      <point x="306" y="961" type="curve"/>
      <point x="239" y="961"/>
      <point x="212" y="903"/>
      <point x="194" y="835" type="curve"/>
      <point x="251" y="807"/>
      <point x="194" y="835"/>
      <point x="251" y="807" type="curve"/>
      <point x="266" y="856"/>
      <point x="280" y="889"/>
      <point x="316" y="889" type="curve"/>
      <point x="345" y="889"/>
      <point x="359" y="873"/>
      <point x="377" y="852" type="curve"/>
      <point x="407" y="821"/>
      <point x="429" y="804"/>
      <point x="471" y="804" type="curve"/>
      <point x="538" y="804"/>
      <point x="559" y="862"/>
      <point x="579" y="931" type="curve"/>
      <point x="518" y="957"/>
      <point x="579" y="930"/>
    </contour>
  </outline>
</glyph>
<glyph name="Ocircumflex" format="1">
  <advance width="698"/>
  <unicode hex="00D4"/>
  <outline>
    <contour>
      <point x="133" y="360" type="curve" name="FullCurve"/>
      <point x="133" y="530"/>
      <point x="189" y="665"/>
      <point x="346" y="665" type="curve" name="FullCurve"/>
      <point x="503" y="665"/>
      <point x="565" y="533"/>
      <point x="565" y="363" type="curve" name="FullCurve"/>
      <point x="565" y="193"/>
      <point x="508" y="58"/>
      <point x="351" y="58" type="curve" name="FullCurve"/>
      <point x="193" y="58"/>
      <point x="133" y="189"/>
      <point x="133" y="360" type="curve" name="FullCurve"/>
      <point x="57" y="360"/>
      <point x="133" y="360"/>
      <point x="57" y="360" type="curve" name="FullCurve"/>
      <point x="57" y="149"/>
      <point x="150" y="-5"/>
      <point x="348" y="-5" type="curve" name="FullCurve"/>
      <point x="547" y="-5"/>
      <point x="641" y="150"/>
      <point x="641" y="363" type="curve" name="FullCurve"/>
      <point x="641" y="573"/>
      <point x="549" y="727"/>
      <point x="350" y="727" type="curve" name="FullCurve"/>
      <point x="151" y="727"/>
      <point x="57" y="572"/>
      <point x="57" y="360" type="curve" name="FullCurve"/>
      <point x="133" y="360"/>
      <point x="57" y="360"/>
    </contour>
    <contour>
      <point x="262" y="806" type="line"/>
      <point x="383" y="972" type="line"/>
      <point x="286" y="972" type="line"/>
      <point x="187" y="806" type="line"/>
    </contour>
    <contour>
      <point x="511" y="806" type="line"/>
      <point x="411" y="972" type="line"/>
      <point x="315" y="972" type="line"/>
      <point x="436" y="806" type="line"/>
    </contour>
  </outline>
</glyph>
<glyph name="Otilde" format="1">
  <advance width="698"/>
  <unicode hex="00D5"/>
  <outline>
    <contour>
      <point x="133" y="360" type="curve" name="FullCurve"/>
      <point x="133" y="530"/>
      <point x="189" y="665"/>
      <point x="346" y="665" type="curve" name="FullCurve"/>
      <point x="503" y="665"/>
      <point x="565" y="533"/>
      <point x="565" y="363" type="curve" name="FullCurve"/>
      <point x="565" y="193"/>
      <point x="508" y="58"/>
      <point x="351" y="58" type="curve" name="FullCurve"/>
      <point x="193" y="58"/>
      <point x="133" y="189"/>
      <point x="133" y="360" type="curve" name="FullCurve"/>
      <point x="57" y="360"/>
      <point x="133" y="360"/>
      <point x="57" y="360" type="curve" name="FullCurve"/>
      <point x="57" y="149"/>
      <point x="150" y="-5"/>
      <point x="348" y="-5" type="curve" name="FullCurve"/>
      <point x="547" y="-5"/>
      <point x="641" y="150"/>
      <point x="641" y="363" type="curve" name="FullCurve"/>
      <point x="641" y="573"/>
      <point x="549" y="727"/>
      <point x="350" y="727" type="curve" name="FullCurve"/>
      <point x="151" y="727"/>
      <point x="57" y="572"/>
      <point x="57" y="360" type="curve" name="FullCurve"/>
      <point x="133" y="360"/>
      <point x="57" y="360"/>
    </contour>
    <contour>
      <point x="483" y="957" type="curve"/>
      <point x="470" y="912"/>
      <point x="457" y="877"/>
      <point x="426" y="877" type="curve"/>
      <point x="394" y="877"/>
      <point x="377" y="891"/>
      <point x="356" y="915" type="curve"/>
      <point x="328" y="943"/>
      <point x="309" y="961"/>
      <point x="271" y="961" type="curve"/>
      <point x="204" y="961"/>
      <point x="176" y="903"/>
      <point x="159" y="835" type="curve"/>
      <point x="216" y="807"/>
      <point x="159" y="835"/>
      <point x="216" y="807" type="curve"/>
      <point x="230" y="856"/>
      <point x="245" y="889"/>
      <point x="281" y="889" type="curve"/>
      <point x="310" y="889"/>
      <point x="323" y="873"/>
      <point x="342" y="852" type="curve"/>
      <point x="372" y="821"/>
      <point x="394" y="804"/>
      <point x="436" y="804" type="curve"/>
      <point x="503" y="804"/>
      <point x="523" y="862"/>
      <point x="544" y="931" type="curve"/>
      <point x="483" y="957"/>
      <point x="544" y="930"/>
    </contour>
  </outline>
</glyph>
<glyph name="Odieresis" format="1">
  <advance width="698"/>
  <unicode hex="00D6"/>
  <outline>
    <contour>
      <point x="133" y="360" type="curve" name="FullCurve"/>
      <point x="133" y="530"/>
      <point x="189" y="665"/>
      <point x="346" y="665" type="curve" name="FullCurve"/>
      <point x="503" y="665"/>
      <point x="565" y="533"/>
      <point x="565" y="363" type="curve" name="FullCurve"/>
      <point x="565" y="193"/>
      <point x="508" y="58"/>
      <point x="351" y="58" type="curve" name="FullCurve"/>
      <point x="193" y="58"/>
      <point x="133" y="189"/>
      <point x="133" y="360" type="curve" name="FullCurve"/>
      <point x="57" y="360"/>
      <point x="133" y="360"/>
      <point x="57" y="360" type="curve" name="FullCurve"/>
      <point x="57" y="149"/>
      <point x="150" y="-5"/>
      <point x="348" y="-5" type="curve" name="FullCurve"/>
      <point x="547" y="-5"/>
      <point x="641" y="150"/>
      <point x="641" y="363" type="curve" name="FullCurve"/>
      <point x="641" y="573"/>
      <point x="549" y="727"/>
      <point x="350" y="727" type="curve" name="FullCurve"/>
      <point x="151" y="727"/>
      <point x="57" y="572"/>
      <point x="57" y="360" type="curve" name="FullCurve"/>
      <point x="133" y="360"/>
      <point x="57" y="360"/>
    </contour>
    <contour>
      <point x="319" y="843" type="curve"/>
      <point x="319" y="870"/>
      <point x="300" y="884"/>
      <point x="274" y="884" type="curve"/>
      <point x="248" y="884"/>
      <point x="231" y="869"/>
      <point x="231" y="843" type="curve"/>
      <point x="315" y="843"/>
      <point x="235" y="843"/>
      <point x="319" y="843" type="curve"/>
      <point x="319" y="816"/>
      <point x="300" y="803"/>
      <point x="274" y="803" type="curve"/>
      <point x="248" y="803"/>
      <point x="231" y="816"/>
      <point x="231" y="843" type="curve"/>
      <point x="315" y="843"/>
      <point x="235" y="843"/>
    </contour>
    <contour>
      <point x="468" y="843" type="curve"/>
      <point x="468" y="870"/>
      <point x="449" y="884"/>
      <point x="423" y="884" type="curve"/>
      <point x="397" y="884"/>
      <point x="380" y="869"/>
      <point x="380" y="843" type="curve"/>
      <point x="464" y="843"/>
      <point x="384" y="843"/>
      <point x="468" y="843" type="curve"/>
      <point x="468" y="816"/>
      <point x="450" y="803"/>
      <point x="423" y="803" type="curve"/>
      <point x="397" y="803"/>
      <point x="380" y="816"/>
      <point x="380" y="843" type="curve"/>
      <point x="464" y="843"/>
      <point x="384" y="843"/>
    </contour>
  </outline>
</glyph>
<glyph name="multiply" format="1">
  <advance width="549"/>
  <unicode hex="00D7"/>
  <outline>
    <contour>
      <point x="102" y="89" type="line"/>
      <point x="492" y="486" type="line"/>
      <point x="447" y="531" type="line"/>
      <point x="57" y="134" type="line"/>
    </contour>
    <contour>
      <point x="493" y="132" type="line"/>
      <point x="102" y="530" type="line"/>
      <point x="57" y="485" type="line"/>
      <point x="448" y="87" type="line"/>
    </contour>
  </outline>
</glyph>
<glyph name="Uacute" format="1">
  <advance width="699"/>
  <unicode hex="00DA"/>
  <outline>
    <contour>
      <point x="93" y="721" type="curve"/>
      <point x="93" y="573"/>
      <point x="92" y="421"/>
      <point x="93" y="273" type="curve"/>
      <point x="93" y="92"/>
      <point x="171" y="-5"/>
      <point x="349" y="-5" type="curve"/>
      <point x="526" y="-5"/>
      <point x="606" y="93"/>
      <point x="606" y="273" type="curve"/>
      <point x="606" y="421"/>
      <point x="606" y="574"/>
      <point x="606" y="721" type="curve"/>
      <point x="539" y="721"/>
      <point x="603" y="721"/>
      <point x="536" y="721" type="curve"/>
      <point x="536" y="570"/>
      <point x="536" y="417"/>
      <point x="536" y="265" type="curve"/>
      <point x="536" y="136"/>
      <point x="479" y="61"/>
      <point x="355" y="61" type="curve"/>
      <point x="217" y="61"/>
      <point x="163" y="142"/>
      <point x="163" y="284" type="curve"/>
      <point x="163" y="429"/>
      <point x="163" y="578"/>
      <point x="163" y="721" type="curve"/>
      <point x="95" y="721"/>
      <point x="160" y="721"/>
    </contour>
    <contour>
      <point x="387" y="806" type="line"/>
      <point x="508" y="972" type="line"/>
      <point x="412" y="972" type="line"/>
      <point x="313" y="806" type="line"/>
    </contour>
  </outline>
</glyph>
<glyph name="Udieresis" format="1">
  <advance width="699"/>
  <unicode hex="00DC"/>
  <outline>
    <contour>
      <point x="93" y="721" type="curve"/>
      <point x="93" y="573"/>
      <point x="92" y="421"/>
      <point x="93" y="273" type="curve"/>
      <point x="93" y="92"/>
      <point x="171" y="-5"/>
      <point x="349" y="-5" type="curve"/>
      <point x="526" y="-5"/>
      <point x="606" y="93"/>
      <point x="606" y="273" type="curve"/>
      <point x="606" y="421"/>
      <point x="606" y="574"/>
      <point x="606" y="721" type="curve"/>
      <point x="539" y="721"/>
      <point x="603" y="721"/>
      <point x="536" y="721" type="curve"/>
      <point x="536" y="570"/>
      <point x="536" y="417"/>
      <point x="536" y="265" type="curve"/>
      <point x="536" y="136"/>
      <point x="479" y="61"/>
      <point x="355" y="61" type="curve"/>
      <point x="217" y="61"/>
      <point x="163" y="142"/>
      <point x="163" y="284" type="curve"/>
      <point x="163" y="429"/>
      <point x="163" y="578"/>
      <point x="163" y="721" type="curve"/>
      <point x="95" y="721"/>
      <point x="160" y="721"/>
    </contour>
    <contour>
      <point x="322" y="843" type="curve"/>
      <point x="322" y="870"/>
      <point x="304" y="884"/>
      <point x="278" y="884" type="curve"/>
      <point x="252" y="884"/>
      <point x="235" y="869"/>
      <point x="235" y="843" type="curve"/>
      <point x="319" y="843"/>
      <point x="239" y="843"/>
      <point x="322" y="843" type="curve"/>
      <point x="322" y="816"/>
      <point x="304" y="803"/>
      <point x="278" y="803" type="curve"/>
      <point x="251" y="803"/>
      <point x="235" y="816"/>
      <point x="235" y="843" type="curve"/>
      <point x="319" y="843"/>
      <point x="239" y="843"/>
    </contour>
    <contour>
      <point x="472" y="843" type="curve"/>
      <point x="472" y="870"/>
      <point x="453" y="884"/>
      <point x="427" y="884" type="curve"/>
      <point x="401" y="884"/>
      <point x="384" y="869"/>
      <point x="384" y="843" type="curve"/>
      <point x="468" y="843"/>
      <point x="388" y="843"/>
      <point x="472" y="843" type="curve"/>
      <point x="472" y="816"/>
      <point x="453" y="803"/>
      <point x="427" y="803" type="curve"/>
      <point x="400" y="803"/>
      <point x="384" y="816"/>
      <point x="384" y="843" type="curve"/>
      <point x="468" y="843"/>
      <point x="388" y="843"/>
    </contour>
  </outline>
</glyph>
